<svg width="35" height="46" viewBox="0 0 35 46" fill="none" xmlns="http://www.w3.org/2000/svg">
<path d="M32.5026 0.39978H9.98287C9.0856 0.39978 8.35822 1.14141 8.35822 2.05626V38.1272C8.35822 39.042 9.0856 39.7836 9.98287 39.7836H32.5026C33.3998 39.7836 34.1272 39.042 34.1272 38.1272V2.05626C34.1272 1.14141 33.3998 0.39978 32.5026 0.39978Z" fill="#F2F3F7" stroke="#1C2C65" stroke-width="0.7" stroke-miterlimit="10"/>
<path d="M27.6106 12.7506C28.5768 12.7506 29.36 11.952 29.36 10.967C29.36 9.9819 28.5768 9.18335 27.6106 9.18335C26.6445 9.18335 25.8613 9.9819 25.8613 10.967C25.8613 11.952 26.6445 12.7506 27.6106 12.7506Z" fill="#1C2C65" stroke="#F2F3F7" stroke-width="0.4" stroke-miterlimit="10"/>
<path d="M31.0614 10.9669H24.1611C24.0486 10.9669 23.9381 10.9369 23.8405 10.8801C23.7428 10.8233 23.6613 10.7415 23.6041 10.6428C23.5469 10.5441 23.5158 10.4319 23.5141 10.3172C23.5123 10.2026 23.5398 10.0894 23.594 9.98894C23.9493 9.35836 24.137 8.64407 24.1383 7.91681C24.1383 6.01706 23.8002 2.62219 27.6154 2.62219C31.4307 2.62219 31.0925 6.01706 31.0925 7.91681C31.0954 8.64287 31.2834 9.35568 31.6381 9.98527C31.6935 10.0866 31.7218 10.201 31.72 10.3171C31.7183 10.4331 31.6866 10.5466 31.6281 10.6461C31.5696 10.7457 31.4864 10.8277 31.3869 10.884C31.2875 10.9404 31.1752 10.969 31.0614 10.9669Z" fill="#1C2C65" stroke="#F2F3F7" stroke-width="0.4" stroke-miterlimit="10"/>
<path d="M26.5795 12.7506C27.5456 12.7506 28.3288 11.952 28.3288 10.967C28.3288 9.9819 27.5456 9.18335 26.5795 9.18335C25.6133 9.18335 24.8301 9.9819 24.8301 10.967C24.8301 11.952 25.6133 12.7506 26.5795 12.7506Z" fill="#1C2C65" stroke="#F2F3F7" stroke-width="0.7" stroke-miterlimit="10"/>
<path d="M30.029 10.9671H23.13C23.0175 10.967 22.907 10.9371 22.8093 10.8802C22.7117 10.8234 22.6302 10.7416 22.573 10.6429C22.5157 10.5442 22.4847 10.432 22.4829 10.3173C22.4812 10.2027 22.5087 10.0896 22.5628 9.98906C22.918 9.35968 23.1061 8.64673 23.1084 7.9206C23.1084 6.02084 22.7691 2.62598 26.5855 2.62598C30.4019 2.62598 30.0566 6.02084 30.0566 7.9206C30.0595 8.64665 30.2475 9.35946 30.6022 9.98906C30.6566 10.09 30.6841 10.2037 30.6821 10.3189C30.68 10.434 30.6485 10.5467 30.5905 10.6455C30.5326 10.7444 30.4503 10.8261 30.3518 10.8825C30.2533 10.9389 30.142 10.9681 30.029 10.9671Z" fill="#1C2C65" stroke="#F2F3F7" stroke-width="0.7" stroke-miterlimit="10"/>
<path d="M25.3625 6.21643H2.84279C1.94552 6.21643 1.21814 6.95806 1.21814 7.87291V43.9438C1.21814 44.8587 1.94552 45.6003 2.84279 45.6003H25.3625C26.2598 45.6003 26.9872 44.8587 26.9872 43.9438V7.87291C26.9872 6.95806 26.2598 6.21643 25.3625 6.21643Z" fill="#F2F3F7" stroke="#1C2C65" stroke-width="0.7" stroke-miterlimit="10"/>
<path d="M19.4934 18.566C20.4595 18.566 21.2427 17.7675 21.2427 16.7824C21.2427 15.7973 20.4595 14.9988 19.4934 14.9988C18.5272 14.9988 17.744 15.7973 17.744 16.7824C17.744 17.7675 18.5272 18.566 19.4934 18.566Z" fill="#1C2C65" stroke="#F2F3F7" stroke-width="0.4" stroke-miterlimit="10"/>
<path d="M22.9393 16.7824H16.0438C15.9314 16.7823 15.8209 16.7524 15.7232 16.6955C15.6256 16.6387 15.5441 16.5569 15.4869 16.4582C15.4296 16.3595 15.3986 16.2473 15.3968 16.1326C15.395 16.018 15.4226 15.9049 15.4767 15.8044C15.8319 15.175 16.0199 14.462 16.0223 13.7359C16.0223 11.8362 15.6841 8.44128 19.4934 8.44128C23.3026 8.44128 22.9705 11.8362 22.9705 13.7359C22.9716 14.4614 23.1575 15.1742 23.5101 15.8044C23.5647 15.9051 23.5926 16.0186 23.5908 16.1337C23.589 16.2488 23.5577 16.3615 23.5 16.4604C23.4423 16.5593 23.3601 16.6411 23.2618 16.6976C23.1634 16.7541 23.0522 16.7833 22.9393 16.7824Z" fill="#1C2C65" stroke="#F2F3F7" stroke-width="0.3" stroke-miterlimit="10"/>
<path d="M18.4622 18.566C19.4284 18.566 20.2116 17.7675 20.2116 16.7824C20.2116 15.7973 19.4284 14.9988 18.4622 14.9988C17.4961 14.9988 16.7129 15.7973 16.7129 16.7824C16.7129 17.7675 17.4961 18.566 18.4622 18.566Z" fill="#1C2C65" stroke="#F2F3F7" stroke-width="0.7" stroke-miterlimit="10"/>
<path d="M21.9118 16.7824H15.0127C14.9001 16.7827 14.7894 16.753 14.6915 16.6962C14.5936 16.6395 14.512 16.5576 14.4547 16.4588C14.3974 16.36 14.3664 16.2476 14.3648 16.1328C14.3632 16.018 14.391 15.9048 14.4456 15.8044C14.8002 15.1748 14.9882 14.462 14.9911 13.7359C14.9911 11.8362 14.6518 8.44128 18.4622 8.44128C22.2727 8.44128 21.9393 11.8362 21.9393 13.7359C21.9404 14.4614 22.1263 15.1742 22.4789 15.8044C22.533 15.9049 22.5606 16.018 22.5588 16.1326C22.557 16.2473 22.526 16.3595 22.4688 16.4582C22.4115 16.5569 22.3301 16.6387 22.2324 16.6955C22.1347 16.7524 22.0242 16.7823 21.9118 16.7824Z" fill="#1C2C65" stroke="#F2F3F7" stroke-width="0.7" stroke-miterlimit="10"/>
<path d="M5.70721 23.9132H22.4981" stroke="#1C2C65" stroke-width="0.7" stroke-miterlimit="10"/>
<path d="M5.70721 27.0624H22.4981" stroke="#1C2C65" stroke-width="0.7" stroke-miterlimit="10"/>
<path d="M5.70721 30.5819H22.4981" stroke="#1C2C65" stroke-width="0.7" stroke-miterlimit="10"/>
<path d="M5.70721 34.1014H22.4981" stroke="#1C2C65" stroke-width="0.7" stroke-miterlimit="10"/>
</svg>
