<svg width="40" height="54" viewBox="0 0 40 54" fill="none" xmlns="http://www.w3.org/2000/svg">
<path d="M34.5025 4.39978H11.9828C11.0855 4.39978 10.3582 5.14141 10.3582 6.05626V42.1272C10.3582 43.042 11.0855 43.7836 11.9828 43.7836H34.5025C35.3998 43.7836 36.1272 43.042 36.1272 42.1272V6.05626C36.1272 5.14141 35.3998 4.39978 34.5025 4.39978Z" fill="white" stroke="url(#paint0_linear_1_2334)" stroke-width="0.7" stroke-miterlimit="10"/>
<path d="M29.6107 16.7506C30.5768 16.7506 31.36 15.952 31.36 14.967C31.36 13.9819 30.5768 13.1833 29.6107 13.1833C28.6445 13.1833 27.8613 13.9819 27.8613 14.967C27.8613 15.952 28.6445 16.7506 29.6107 16.7506Z" fill="url(#paint1_linear_1_2334)" stroke="white" stroke-width="0.4" stroke-miterlimit="10"/>
<path d="M33.0613 14.9669H26.161C26.0486 14.9669 25.9381 14.9369 25.8404 14.8801C25.7427 14.8233 25.6613 14.7415 25.604 14.6428C25.5468 14.5441 25.5158 14.4319 25.514 14.3172C25.5122 14.2026 25.5398 14.0894 25.5939 13.9889C25.9493 13.3584 26.1369 12.6441 26.1383 11.9168C26.1383 10.0171 25.8001 6.62219 29.6154 6.62219C33.4306 6.62219 33.0925 10.0171 33.0925 11.9168C33.0954 12.6429 33.2834 13.3557 33.638 13.9853C33.6935 14.0866 33.7217 14.201 33.72 14.3171C33.7182 14.4331 33.6865 14.5466 33.628 14.6461C33.5696 14.7457 33.4864 14.8277 33.3869 14.884C33.2874 14.9404 33.1751 14.969 33.0613 14.9669Z" fill="url(#paint2_linear_1_2334)" stroke="white" stroke-width="0.4" stroke-miterlimit="10"/>
<path d="M28.5794 16.7506C29.5456 16.7506 30.3288 15.952 30.3288 14.967C30.3288 13.9819 29.5456 13.1833 28.5794 13.1833C27.6133 13.1833 26.8301 13.9819 26.8301 14.967C26.8301 15.952 27.6133 16.7506 28.5794 16.7506Z" fill="url(#paint3_linear_1_2334)" stroke="white" stroke-width="0.7" stroke-miterlimit="10"/>
<path d="M32.0291 14.9671H25.13C25.0176 14.967 24.9071 14.9371 24.8094 14.8802C24.7117 14.8234 24.6303 14.7416 24.573 14.6429C24.5158 14.5442 24.4848 14.432 24.483 14.3173C24.4812 14.2027 24.5088 14.0896 24.5629 13.9891C24.9181 13.3597 25.1061 12.6467 25.1084 11.9206C25.1084 10.0208 24.7691 6.62598 28.5856 6.62598C32.402 6.62598 32.0567 10.0208 32.0567 11.9206C32.0596 12.6466 32.2476 13.3595 32.6022 13.9891C32.6566 14.09 32.6842 14.2037 32.6821 14.3189C32.6801 14.434 32.6485 14.5467 32.5906 14.6455C32.5326 14.7444 32.4503 14.8261 32.3518 14.8825C32.2533 14.9389 32.1421 14.9681 32.0291 14.9671Z" fill="url(#paint4_linear_1_2334)" stroke="white" stroke-width="0.7" stroke-miterlimit="10"/>
<path d="M27.3624 10.2164H4.84267C3.9454 10.2164 3.21802 10.9581 3.21802 11.8729V47.9438C3.21802 48.8587 3.9454 49.6003 4.84267 49.6003H27.3624C28.2597 49.6003 28.987 48.8587 28.987 47.9438V11.8729C28.987 10.9581 28.2597 10.2164 27.3624 10.2164Z" fill="white" stroke="url(#paint5_linear_1_2334)" stroke-width="0.7" stroke-miterlimit="10"/>
<path d="M21.4932 22.566C22.4594 22.566 23.2426 21.7675 23.2426 20.7824C23.2426 19.7973 22.4594 18.9988 21.4932 18.9988C20.5271 18.9988 19.7439 19.7973 19.7439 20.7824C19.7439 21.7675 20.5271 22.566 21.4932 22.566Z" fill="url(#paint6_linear_1_2334)" stroke="white" stroke-width="0.4" stroke-miterlimit="10"/>
<path d="M24.9393 20.7824H18.0438C17.9314 20.7823 17.8209 20.7524 17.7232 20.6955C17.6256 20.6387 17.5441 20.5569 17.4869 20.4582C17.4296 20.3595 17.3986 20.2473 17.3968 20.1326C17.395 20.018 17.4226 19.9049 17.4767 19.8044C17.8319 19.175 18.0199 18.462 18.0223 17.7359C18.0223 15.8362 17.6841 12.4413 21.4934 12.4413C25.3026 12.4413 24.9705 15.8362 24.9705 17.7359C24.9716 18.4614 25.1575 19.1742 25.5101 19.8044C25.5647 19.9051 25.5926 20.0186 25.5908 20.1337C25.589 20.2488 25.5577 20.3615 25.5 20.4604C25.4423 20.5593 25.3601 20.6411 25.2618 20.6976C25.1634 20.7541 25.0522 20.7833 24.9393 20.7824Z" fill="url(#paint7_linear_1_2334)" stroke="white" stroke-width="0.3" stroke-miterlimit="10"/>
<path d="M20.4622 22.566C21.4284 22.566 22.2116 21.7675 22.2116 20.7824C22.2116 19.7973 21.4284 18.9988 20.4622 18.9988C19.4961 18.9988 18.7129 19.7973 18.7129 20.7824C18.7129 21.7675 19.4961 22.566 20.4622 22.566Z" fill="url(#paint8_linear_1_2334)" stroke="white" stroke-width="0.7" stroke-miterlimit="10"/>
<path d="M23.9118 20.7824H17.0127C16.9001 20.7827 16.7894 20.753 16.6915 20.6962C16.5936 20.6395 16.512 20.5576 16.4547 20.4588C16.3974 20.36 16.3664 20.2476 16.3648 20.1328C16.3632 20.018 16.391 19.9048 16.4456 19.8044C16.8002 19.1748 16.9882 18.462 16.9911 17.7359C16.9911 15.8362 16.6518 12.4413 20.4622 12.4413C24.2727 12.4413 23.9393 15.8362 23.9393 17.7359C23.9404 18.4614 24.1263 19.1742 24.4789 19.8044C24.533 19.9049 24.5606 20.018 24.5588 20.1326C24.557 20.2473 24.526 20.3595 24.4688 20.4582C24.4115 20.5569 24.3301 20.6387 24.2324 20.6955C24.1347 20.7524 24.0242 20.7823 23.9118 20.7824Z" fill="url(#paint9_linear_1_2334)" stroke="white" stroke-width="0.7" stroke-miterlimit="10"/>
<path d="M7.70728 27.9132H24.4981" stroke="url(#paint10_linear_1_2334)" stroke-width="0.7" stroke-miterlimit="10"/>
<path d="M7.70728 31.0624H24.4981" stroke="url(#paint11_linear_1_2334)" stroke-width="0.7" stroke-miterlimit="10"/>
<path d="M7.70728 34.5819H24.4981" stroke="url(#paint12_linear_1_2334)" stroke-width="0.7" stroke-miterlimit="10"/>
<path d="M7.70728 38.1014H24.4981" stroke="url(#paint13_linear_1_2334)" stroke-width="0.7" stroke-miterlimit="10"/>
<defs>
<linearGradient id="paint0_linear_1_2334" x1="23.2427" y1="4.39978" x2="23.2427" y2="43.7836" gradientUnits="userSpaceOnUse">
<stop stop-color="#4B77FE"/>
<stop offset="1" stop-color="#6EDFE8"/>
</linearGradient>
<linearGradient id="paint1_linear_1_2334" x1="29.6107" y1="13.1833" x2="29.6107" y2="16.7506" gradientUnits="userSpaceOnUse">
<stop stop-color="#4B77FE"/>
<stop offset="1" stop-color="#6EDFE8"/>
</linearGradient>
<linearGradient id="paint2_linear_1_2334" x1="29.617" y1="6.62219" x2="29.617" y2="14.967" gradientUnits="userSpaceOnUse">
<stop stop-color="#4B77FE"/>
<stop offset="1" stop-color="#6EDFE8"/>
</linearGradient>
<linearGradient id="paint3_linear_1_2334" x1="28.5794" y1="13.1833" x2="28.5794" y2="16.7506" gradientUnits="userSpaceOnUse">
<stop stop-color="#4B77FE"/>
<stop offset="1" stop-color="#6EDFE8"/>
</linearGradient>
<linearGradient id="paint4_linear_1_2334" x1="28.5826" y1="6.62598" x2="28.5826" y2="14.9671" gradientUnits="userSpaceOnUse">
<stop stop-color="#4B77FE"/>
<stop offset="1" stop-color="#6EDFE8"/>
</linearGradient>
<linearGradient id="paint5_linear_1_2334" x1="16.1025" y1="10.2164" x2="16.1025" y2="49.6003" gradientUnits="userSpaceOnUse">
<stop stop-color="#4B77FE"/>
<stop offset="1" stop-color="#6EDFE8"/>
</linearGradient>
<linearGradient id="paint6_linear_1_2334" x1="21.4932" y1="18.9988" x2="21.4932" y2="22.566" gradientUnits="userSpaceOnUse">
<stop stop-color="#4B77FE"/>
<stop offset="1" stop-color="#6EDFE8"/>
</linearGradient>
<linearGradient id="paint7_linear_1_2334" x1="21.4938" y1="12.4413" x2="21.4938" y2="20.7824" gradientUnits="userSpaceOnUse">
<stop stop-color="#4B77FE"/>
<stop offset="1" stop-color="#6EDFE8"/>
</linearGradient>
<linearGradient id="paint8_linear_1_2334" x1="20.4622" y1="18.9988" x2="20.4622" y2="22.566" gradientUnits="userSpaceOnUse">
<stop stop-color="#4B77FE"/>
<stop offset="1" stop-color="#6EDFE8"/>
</linearGradient>
<linearGradient id="paint9_linear_1_2334" x1="20.4618" y1="12.4413" x2="20.4618" y2="20.7824" gradientUnits="userSpaceOnUse">
<stop stop-color="#4B77FE"/>
<stop offset="1" stop-color="#6EDFE8"/>
</linearGradient>
<linearGradient id="paint10_linear_1_2334" x1="16.1027" y1="27.9132" x2="16.1027" y2="28.9132" gradientUnits="userSpaceOnUse">
<stop stop-color="#4B77FE"/>
<stop offset="1" stop-color="#6EDFE8"/>
</linearGradient>
<linearGradient id="paint11_linear_1_2334" x1="16.1027" y1="31.0624" x2="16.1027" y2="32.0624" gradientUnits="userSpaceOnUse">
<stop stop-color="#4B77FE"/>
<stop offset="1" stop-color="#6EDFE8"/>
</linearGradient>
<linearGradient id="paint12_linear_1_2334" x1="16.1027" y1="34.5819" x2="16.1027" y2="35.5819" gradientUnits="userSpaceOnUse">
<stop stop-color="#4B77FE"/>
<stop offset="1" stop-color="#6EDFE8"/>
</linearGradient>
<linearGradient id="paint13_linear_1_2334" x1="16.1027" y1="38.1014" x2="16.1027" y2="39.1014" gradientUnits="userSpaceOnUse">
<stop stop-color="#4B77FE"/>
<stop offset="1" stop-color="#6EDFE8"/>
</linearGradient>
</defs>
</svg>
