<svg width="25" height="30" viewBox="0 0 25 30" fill="none" xmlns="http://www.w3.org/2000/svg">
<path d="M3.49044 9.67064C3.47568 12.4857 3.48257 15.3012 3.49044 18.1187V18.1188C3.49365 19.3273 3.1648 20.4291 2.48585 21.4227C1.97011 22.1775 1.45888 22.9354 0.946584 23.6948C0.934405 23.7128 0.922226 23.7309 0.910047 23.749H23.9693C23.926 23.6845 23.8827 23.6201 23.8396 23.5559C23.3615 22.8446 22.8935 22.1484 22.4171 21.4564M3.49044 9.67064C3.5129 5.50788 6.19421 1.9384 10.0807 0.832877L10.0807 0.832865C15.3635 -0.670334 20.7672 3.09639 21.3313 8.73856L21.3314 8.73887C21.3698 9.12137 21.387 9.51009 21.3879 9.89964C21.3928 12.6282 21.3978 15.3562 21.3879 18.0829M3.49044 9.67064L2.99044 9.66802L3.49044 9.67064ZM21.3879 18.0829C21.3879 18.0828 21.3879 18.0827 21.3879 18.0826L21.8879 18.0847L21.3879 18.0829ZM21.3879 18.0829C21.3826 19.3192 21.7176 20.4411 22.4171 21.4564M22.4171 21.4564L22.8269 21.1743L22.4172 21.4566C22.4172 21.4565 22.4172 21.4565 22.4171 21.4564Z" fill="#F3F3F3" stroke="#1C2C65"/>
<path d="M9.89134 27.1954C10.061 27.4748 10.3016 27.7403 10.5971 27.968C11.0958 28.3521 11.7095 28.5953 12.2999 28.618L9.89134 27.1954ZM9.89134 27.1954H9.8979H9.91035H9.9228H9.93526H9.94771H9.96016H9.97262H9.98507H9.99752H10.01H10.0224H10.0349H10.0473H10.0598H10.0722H10.0847H10.0971H10.1096H10.1221H10.1345H10.147H10.1594H10.1719H10.1843H10.1968H10.2092H10.2217H10.2341H10.2466H10.259H10.2715H10.284H10.2964H10.3089H10.3213H10.3338H10.3462H10.3587H10.3711H10.3836H10.3961H10.4085H10.421H10.4334H10.4459H10.4583H10.4708H10.4832H10.4957H10.5082H10.5206H10.5331H10.5455H10.558H10.5704H10.5829H10.5954H10.6078H10.6203H10.6327H10.6452H10.6576H10.6701H10.6826H10.695H10.7075H10.7199H10.7324H10.7448H10.7573H10.7698H10.7822H10.7947H10.8071H10.8196H10.8321H10.8445H10.857H10.8694H10.8819H10.8944H10.9068H10.9193H10.9317H10.9442H10.9567H10.9691H10.9816H10.994H11.0065H11.019H11.0314H11.0439H11.0564H11.0688H11.0813H11.0937H11.1062H11.1187H11.1311H11.1436H11.1561H11.1685H11.181H11.1934H11.2059H11.2184H11.2308H11.2433H11.2558H11.2682H11.2807H11.2932H11.3056H11.3181H11.3306H11.343H11.3555H11.368H11.3804H11.3929H11.4054H11.4178H11.4303H11.4428H11.4552H11.4677H11.4802H11.4926H11.5051H11.5176H11.5301H11.5425H11.555H11.5675H11.5799H11.5924H11.6049H11.6173H11.6298H11.6423H11.6548H11.6672H11.6797H11.6922H11.7046H11.7171H11.7296H11.7421H11.7545H11.767H11.7795H11.792H11.8044H11.8169H11.8294H11.8419H11.8543H11.8668H11.8793H11.8918H11.9042H11.9167H11.9292H11.9417H11.9541H11.9666H11.9791H11.9916H12.0041H12.0165H12.029H12.0415H12.054H12.0665H12.0789H12.0914H12.1039H12.1164H12.1289H12.1413H12.1538H12.1663H12.1788H12.1913H12.2038H12.2162H12.2287H12.2412H12.2537H12.2662H12.2787H12.2911H12.3036H12.3161H12.3286H12.3411H12.3536H12.3661H12.3786H12.391H12.4035H12.416H12.4285H12.441H12.4535H12.466H12.4785H12.491H12.5034H12.5159H12.5284H12.5409H12.5534H12.5659H12.5784H12.5909H12.6034H12.6159H12.6284H12.6409H12.6534H12.6658H12.6783H12.6908H12.7033H12.7158H12.7283H12.7408H12.7533H12.7658H12.7783H12.7908H12.8033H12.8158H12.8283H12.8408H12.8533H12.8658H12.8783H12.8908H12.9033H12.9158H12.9283H12.9408H12.9533H12.9658H12.9783H12.9908H13.0033H13.0158H13.0284H13.0409H13.0534H13.0659H13.0784H13.0909H13.1034H13.1159H13.1284H13.1409H13.1534H13.1659H13.1784H13.191H13.2035H13.216H13.2285H13.241H13.2535H13.266H13.2785H13.2911H13.3036H13.3161H13.3286H13.3411H13.3536H13.3661H13.3787H13.3912H13.4037H13.4162H13.4287H13.4412H13.4538H13.4663H13.4788H13.4913H13.5038H13.5164H13.5289H13.5414H13.5539H13.5665H13.579H13.5915H13.604H13.6166H13.6291H13.6416H13.6541H13.6667H13.6792H13.6917H13.7042H13.7168H13.7293H13.7418H13.7544H13.7669H13.7794H13.7919H13.8045H13.817H13.8295H13.8421H13.8546H13.8671H13.8797H13.8922H13.9047H13.9173H13.9298H13.9424H13.9549H13.9674H13.98H13.9925H14.005H14.0176H14.0301H14.0427H14.0552H14.0677H14.0803H14.0928H14.1054H14.1179H14.1305H14.143H14.1556H14.1681H14.1806H14.1932H14.2057H14.2183H14.2308H14.2434H14.2559H14.2685H14.281H14.2936H14.3061H14.3187H14.3312H14.3438H14.3563H14.3689H14.3815H14.394H14.4066H14.4191H14.4317H14.4442H14.4568H14.4693H14.4819H14.4945H14.507H14.5196H14.5321H14.5447H14.5573H14.5698H14.5824H14.595H14.6075H14.6201H14.6326H14.6452H14.6578H14.6703H14.6829H14.6955H14.7081H14.7206H14.7332H14.7458H14.7583H14.7709H14.7835H14.796H14.8086H14.8212H14.8338H14.8463H14.8589H14.8715H14.8841H14.8966H14.9092H14.9218H14.9344H14.947H14.9595H14.9721H14.9725C14.4258 28.0853 13.3899 28.6599 12.3 28.618L9.89134 27.1954Z" fill="#F3F3F3" stroke="#1C2C65"/>
</svg>
