<svg width="36" height="32" viewBox="0 0 36 32" fill="none" xmlns="http://www.w3.org/2000/svg">
<path d="M35.9372 18.4063C35.9423 18.3542 35.9597 18.303 35.977 18.2517C35.9851 18.2279 35.9932 18.204 36 18.1801V16.3872C35.9596 16.1735 35.9241 15.9585 35.8887 15.7435C35.8124 15.2806 35.7361 14.8177 35.61 14.3682L35.9372 18.4063ZM35.9372 18.4063C35.7666 20.1614 35.2416 21.8146 34.2609 23.2856C33.8503 23.9017 33.8138 24.4009 34.0547 25.0748L35.9372 18.4063ZM0.0609375 12.0227C0.0545975 12.0899 0.0383961 12.1562 0.0221918 12.2225C0.0144347 12.2543 0.00667698 12.286 0 12.3179V14.0418C0.0341266 14.2295 0.0661119 14.4177 0.0981028 14.606C0.169814 15.0279 0.241553 15.45 0.3375 15.8677C0.657188 17.2487 1.24781 18.5184 2.06156 19.6852C2.20312 19.8875 2.21906 20.052 2.14313 20.2828C1.49719 22.2357 0.864375 24.1931 0.231562 26.1506L0.0609375 12.0227ZM0.0609375 12.0227C0.208125 10.4468 0.677813 8.96748 1.45031 7.58099L0.0609375 12.0227ZM0.532388 15.8228C0.845807 17.1766 1.42509 18.423 2.22561 19.5708C2.3092 19.6903 2.36492 19.8121 2.38229 19.9479C2.39954 20.0827 2.37662 20.2131 2.3331 20.3453L2.33301 20.3456C1.68732 22.2977 1.05471 24.2545 0.421865 26.2121L0.421794 26.2123C0.322027 26.5197 0.341507 26.7932 0.439707 26.994C0.535824 27.1905 0.715442 27.3356 0.980679 27.3824L0.981104 27.3825C1.20186 27.4219 1.49699 27.3641 1.72466 27.2533L1.72469 27.2533C3.62094 26.3308 5.50712 25.388 7.3881 24.4358C7.55449 24.3514 7.71809 24.2952 7.89375 24.2835C8.0705 24.2718 8.24442 24.3062 8.43041 24.3808L8.43058 24.3808C9.49866 24.8105 10.6164 25.0853 11.768 25.2351C11.9524 25.2588 12.1451 25.3609 12.2713 25.4846C14.4522 27.6235 17.0829 28.8888 20.1217 29.338C22.6874 29.7173 25.1901 29.4416 27.6061 28.5L27.6063 28.4999C27.7661 28.4378 27.9208 28.4037 28.0814 28.4102C28.2423 28.4167 28.3951 28.4633 28.552 28.5429C30.4536 29.5061 32.3603 30.459 34.2772 31.3916L34.2775 31.3918C34.5031 31.502 34.7983 31.5585 35.0209 31.5189L35.021 31.5189C35.2784 31.4732 35.4581 31.3289 35.5563 31.1335C35.6562 30.9347 35.6784 30.6681 35.5846 30.3769L35.775 30.3155L35.5846 30.3769C35.447 29.9493 35.311 29.5218 35.1752 29.0946C34.754 27.7697 34.3339 26.4484 33.8664 25.1422L33.8664 25.1422C33.7397 24.7877 33.68 24.463 33.7146 24.1374C33.7492 23.8109 33.8766 23.5017 34.0945 23.1747C35.0543 21.7349 35.5702 20.1143 35.7381 18.3869L35.7381 18.3867C35.744 18.3271 35.7595 18.2733 35.7729 18.2317C35.7796 18.2108 35.785 18.1949 35.7898 18.1808C35.7935 18.17 35.7968 18.1604 35.8 18.1504V16.4059M0.532388 15.8228L35.8035 16.4244C35.8023 16.4182 35.8012 16.4121 35.8 16.4059M0.532388 15.8228C0.437774 15.4109 0.36765 14.9982 0.296447 14.5792C0.265224 14.3954 0.233794 14.2104 0.2 14.0238V14.0216V14.0182V14.0148V14.0115V14.0081V14.0047V14.0014V13.998V13.9946V13.9913V13.9879V13.9845V13.9812V13.9778V13.9744V13.9711V13.9677V13.9643V13.961V13.9576V13.9542V13.9509V13.9475V13.9441V13.9408V13.9374V13.934V13.9307V13.9273V13.9239V13.9206V13.9172V13.9138V13.9105V13.9071V13.9037V13.9004V13.897V13.8936V13.8903V13.8869V13.8835V13.8802V13.8768V13.8734V13.8701V13.8667V13.8633V13.86V13.8566V13.8532V13.8499V13.8465V13.8431V13.8397V13.8364V13.833V13.8296V13.8263V13.8229V13.8195V13.8162V13.8128V13.8094V13.8061V13.8027V13.7993V13.796V13.7926V13.7892V13.7859V13.7825V13.7791V13.7758V13.7724V13.769V13.7657V13.7623V13.7589V13.7556V13.7522V13.7488V13.7455V13.7421V13.7387V13.7354V13.732V13.7286V13.7253V13.7219V13.7185V13.7152V13.7118V13.7084V13.7051V13.7017V13.6983V13.695V13.6916V13.6882V13.6849V13.6815V13.6781V13.6748V13.6714V13.668V13.6647V13.6613V13.6579V13.6546V13.6512V13.6478V13.6445V13.6411V13.6377V13.6344V13.631V13.6276V13.6243V13.6209V13.6175V13.6142V13.6108V13.6074V13.6041V13.6007V13.5973V13.594V13.5906V13.5872V13.5839V13.5805V13.5771V13.5738V13.5704V13.567V13.5637V13.5603V13.5569V13.5536V13.5502V13.5468V13.5435V13.5401V13.5367V13.5333V13.53V13.5266V13.5232V13.5199V13.5165V13.5131V13.5098V13.5064V13.503V13.4997V13.4963V13.4929V13.4896V13.4862V13.4828V13.4795V13.4761V13.4727V13.4694V13.466V13.4626V13.4593V13.4559V13.4525V13.4492V13.4458V13.4424V13.4391V13.4357V13.4323V13.429V13.4256V13.4222V13.4189V13.4155V13.4121V13.4088V13.4054V13.402V13.3987V13.3953V13.3919V13.3886V13.3852V13.3818V13.3785V13.3751V13.3717V13.3684V13.365V13.3616V13.3583V13.3549V13.3515V13.3482V13.3448V13.3414V13.3381V13.3347V13.3313V13.328V13.3246V13.3212V13.3179V13.3145V13.3111V13.3078V13.3044V13.301V13.2977V13.2943V13.2909V13.2876V13.2842V13.2808V13.2775V13.2741V13.2707V13.2674V13.264V13.2606V13.2573V13.2539V13.2505V13.2472V13.2438V13.2404V13.2371V13.2337V13.2303V13.227V13.2236V13.2202V13.2169V13.2135V13.2101V13.2067V13.2034V13.2V13.1966V13.1933V13.1899V13.1865V13.1832V13.1798V13.1764V13.1731V13.1697V13.1663V13.163V13.1596V13.1562V13.1529V13.1495V13.1461V13.1428V13.1394V13.136V13.1327V13.1293V13.1259V13.1226V13.1192V13.1158V13.1125V13.1091V13.1057V13.1024V13.099V13.0956V13.0923V13.0889V13.0855V13.0822V13.0788V13.0754V13.0721V13.0687V13.0653V13.062V13.0586V13.0552V13.0519V13.0485V13.0451V13.0418V13.0384V13.035V13.0317V13.0283V13.0249V13.0216V13.0182V13.0148V13.0115V13.0081V13.0047V13.0014V12.998V12.9946V12.9913V12.9879V12.9845V12.9812V12.9778V12.9744V12.9711V12.9677V12.9643V12.961V12.9576V12.9542V12.9509V12.9475V12.9441V12.9408V12.9374V12.934V12.9307V12.9273V12.9239V12.9206V12.9172V12.9138V12.9105V12.9071V12.9037V12.9003V12.897V12.8936V12.8902V12.8869V12.8835V12.8801V12.8768V12.8734V12.87V12.8667V12.8633V12.8599V12.8566V12.8532V12.8498V12.8465V12.8431V12.8397V12.8364V12.833V12.8296V12.8263V12.8229V12.8195V12.8162V12.8128V12.8094V12.8061V12.8027V12.7993V12.796V12.7926V12.7892V12.7859V12.7825V12.7791V12.7758V12.7724V12.769V12.7657V12.7623V12.7589V12.7556V12.7522V12.7488V12.7455V12.7421V12.7387V12.7354V12.732V12.7286V12.7253V12.7219V12.7185V12.7152V12.7118V12.7084V12.7051V12.7017V12.6983V12.695V12.6916V12.6882V12.6849V12.6815V12.6781V12.6748V12.6714V12.668V12.6647V12.6613V12.6579V12.6546V12.6512V12.6478V12.6445V12.6411V12.6377V12.6344V12.631V12.6276V12.6243V12.6209V12.6175V12.6142V12.6108V12.6074V12.6041V12.6007V12.5973V12.594V12.5906V12.5872V12.5838V12.5805V12.5771V12.5737V12.5704V12.567V12.5636V12.5603V12.5569V12.5535V12.5502V12.5468V12.5434V12.5401V12.5367V12.5333V12.53V12.5266V12.5232V12.5199V12.5165V12.5131V12.5098V12.5064V12.503V12.4997V12.4963V12.4929V12.4896V12.4862V12.4828V12.4795V12.4761V12.4727V12.4694V12.466V12.4626V12.4593V12.4559V12.4525V12.4492V12.4458V12.4424V12.4391V12.4357V12.4323V12.429V12.4256V12.4222V12.4189V12.4155V12.4121V12.4088V12.4054V12.402V12.3987V12.3953V12.3919V12.3886V12.3852V12.3818V12.3785V12.3751V12.3717V12.3684V12.365V12.3616V12.3583V12.3549V12.3515V12.3482V12.3448V12.3414V12.3396C0.203461 12.3245 0.207614 12.3074 0.212114 12.2889C0.229587 12.2171 0.252292 12.1237 0.260052 12.0415L0.260071 12.0413C0.404587 10.494 0.865577 9.0414 1.62502 7.67833C4.38612 2.72757 10.3023 0.233009 15.9304 1.1018L15.9609 0.904239L15.9304 1.1018C18.9531 1.56834 21.5683 2.83199 23.7411 4.95653C23.8733 5.08601 24.0723 5.17322 24.2473 5.19658L24.2475 5.1966C25.7371 5.39375 27.1653 5.78658 28.5053 6.4387C31.9815 8.13194 34.3802 10.7185 35.4174 14.4221L35.4174 14.4222C35.5406 14.8611 35.6138 15.3056 35.689 15.7625C35.7238 15.9741 35.7591 16.1883 35.8 16.4059M0.532388 15.8228L35.8 16.4059M33.0607 28.6613L33.2024 28.6228C33.1878 28.5691 33.1749 28.5201 33.1629 28.4744C33.1378 28.3788 33.1166 28.2982 33.0918 28.222L33.0607 28.6613ZM33.0607 28.6613L33.0103 28.8753H33.0094H32.8565L32.8398 28.8138C32.4528 28.6209 32.0702 28.4316 31.6911 28.244C30.7023 27.7545 29.7379 27.2772 28.7838 26.7823L28.7838 26.7823C28.5504 26.6611 28.3403 26.6073 28.1326 26.6044C27.9234 26.6016 27.7042 26.6503 27.4526 26.7517C23.0662 28.5206 18.8298 28.212 14.9334 25.4954C11.9808 23.4371 10.4011 20.5527 10.5045 16.9341C10.584 14.1276 11.8116 11.8042 13.8697 9.90629C18.9968 5.17812 27.7103 5.8323 31.9733 11.2704C34.7544 14.8179 34.8028 19.5809 32.0687 23.166L31.914 23.0481L32.0687 23.1661C31.9024 23.384 31.8116 23.5835 31.7793 23.7827C31.7471 23.9819 31.7706 24.1973 31.8587 24.4512C32.1769 25.3679 32.4732 26.2934 32.7686 27.2161C32.8761 27.5519 32.9835 27.8873 33.0918 28.2218L33.0607 28.6613ZM21.1724 5.01665L20.7387 5.10427C20.4912 5.15426 20.2496 5.19841 20.0125 5.24174C19.5144 5.33273 19.0361 5.42014 18.5642 5.55059C14.3562 6.7148 11.227 9.1274 9.58833 13.1473C8.30399 16.2985 8.52101 19.4322 10.0589 22.4849L10.0591 22.4854C10.1111 22.5892 10.1622 22.6931 10.2123 22.7969L10.216 22.8045L10.219 22.8124C10.2355 22.8556 10.2335 22.8932 10.2317 22.911C10.2302 22.9264 10.2271 22.9409 10.2261 22.9454C10.2256 22.948 10.225 22.9507 10.2245 22.9535C10.2218 22.9659 10.2185 22.9815 10.2141 23.0065L10.1715 23.2438L9.94616 23.1582C9.80995 23.1064 9.66996 23.0563 9.5285 23.0057C9.19455 22.8862 8.85244 22.7637 8.53267 22.6099L8.53264 22.6099C8.30131 22.4985 8.09209 22.4481 7.88931 22.4507C7.6866 22.4533 7.47738 22.5092 7.24625 22.6292C6.28252 23.1303 5.30746 23.6132 4.31589 24.1042C3.91362 24.3034 3.50862 24.504 3.10057 24.7076L2.73597 24.8896L2.81505 24.4899C2.82319 24.4488 2.829 24.4144 2.83476 24.3804C2.83725 24.3656 2.83973 24.351 2.84239 24.3359C2.85067 24.2887 2.86049 24.2381 2.87698 24.1865L2.87713 24.1861C2.94926 23.962 3.02134 23.7379 3.09343 23.5138C3.45398 22.3927 3.81484 21.2707 4.18546 20.1519M21.1724 5.01665L4.37531 20.2148M21.1724 5.01665L20.82 4.74897C20.804 4.73676 20.7873 4.7236 20.7706 4.71038C20.7358 4.68291 20.7007 4.65518 20.6698 4.6351M21.1724 5.01665L20.6698 4.6351M4.18546 20.1519L4.37531 20.2148M4.18546 20.1519C4.18542 20.152 4.18539 20.1521 4.18535 20.1522L4.37531 20.2148M4.18546 20.1519C4.25027 19.9549 4.26514 19.7831 4.23777 19.6249C4.21039 19.4667 4.13846 19.3091 4.01022 19.1441L4.16813 19.0214M4.37531 20.2148C4.52156 19.7707 4.45687 19.3928 4.16813 19.0214M4.16813 19.0214L4.01022 19.1441C0.654298 14.8269 1.36266 8.93352 5.75874 5.3698L5.75875 5.36979C8.38005 3.24495 11.4308 2.39753 14.7986 2.6539C16.7895 2.80524 18.6364 3.40256 20.3389 4.42509L20.3393 4.42531C20.4523 4.49353 20.5627 4.56513 20.6698 4.6351M4.16813 19.0214L20.6698 4.6351M3.01125 24.5287L2.92193 24.3498C2.9672 24.3272 3.01242 24.3046 3.05758 24.2821C3.04767 24.321 3.04063 24.3625 3.03242 24.4111C3.02649 24.4461 3.01994 24.4848 3.01125 24.5287ZM3.01125 24.5287L3.20745 24.5675C3.21672 24.5207 3.22403 24.4775 3.23008 24.4417C3.23152 24.4332 3.23288 24.4252 3.23419 24.4176C3.15999 24.4545 3.08568 24.4916 3.01125 24.5287Z" fill="#1C2C65" stroke="#F2F3F7" stroke-width="0.4"/>
<path d="M17.9944 16.4502L17.9944 16.4502C17.5308 16.4524 17.1477 16.8348 17.1462 17.2806C17.1447 17.7263 17.5254 18.1109 17.9891 18.1162L17.9894 18.1162C18.4637 18.1221 18.8595 17.7274 18.8528 17.2719L17.9944 16.4502ZM17.9944 16.4502C18.4574 16.4479 18.8461 16.827 18.8528 17.2719L17.9944 16.4502Z" fill="#1C2C65" stroke="#F2F3F7" stroke-width="0.4"/>
<path d="M27.2885 17.3194L27.2884 17.2822C27.2877 16.8378 26.904 16.4542 26.4399 16.4512C25.9761 16.4482 25.5888 16.8253 25.5828 17.2716L27.2885 17.3194ZM27.2885 17.3194C27.2681 17.7479 26.8943 18.112 26.4446 18.1171L27.2885 17.3194ZM26.4446 18.1171C25.9706 18.1223 25.5768 17.7289 25.5828 17.2717L26.4446 18.1171Z" fill="#1C2C65" stroke="#F2F3F7" stroke-width="0.4"/>
<path d="M22.211 16.4502L22.211 16.4502C21.7462 16.454 21.365 16.8363 21.365 17.2827C21.365 17.7295 21.7465 18.1126 22.2103 18.1171C22.6845 18.1216 23.079 17.7254 23.0716 17.2705L22.211 16.4502ZM22.211 16.4502C22.6738 16.4465 23.0641 16.8247 23.0716 17.2704L22.211 16.4502Z" fill="#1C2C65" stroke="#F2F3F7" stroke-width="0.4"/>
</svg>
