<svg width="47" height="38" viewBox="0 0 47 38" fill="none" xmlns="http://www.w3.org/2000/svg">
<path d="M25.6791 29.5213C33.7188 13.1666 25.7394 2.17274 25.7394 2.17274L20.2116 1.4833C17.5475 1.15052 14.8407 1.35775 12.2646 2.09172C9.68844 2.82568 7.29984 4.0702 5.25182 5.74551L1.00157 9.22177C1.00157 9.22177 0.518994 22.6292 16.4897 32.1384C17.259 32.5965 18.12 32.8931 19.0163 33.0088C19.9127 33.1244 20.8242 33.0565 21.6915 32.8096C22.5588 32.5626 23.3622 32.142 24.0493 31.5754C24.7365 31.0088 25.2918 30.3089 25.6791 29.5213Z" fill="url(#paint0_linear_79_2403)" stroke="url(#paint1_linear_79_2403)" stroke-width="0.7" stroke-miterlimit="10"/>
<path d="M26.8337 29.191C34.8745 12.8375 26.894 1.84364 26.894 1.84364L21.3673 1.1542C18.7033 0.821415 15.9964 1.02865 13.4203 1.76261C10.8442 2.49658 8.4556 3.7411 6.40758 5.41641L2.15733 8.89267C2.15733 8.89267 1.67476 22.3001 17.6455 31.8093C18.4149 32.267 19.2758 32.5632 20.172 32.6786C21.0682 32.794 21.9796 32.7259 22.8467 32.4788C23.7138 32.2317 24.517 31.8112 25.204 31.2447C25.891 30.6782 26.4463 29.9784 26.8337 29.191Z" fill="white" stroke="url(#paint2_linear_79_2403)" stroke-width="0.7" stroke-miterlimit="10"/>
<path d="M27.1331 13.1688C26.8391 12.2404 26.1765 11.4614 25.2895 11.0014C24.4025 10.5415 23.3629 10.4378 22.3969 10.713C21.431 10.9882 20.6169 11.62 20.132 12.4708C19.647 13.3216 19.5304 14.3225 19.8076 15.2558" fill="white"/>
<path d="M27.1331 13.1688C26.8391 12.2404 26.1765 11.4614 25.2895 11.0014C24.4025 10.5415 23.3629 10.4378 22.3969 10.713C21.431 10.9882 20.6169 11.62 20.132 12.4708C19.647 13.3216 19.5304 14.3225 19.8076 15.2558" stroke="url(#paint3_linear_79_2403)" stroke-width="0.7" stroke-miterlimit="10"/>
<path d="M15.6803 16.4323C15.5377 15.9688 15.3017 15.5369 14.9859 15.1612C14.6701 14.7855 14.2806 14.4735 13.8397 14.2429C13.3988 14.0123 12.915 13.8676 12.4161 13.8172C11.9171 13.7668 11.4127 13.8115 10.9318 13.9489C10.4508 14.0864 10.0026 14.3137 9.61274 14.6181C9.22292 14.9224 8.89912 15.2977 8.65983 15.7227C8.42054 16.1476 8.27044 16.6138 8.21811 17.0946C8.16577 17.5755 8.21223 18.0615 8.35481 18.5251" fill="white"/>
<path d="M15.6803 16.4323C15.5377 15.9688 15.3017 15.5369 14.9859 15.1612C14.6701 14.7855 14.2806 14.4735 13.8397 14.2429C13.3988 14.0123 12.915 13.8676 12.4161 13.8172C11.9171 13.7668 11.4127 13.8115 10.9318 13.9489C10.4508 14.0864 10.0026 14.3137 9.61274 14.6181C9.22292 14.9224 8.89912 15.2977 8.65983 15.7227C8.42054 16.1476 8.27044 16.6138 8.21811 17.0946C8.16577 17.5755 8.21223 18.0615 8.35481 18.5251" stroke="url(#paint4_linear_79_2403)" stroke-width="0.7" stroke-miterlimit="10"/>
<path d="M13.925 23.693C14.341 25.0467 15.2979 26.1856 16.5853 26.8594C17.2227 27.193 17.9221 27.4023 18.6435 27.4754C19.3649 27.5485 20.0941 27.484 20.7896 27.2855C21.4852 27.0871 22.1333 26.7585 22.697 26.3186C23.2608 25.8788 23.7291 25.3362 24.0753 24.7219C24.4214 24.1076 24.6387 23.4336 24.7145 22.7384C24.7904 22.0432 24.7235 21.3404 24.5175 20.6702L13.925 23.693Z" fill="white" stroke="url(#paint5_linear_79_2403)" stroke-width="0.7" stroke-miterlimit="10"/>
<path d="M27.7315 34.9345C15.2088 21.448 19.6255 8.72646 19.6255 8.72646L24.7239 6.56047C27.1802 5.51428 29.8361 4.97388 32.5217 4.97388C35.2072 4.97388 37.8631 5.51428 40.3194 6.56047L45.419 8.73343C45.419 8.73343 49.8321 21.4561 37.3106 34.9415C36.707 35.5898 35.9683 36.1083 35.1427 36.463C34.3172 36.8177 33.4233 37.0007 32.5194 37C31.6156 36.9994 30.722 36.8151 29.897 36.4592C29.072 36.1032 28.3341 35.5837 27.7315 34.9345Z" fill="url(#paint6_linear_79_2403)" stroke="url(#paint7_linear_79_2403)" stroke-width="0.7" stroke-miterlimit="10"/>
<path d="M26.5261 34.9344C14.0021 21.4479 18.4201 8.72639 18.4201 8.72639L23.5172 6.56041C25.9738 5.51425 28.6299 4.97388 31.3156 4.97388C34.0013 4.97388 36.6574 5.51425 39.114 6.56041L44.2124 8.73336C44.2124 8.73336 48.6267 21.456 36.1039 34.9414C35.5004 35.5897 34.7619 36.1082 33.9364 36.4629C33.111 36.8175 32.2172 37.0005 31.3134 36.9999C30.4096 36.9992 29.5161 36.8149 28.6912 36.459C27.8663 36.1031 27.1286 35.5836 26.5261 34.9344Z" fill="white" stroke="url(#paint8_linear_79_2403)" stroke-width="0.7" stroke-miterlimit="10"/>
<path d="M21.5254 19.6516C21.5254 18.6754 21.9278 17.7391 22.6441 17.0488C23.3604 16.3585 24.3319 15.9707 25.345 15.9707C26.358 15.9707 27.3295 16.3585 28.0458 17.0488C28.7621 17.7391 29.1645 18.6754 29.1645 19.6516" fill="white"/>
<path d="M21.5254 19.6516C21.5254 18.6754 21.9278 17.7391 22.6441 17.0488C23.3604 16.3585 24.3319 15.9707 25.345 15.9707C26.358 15.9707 27.3295 16.3585 28.0458 17.0488C28.7621 17.7391 29.1645 18.6754 29.1645 19.6516" stroke="url(#paint9_linear_79_2403)" stroke-width="0.7" stroke-miterlimit="10"/>
<path d="M33.469 19.6516C33.469 18.6754 33.8714 17.7391 34.5877 17.0488C35.304 16.3585 36.2755 15.9707 37.2886 15.9707C38.3016 15.9707 39.2731 16.3585 39.9894 17.0488C40.7057 17.7391 41.1081 18.6754 41.1081 19.6516" fill="white"/>
<path d="M33.469 19.6516C33.469 18.6754 33.8714 17.7391 34.5877 17.0488C35.304 16.3585 36.2755 15.9707 37.2886 15.9707C38.3016 15.9707 39.2731 16.3585 39.9894 17.0488C40.7057 17.7391 41.1081 18.6754 41.1081 19.6516" stroke="url(#paint10_linear_79_2403)" stroke-width="0.7" stroke-miterlimit="10"/>
<path d="M37.2875 26.1345C37.2875 26.8335 37.1447 27.5256 36.8671 28.1714C36.5896 28.8171 36.1827 29.4039 35.6699 29.8981C35.157 30.3924 34.5482 30.7844 33.8781 31.0519C33.208 31.3194 32.4898 31.4571 31.7645 31.4571C31.0392 31.4571 30.321 31.3194 29.6509 31.0519C28.9808 30.7844 28.372 30.3924 27.8591 29.8981C27.3463 29.4039 26.9394 28.8171 26.6619 28.1714C26.3843 27.5256 26.2415 26.8335 26.2415 26.1345H37.2875Z" fill="white" stroke="url(#paint11_linear_79_2403)" stroke-width="0.7" stroke-miterlimit="10"/>
<defs>
<linearGradient id="paint0_linear_79_2403" x1="15.134" y1="1.3291" x2="15.134" y2="33.0636" gradientUnits="userSpaceOnUse">
<stop stop-color="#4A75FE"/>
<stop offset="1" stop-color="#6FDFE6"/>
</linearGradient>
<linearGradient id="paint1_linear_79_2403" x1="15.134" y1="1.3291" x2="15.134" y2="33.0636" gradientUnits="userSpaceOnUse">
<stop stop-color="#4A73FE"/>
<stop offset="1" stop-color="#6DDEE8"/>
</linearGradient>
<linearGradient id="paint2_linear_79_2403" x1="16.2894" y1="1" x2="16.2894" y2="32.7332" gradientUnits="userSpaceOnUse">
<stop stop-color="#4A75FE"/>
<stop offset="1" stop-color="#6FDFE6"/>
</linearGradient>
<linearGradient id="paint3_linear_79_2403" x1="23.3966" y1="10.562" x2="23.3966" y2="15.2558" gradientUnits="userSpaceOnUse">
<stop stop-color="#4A75FE"/>
<stop offset="1" stop-color="#6FDFE6"/>
</linearGradient>
<linearGradient id="paint4_linear_79_2403" x1="11.9388" y1="13.7971" x2="11.9388" y2="18.5251" gradientUnits="userSpaceOnUse">
<stop stop-color="#4A75FE"/>
<stop offset="1" stop-color="#6FDFE6"/>
</linearGradient>
<linearGradient id="paint5_linear_79_2403" x1="19.3349" y1="20.6702" x2="19.3349" y2="27.5046" gradientUnits="userSpaceOnUse">
<stop stop-color="#4A75FE"/>
<stop offset="1" stop-color="#6FDFE6"/>
</linearGradient>
<linearGradient id="paint6_linear_79_2403" x1="32.5216" y1="4.97388" x2="32.5216" y2="37" gradientUnits="userSpaceOnUse">
<stop stop-color="#4A75FE"/>
<stop offset="1" stop-color="#6FDFE6"/>
</linearGradient>
<linearGradient id="paint7_linear_79_2403" x1="32.5216" y1="4.97388" x2="32.5216" y2="37" gradientUnits="userSpaceOnUse">
<stop stop-color="#4A73FE"/>
<stop offset="1" stop-color="#6DDEE8"/>
</linearGradient>
<linearGradient id="paint8_linear_79_2403" x1="31.3156" y1="4.97388" x2="31.3156" y2="36.9999" gradientUnits="userSpaceOnUse">
<stop stop-color="#4A75FE"/>
<stop offset="1" stop-color="#6FDFE6"/>
</linearGradient>
<linearGradient id="paint9_linear_79_2403" x1="25.345" y1="15.9707" x2="25.345" y2="19.6516" gradientUnits="userSpaceOnUse">
<stop stop-color="#4A75FE"/>
<stop offset="1" stop-color="#6FDFE6"/>
</linearGradient>
<linearGradient id="paint10_linear_79_2403" x1="37.2886" y1="15.9707" x2="37.2886" y2="19.6516" gradientUnits="userSpaceOnUse">
<stop stop-color="#4A75FE"/>
<stop offset="1" stop-color="#6FDFE6"/>
</linearGradient>
<linearGradient id="paint11_linear_79_2403" x1="31.7645" y1="26.1345" x2="31.7645" y2="31.4571" gradientUnits="userSpaceOnUse">
<stop stop-color="#4A75FE"/>
<stop offset="1" stop-color="#6FDFE6"/>
</linearGradient>
</defs>
</svg>
