<svg width="50" height="41" viewBox="0 0 50 41" fill="none" xmlns="http://www.w3.org/2000/svg">
<g clip-path="url(#clip0_79_4022)">
<path d="M44.9013 26.3571L32.4671 14.3455C32.4484 14.3275 32.4235 14.3174 32.3976 14.3174H5.26318" stroke="url(#paint0_linear_79_4022)" stroke-width="0.7" stroke-miterlimit="10"/>
<path d="M16.0418 23.0875C22.0786 23.0875 26.9723 18.2535 26.9723 12.2905C26.9723 6.32751 22.0786 1.49353 16.0418 1.49353C10.0051 1.49353 5.11133 6.32751 5.11133 12.2905C5.11133 18.2535 10.0051 23.0875 16.0418 23.0875Z" fill="url(#paint1_linear_79_4022)" stroke="url(#paint2_linear_79_4022)" stroke-width="0.7" stroke-miterlimit="10"/>
<path d="M16.0418 3.06281V4.41617" stroke="url(#paint3_linear_79_4022)" stroke-width="0.7" stroke-miterlimit="10"/>
<path d="M11.3676 4.30121L12.0536 5.47232" stroke="url(#paint4_linear_79_4022)" stroke-width="0.7" stroke-miterlimit="10"/>
<path d="M7.94806 7.68274L9.13459 8.35849" stroke="url(#paint5_linear_79_4022)" stroke-width="0.7" stroke-miterlimit="10"/>
<path d="M6.70007 12.3008L8.07017 12.299" stroke="url(#paint6_linear_79_4022)" stroke-width="0.7" stroke-miterlimit="10"/>
<path d="M7.95844 16.9161L9.14402 16.2375" stroke="url(#paint7_linear_79_4022)" stroke-width="0.7" stroke-miterlimit="10"/>
<path d="M11.3867 20.2902L12.0689 19.1172" stroke="url(#paint8_linear_79_4022)" stroke-width="0.7" stroke-miterlimit="10"/>
<path d="M16.0627 21.5183L16.0598 20.1649" stroke="url(#paint9_linear_79_4022)" stroke-width="0.7" stroke-miterlimit="10"/>
<path d="M20.734 20.2696L20.0461 19.0994" stroke="url(#paint10_linear_79_4022)" stroke-width="0.7" stroke-miterlimit="10"/>
<path d="M24.1461 16.8797L22.9576 16.2067" stroke="url(#paint11_linear_79_4022)" stroke-width="0.7" stroke-miterlimit="10"/>
<path d="M25.3836 12.2588L24.0135 12.2635" stroke="url(#paint12_linear_79_4022)" stroke-width="0.7" stroke-miterlimit="10"/>
<path d="M24.1139 7.6463L22.9302 8.32766" stroke="url(#paint13_linear_79_4022)" stroke-width="0.7" stroke-miterlimit="10"/>
<path d="M20.6792 4.27972L19.9989 5.45457" stroke="url(#paint14_linear_79_4022)" stroke-width="0.7" stroke-miterlimit="10"/>
<path d="M16.0418 14.3748V5.77142" stroke="url(#paint15_linear_79_4022)" stroke-width="0.7" stroke-miterlimit="10"/>
<path d="M10.8368 9.2511L18.3222 13.6495" stroke="url(#paint16_linear_79_4022)" stroke-width="0.7" stroke-miterlimit="10"/>
<path d="M16.6785 23.4184C22.7153 23.4184 27.609 18.5844 27.609 12.6214C27.609 6.65838 22.7153 1.8244 16.6785 1.8244C10.6418 1.8244 5.74805 6.65838 5.74805 12.6214C5.74805 18.5844 10.6418 23.4184 16.6785 23.4184Z" fill="white" stroke="url(#paint17_linear_79_4022)" stroke-width="0.7" stroke-miterlimit="10"/>
<path d="M16.6786 3.39368V4.74704" stroke="url(#paint18_linear_79_4022)" stroke-width="0.7" stroke-miterlimit="10"/>
<path d="M12.0043 4.63208L12.6903 5.80319" stroke="url(#paint19_linear_79_4022)" stroke-width="0.7" stroke-miterlimit="10"/>
<path d="M8.58496 8.01361L9.77244 8.68936" stroke="url(#paint20_linear_79_4022)" stroke-width="0.7" stroke-miterlimit="10"/>
<path d="M7.33679 12.6317L8.70689 12.6307" stroke="url(#paint21_linear_79_4022)" stroke-width="0.7" stroke-miterlimit="10"/>
<path d="M8.59521 17.2479L9.7808 16.5693" stroke="url(#paint22_linear_79_4022)" stroke-width="0.7" stroke-miterlimit="10"/>
<path d="M12.0234 20.622L12.7056 19.4481" stroke="url(#paint23_linear_79_4022)" stroke-width="0.7" stroke-miterlimit="10"/>
<path d="M16.6996 21.8492L16.6967 20.4958" stroke="url(#paint24_linear_79_4022)" stroke-width="0.7" stroke-miterlimit="10"/>
<path d="M21.3709 20.6005L20.683 19.4303" stroke="url(#paint25_linear_79_4022)" stroke-width="0.7" stroke-miterlimit="10"/>
<path d="M24.7828 17.2115L23.5944 16.5385" stroke="url(#paint26_linear_79_4022)" stroke-width="0.7" stroke-miterlimit="10"/>
<path d="M26.0204 12.5897L24.6503 12.5943" stroke="url(#paint27_linear_79_4022)" stroke-width="0.7" stroke-miterlimit="10"/>
<path d="M24.7516 7.97717L23.567 8.65853" stroke="url(#paint28_linear_79_4022)" stroke-width="0.7" stroke-miterlimit="10"/>
<path d="M21.3159 4.6106L20.6356 5.78544" stroke="url(#paint29_linear_79_4022)" stroke-width="0.7" stroke-miterlimit="10"/>
<path d="M16.6786 14.7057V6.10229" stroke="url(#paint30_linear_79_4022)" stroke-width="0.7" stroke-miterlimit="10"/>
<path d="M11.4735 9.58197L18.9589 13.9804" stroke="url(#paint31_linear_79_4022)" stroke-width="0.7" stroke-miterlimit="10"/>
<path d="M26.8144 26.3784C21.705 15.7235 26.7756 8.55382 26.7756 8.55382L30.2908 8.10425C31.9844 7.88795 33.7051 8.02329 35.3427 8.50161C36.9803 8.97993 38.4988 9.79069 39.801 10.882L42.5034 13.1485C42.5034 13.1485 42.8137 21.8865 32.6553 28.0841C32.1662 28.3823 31.619 28.5752 31.0493 28.6503C30.4796 28.7254 29.9003 28.6811 29.3491 28.5201C28.798 28.3591 28.2874 28.0852 27.8506 27.7162C27.4139 27.3472 27.0608 26.8913 26.8144 26.3784Z" fill="#5433FF" stroke="url(#paint32_linear_79_4022)" stroke-width="0.7" stroke-miterlimit="10"/>
<path d="M26.6251 15.9356C26.8077 15.3256 27.2281 14.8122 27.7939 14.5083C28.074 14.3579 28.3815 14.2634 28.6986 14.2303C29.0157 14.1972 29.3363 14.2261 29.6421 14.3154C29.9479 14.4047 30.2329 14.5526 30.4808 14.7507C30.7287 14.9488 30.9347 15.1932 31.087 15.4699C31.2393 15.7467 31.335 16.0503 31.3685 16.3636C31.402 16.6768 31.3727 16.9935 31.2823 17.2955" fill="white"/>
<path d="M26.6251 15.9356C26.8077 15.3256 27.2281 14.8122 27.7939 14.5083C28.074 14.3579 28.3815 14.2634 28.6986 14.2303C29.0157 14.1972 29.3363 14.2261 29.6421 14.3154C29.9479 14.4047 30.2329 14.5526 30.4808 14.7507C30.7287 14.9488 30.9347 15.1932 31.087 15.4699C31.2393 15.7467 31.335 16.0503 31.3685 16.3636C31.402 16.6768 31.3727 16.9935 31.2823 17.2955" stroke="url(#paint33_linear_79_4022)" stroke-width="0.7" stroke-miterlimit="10"/>
<path d="M33.907 18.0629C33.9939 17.7569 34.1416 17.471 34.3413 17.2218C34.5411 16.9726 34.789 16.7651 35.0706 16.6113C35.3522 16.4576 35.662 16.3606 35.9819 16.3261C36.3017 16.2916 36.6254 16.3202 36.934 16.4103C37.2425 16.5004 37.5299 16.6502 37.7794 16.8509C38.0289 17.0516 38.2356 17.2993 38.3873 17.5796C38.5391 17.8599 38.633 18.1672 38.6635 18.4836C38.694 18.8 38.6606 19.1193 38.5651 19.4228" fill="white"/>
<path d="M33.907 18.0629C33.9939 17.7569 34.1416 17.471 34.3413 17.2218C34.5411 16.9726 34.789 16.7651 35.0706 16.6113C35.3522 16.4576 35.662 16.3606 35.9819 16.3261C36.3017 16.2916 36.6254 16.3202 36.934 16.4103C37.2425 16.5004 37.5299 16.6502 37.7794 16.8509C38.0289 17.0516 38.2356 17.2993 38.3873 17.5796C38.5391 17.8599 38.633 18.1672 38.6635 18.4836C38.694 18.8 38.6606 19.1193 38.5651 19.4228" stroke="url(#paint34_linear_79_4022)" stroke-width="0.7" stroke-miterlimit="10"/>
<path d="M35.0235 22.795C34.7448 23.6594 34.1343 24.3816 33.323 24.8067C32.5117 25.2319 31.5641 25.3262 30.6832 25.0696C29.8024 24.8129 29.0583 24.2256 28.6105 23.4336C28.1627 22.6415 28.0468 21.7077 28.2876 20.8323L35.0235 22.795Z" fill="white" stroke="url(#paint35_linear_79_4022)" stroke-width="0.7" stroke-miterlimit="10"/>
<path d="M26.0791 26.1635C20.9697 15.5085 26.0403 8.33889 26.0403 8.33889L29.5555 7.88933C31.2492 7.67286 32.97 7.80821 34.6076 8.2867C36.2453 8.7652 37.7638 9.57629 39.0657 10.668L41.7681 12.9336C41.7681 12.9336 42.0784 21.6716 31.92 27.8692C31.4309 28.1673 30.8837 28.3603 30.314 28.4354C29.7443 28.5105 29.165 28.4661 28.6138 28.3052C28.0627 28.1442 27.5521 27.8703 27.1153 27.5013C26.6786 27.1322 26.3255 26.6764 26.0791 26.1635Z" fill="white" stroke="url(#paint36_linear_79_4022)" stroke-width="0.7" stroke-miterlimit="10"/>
<path d="M25.8898 15.7207C26.0725 15.1107 26.4931 14.5973 27.0589 14.2935C27.6248 13.9898 28.2897 13.9205 28.9073 14.101C29.5248 14.2814 30.0446 14.6968 30.3521 15.2558C30.6596 15.8148 30.7297 16.4715 30.547 17.0816" fill="white"/>
<path d="M25.8898 15.7207C26.0725 15.1107 26.4931 14.5973 27.0589 14.2935C27.6248 13.9898 28.2897 13.9205 28.9073 14.101C29.5248 14.2814 30.0446 14.6968 30.3521 15.2558C30.6596 15.8148 30.7297 16.4715 30.547 17.0816" stroke="url(#paint37_linear_79_4022)" stroke-width="0.7" stroke-miterlimit="10"/>
<path d="M33.1728 17.8517C33.2632 17.5496 33.4131 17.2681 33.6137 17.0233C33.8142 16.7784 34.0617 16.5749 34.3419 16.4245C34.9078 16.1208 35.5726 16.0515 36.1902 16.232C36.496 16.3213 36.781 16.4693 37.0289 16.6674C37.2768 16.8656 37.4828 17.11 37.635 17.3868C37.7873 17.6636 37.8829 17.9672 37.9163 18.2805C37.9498 18.5938 37.9204 18.9105 37.83 19.2125" fill="white"/>
<path d="M33.1728 17.8517C33.2632 17.5496 33.4131 17.2681 33.6137 17.0233C33.8142 16.7784 34.0617 16.5749 34.3419 16.4245C34.9078 16.1208 35.5726 16.0515 36.1902 16.232C36.496 16.3213 36.781 16.4693 37.0289 16.6674C37.2768 16.8656 37.4828 17.11 37.635 17.3868C37.7873 17.6636 37.8829 17.9672 37.9163 18.2805C37.9498 18.5938 37.9204 18.9105 37.83 19.2125" stroke="url(#paint38_linear_79_4022)" stroke-width="0.7" stroke-miterlimit="10"/>
<path d="M34.2884 22.58C34.1609 23.0207 33.9463 23.432 33.657 23.7902C33.3677 24.1485 33.0094 24.4466 32.6028 24.6673C32.1962 24.888 31.7494 25.0269 31.2881 25.0761C30.8269 25.1252 30.3603 25.0836 29.9154 24.9537C29.4705 24.8237 29.0561 24.608 28.6961 24.319C28.3361 24.0299 28.0376 23.6733 27.8179 23.2697C27.5982 22.8661 27.4616 22.4234 27.416 21.9674C27.3705 21.5113 27.4168 21.0509 27.5524 20.6126L34.2884 22.58Z" fill="white" stroke="url(#paint39_linear_79_4022)" stroke-width="0.7" stroke-miterlimit="10"/>
<path d="M25.5095 29.9086C33.4727 21.1229 30.6634 12.827 30.6634 12.827L27.4218 11.4111C25.8598 10.7293 24.1709 10.3771 22.4632 10.3771C20.7555 10.3771 19.0666 10.7293 17.5047 11.4111L14.263 12.827C14.263 12.827 11.4565 21.1173 19.4188 29.9086C19.8023 30.3314 20.2717 30.6697 20.7964 30.9013C21.3212 31.1328 21.8894 31.2525 22.4642 31.2525C23.0389 31.2525 23.6071 31.1328 24.1319 30.9013C24.6566 30.6697 25.126 30.3314 25.5095 29.9086Z" fill="#5433FF" stroke="url(#paint40_linear_79_4022)" stroke-width="0.7" stroke-miterlimit="10"/>
<path d="M28.6897 19.9453C28.6897 19.309 28.4338 18.6987 27.9783 18.2488C27.5228 17.7989 26.905 17.5461 26.2608 17.5461C25.6166 17.5461 24.9988 17.7989 24.5433 18.2488C24.0878 18.6987 23.8319 19.309 23.8319 19.9453" fill="white"/>
<path d="M28.6897 19.9453C28.6897 19.309 28.4338 18.6987 27.9783 18.2488C27.5228 17.7989 26.905 17.5461 26.2608 17.5461C25.6166 17.5461 24.9988 17.7989 24.5433 18.2488C24.0878 18.6987 23.8319 19.309 23.8319 19.9453" stroke="url(#paint41_linear_79_4022)" stroke-width="0.7" stroke-miterlimit="10"/>
<path d="M21.0945 19.9453C21.082 19.3173 20.8206 18.7192 20.3665 18.2794C19.9125 17.8397 19.302 17.5934 18.6661 17.5934C18.0302 17.5934 17.4197 17.8397 16.9656 18.2794C16.5116 18.7192 16.2502 19.3173 16.2377 19.9453" fill="white"/>
<path d="M21.0945 19.9453C21.082 19.3173 20.8206 18.7192 20.3665 18.2794C19.9125 17.8397 19.302 17.5934 18.6661 17.5934C18.0302 17.5934 17.4197 17.8397 16.9656 18.2794C16.5116 18.7192 16.2502 19.3173 16.2377 19.9453" stroke="url(#paint42_linear_79_4022)" stroke-width="0.7" stroke-miterlimit="10"/>
<path d="M18.6666 24.1708C18.659 24.6312 18.7441 25.0884 18.9172 25.5159C19.0902 25.9434 19.3477 26.3326 19.6746 26.6608C20.0014 26.989 20.3912 27.2497 20.821 27.4276C21.2509 27.6055 21.7123 27.6972 22.1784 27.6972C22.6445 27.6972 23.106 27.6055 23.5358 27.4276C23.9657 27.2497 24.3554 26.989 24.6823 26.6608C25.0092 26.3326 25.2666 25.9434 25.4397 25.5159C25.6127 25.0884 25.6979 24.6312 25.6902 24.1708H18.6666Z" fill="white" stroke="url(#paint43_linear_79_4022)" stroke-width="0.7" stroke-miterlimit="10"/>
<path d="M26.276 29.9086C34.2392 21.1229 31.4299 12.827 31.4299 12.827L28.1882 11.4111C26.6264 10.7292 24.9377 10.3771 23.2302 10.3771C21.5226 10.3771 19.8339 10.7292 18.2721 11.4111L15.0295 12.827C15.0295 12.827 12.223 21.1173 20.1853 29.9086C20.5688 30.3314 21.0382 30.6697 21.5629 30.9012C22.0876 31.1328 22.6559 31.2525 23.2306 31.2525C23.8054 31.2525 24.3736 31.1328 24.8984 30.9012C25.4231 30.6697 25.8925 30.3314 26.276 29.9086Z" fill="white" stroke="url(#paint44_linear_79_4022)" stroke-width="0.7" stroke-miterlimit="10"/>
<path d="M29.4562 19.9453C29.4562 19.309 29.2003 18.6987 28.7448 18.2488C28.2893 17.7989 27.6715 17.5461 27.0273 17.5461C26.3832 17.5461 25.7654 17.7989 25.3099 18.2488C24.8543 18.6987 24.5984 19.309 24.5984 19.9453" fill="white"/>
<path d="M29.4562 19.9453C29.4562 19.309 29.2003 18.6987 28.7448 18.2488C28.2893 17.7989 27.6715 17.5461 27.0273 17.5461C26.3832 17.5461 25.7654 17.7989 25.3099 18.2488C24.8543 18.6987 24.5984 19.309 24.5984 19.9453" stroke="url(#paint45_linear_79_4022)" stroke-width="0.7" stroke-miterlimit="10"/>
<path d="M21.862 19.9453C21.862 19.309 21.6061 18.6987 21.1506 18.2488C20.6951 17.7989 20.0773 17.5461 19.4331 17.5461C18.7889 17.5461 18.1711 17.7989 17.7156 18.2488C17.2601 18.6987 17.0042 19.309 17.0042 19.9453" fill="white"/>
<path d="M21.862 19.9453C21.862 19.309 21.6061 18.6987 21.1506 18.2488C20.6951 17.7989 20.0773 17.5461 19.4331 17.5461C18.7889 17.5461 18.1711 17.7989 17.7156 18.2488C17.2601 18.6987 17.0042 19.309 17.0042 19.9453" stroke="url(#paint46_linear_79_4022)" stroke-width="0.7" stroke-miterlimit="10"/>
<path d="M19.433 24.1708C19.4253 24.6312 19.5105 25.0884 19.6836 25.5159C19.8566 25.9434 20.1141 26.3326 20.4409 26.6608C20.7678 26.989 21.1575 27.2497 21.5874 27.4276C22.0173 27.6055 22.4787 27.6972 22.9448 27.6972C23.4109 27.6972 23.8723 27.6055 24.3022 27.4276C24.7321 27.2497 25.1218 26.989 25.4486 26.6608C25.7755 26.3326 26.033 25.9434 26.206 25.5159C26.3791 25.0884 26.4643 24.6312 26.4566 24.1708H19.433Z" fill="white" stroke="url(#paint47_linear_79_4022)" stroke-width="0.7" stroke-miterlimit="10"/>
<path d="M5.19934 14.3066V26.3476L17.7147 38.3905H44.8896L44.9188 26.4478C44.9189 26.3925 44.8741 26.3476 44.8188 26.3476H17.7147L5.19934 14.3066Z" fill="white" stroke="url(#paint48_linear_79_4022)" stroke-width="0.7" stroke-miterlimit="10"/>
<path d="M17.7147 26.3476V38.3905" stroke="url(#paint49_linear_79_4022)" stroke-width="0.7" stroke-miterlimit="10"/>
</g>
<defs>
<linearGradient id="paint0_linear_79_4022" x1="25.0823" y1="14.3174" x2="25.0823" y2="26.3571" gradientUnits="userSpaceOnUse">
<stop stop-color="#4A73FE"/>
<stop offset="1" stop-color="#6BDDE8"/>
</linearGradient>
<linearGradient id="paint1_linear_79_4022" x1="16.0418" y1="1.49353" x2="16.0418" y2="23.0875" gradientUnits="userSpaceOnUse">
<stop stop-color="#4A75FE"/>
<stop offset="1" stop-color="#6EDFE8"/>
</linearGradient>
<linearGradient id="paint2_linear_79_4022" x1="16.0418" y1="1.49353" x2="16.0418" y2="23.0875" gradientUnits="userSpaceOnUse">
<stop stop-color="#4A73FE"/>
<stop offset="1" stop-color="#6FDFE7"/>
</linearGradient>
<linearGradient id="paint3_linear_79_4022" x1="16.5418" y1="3.06281" x2="16.5418" y2="4.41617" gradientUnits="userSpaceOnUse">
<stop stop-color="#4A73FE"/>
<stop offset="1" stop-color="#6BDDE8"/>
</linearGradient>
<linearGradient id="paint4_linear_79_4022" x1="11.7106" y1="4.30121" x2="11.7106" y2="5.47232" gradientUnits="userSpaceOnUse">
<stop stop-color="#4A73FE"/>
<stop offset="1" stop-color="#6BDDE8"/>
</linearGradient>
<linearGradient id="paint5_linear_79_4022" x1="8.54133" y1="7.68274" x2="8.54133" y2="8.35849" gradientUnits="userSpaceOnUse">
<stop stop-color="#4A73FE"/>
<stop offset="1" stop-color="#6BDDE8"/>
</linearGradient>
<linearGradient id="paint6_linear_79_4022" x1="7.38512" y1="12.299" x2="7.38512" y2="12.3008" gradientUnits="userSpaceOnUse">
<stop stop-color="#4A73FE"/>
<stop offset="1" stop-color="#6BDDE8"/>
</linearGradient>
<linearGradient id="paint7_linear_79_4022" x1="8.55123" y1="16.2375" x2="8.55123" y2="16.9161" gradientUnits="userSpaceOnUse">
<stop stop-color="#4A73FE"/>
<stop offset="1" stop-color="#6BDDE8"/>
</linearGradient>
<linearGradient id="paint8_linear_79_4022" x1="11.7278" y1="19.1172" x2="11.7278" y2="20.2902" gradientUnits="userSpaceOnUse">
<stop stop-color="#4A73FE"/>
<stop offset="1" stop-color="#6BDDE8"/>
</linearGradient>
<linearGradient id="paint9_linear_79_4022" x1="16.0612" y1="20.1649" x2="16.0612" y2="21.5183" gradientUnits="userSpaceOnUse">
<stop stop-color="#4A73FE"/>
<stop offset="1" stop-color="#6BDDE8"/>
</linearGradient>
<linearGradient id="paint10_linear_79_4022" x1="20.39" y1="19.0994" x2="20.39" y2="20.2696" gradientUnits="userSpaceOnUse">
<stop stop-color="#4A73FE"/>
<stop offset="1" stop-color="#6BDDE8"/>
</linearGradient>
<linearGradient id="paint11_linear_79_4022" x1="23.5519" y1="16.2067" x2="23.5519" y2="16.8797" gradientUnits="userSpaceOnUse">
<stop stop-color="#4A73FE"/>
<stop offset="1" stop-color="#6BDDE8"/>
</linearGradient>
<linearGradient id="paint12_linear_79_4022" x1="24.6986" y1="12.2588" x2="24.6986" y2="12.2635" gradientUnits="userSpaceOnUse">
<stop stop-color="#4A73FE"/>
<stop offset="1" stop-color="#6BDDE8"/>
</linearGradient>
<linearGradient id="paint13_linear_79_4022" x1="23.522" y1="7.6463" x2="23.522" y2="8.32766" gradientUnits="userSpaceOnUse">
<stop stop-color="#4A73FE"/>
<stop offset="1" stop-color="#6BDDE8"/>
</linearGradient>
<linearGradient id="paint14_linear_79_4022" x1="20.3391" y1="4.27972" x2="20.3391" y2="5.45457" gradientUnits="userSpaceOnUse">
<stop stop-color="#4A73FE"/>
<stop offset="1" stop-color="#6BDDE8"/>
</linearGradient>
<linearGradient id="paint15_linear_79_4022" x1="16.5418" y1="5.77142" x2="16.5418" y2="14.3748" gradientUnits="userSpaceOnUse">
<stop stop-color="#4A73FE"/>
<stop offset="1" stop-color="#6BDDE8"/>
</linearGradient>
<linearGradient id="paint16_linear_79_4022" x1="14.5795" y1="9.2511" x2="14.5795" y2="13.6495" gradientUnits="userSpaceOnUse">
<stop stop-color="#4A73FE"/>
<stop offset="1" stop-color="#6BDDE8"/>
</linearGradient>
<linearGradient id="paint17_linear_79_4022" x1="16.6785" y1="1.8244" x2="16.6785" y2="23.4184" gradientUnits="userSpaceOnUse">
<stop stop-color="#4A73FE"/>
<stop offset="1" stop-color="#6BDDE8"/>
</linearGradient>
<linearGradient id="paint18_linear_79_4022" x1="17.1786" y1="3.39368" x2="17.1786" y2="4.74704" gradientUnits="userSpaceOnUse">
<stop stop-color="#4A73FE"/>
<stop offset="1" stop-color="#6BDDE8"/>
</linearGradient>
<linearGradient id="paint19_linear_79_4022" x1="12.3473" y1="4.63208" x2="12.3473" y2="5.80319" gradientUnits="userSpaceOnUse">
<stop stop-color="#4A73FE"/>
<stop offset="1" stop-color="#6BDDE8"/>
</linearGradient>
<linearGradient id="paint20_linear_79_4022" x1="9.1787" y1="8.01361" x2="9.1787" y2="8.68936" gradientUnits="userSpaceOnUse">
<stop stop-color="#4A73FE"/>
<stop offset="1" stop-color="#6BDDE8"/>
</linearGradient>
<linearGradient id="paint21_linear_79_4022" x1="8.02184" y1="12.6307" x2="8.02184" y2="12.6317" gradientUnits="userSpaceOnUse">
<stop stop-color="#4A73FE"/>
<stop offset="1" stop-color="#6BDDE8"/>
</linearGradient>
<linearGradient id="paint22_linear_79_4022" x1="9.18801" y1="16.5693" x2="9.18801" y2="17.2479" gradientUnits="userSpaceOnUse">
<stop stop-color="#4A73FE"/>
<stop offset="1" stop-color="#6BDDE8"/>
</linearGradient>
<linearGradient id="paint23_linear_79_4022" x1="12.3645" y1="19.4481" x2="12.3645" y2="20.622" gradientUnits="userSpaceOnUse">
<stop stop-color="#4A73FE"/>
<stop offset="1" stop-color="#6BDDE8"/>
</linearGradient>
<linearGradient id="paint24_linear_79_4022" x1="16.6981" y1="20.4958" x2="16.6981" y2="21.8492" gradientUnits="userSpaceOnUse">
<stop stop-color="#4A73FE"/>
<stop offset="1" stop-color="#6BDDE8"/>
</linearGradient>
<linearGradient id="paint25_linear_79_4022" x1="21.027" y1="19.4303" x2="21.027" y2="20.6005" gradientUnits="userSpaceOnUse">
<stop stop-color="#4A73FE"/>
<stop offset="1" stop-color="#6BDDE8"/>
</linearGradient>
<linearGradient id="paint26_linear_79_4022" x1="24.1886" y1="16.5385" x2="24.1886" y2="17.2115" gradientUnits="userSpaceOnUse">
<stop stop-color="#4A73FE"/>
<stop offset="1" stop-color="#6BDDE8"/>
</linearGradient>
<linearGradient id="paint27_linear_79_4022" x1="25.3354" y1="12.5897" x2="25.3354" y2="12.5943" gradientUnits="userSpaceOnUse">
<stop stop-color="#4A73FE"/>
<stop offset="1" stop-color="#6BDDE8"/>
</linearGradient>
<linearGradient id="paint28_linear_79_4022" x1="24.1593" y1="7.97717" x2="24.1593" y2="8.65853" gradientUnits="userSpaceOnUse">
<stop stop-color="#4A73FE"/>
<stop offset="1" stop-color="#6BDDE8"/>
</linearGradient>
<linearGradient id="paint29_linear_79_4022" x1="20.9758" y1="4.6106" x2="20.9758" y2="5.78544" gradientUnits="userSpaceOnUse">
<stop stop-color="#4A73FE"/>
<stop offset="1" stop-color="#6BDDE8"/>
</linearGradient>
<linearGradient id="paint30_linear_79_4022" x1="17.1786" y1="6.10229" x2="17.1786" y2="14.7057" gradientUnits="userSpaceOnUse">
<stop stop-color="#4A73FE"/>
<stop offset="1" stop-color="#6BDDE8"/>
</linearGradient>
<linearGradient id="paint31_linear_79_4022" x1="15.2162" y1="9.58197" x2="15.2162" y2="13.9804" gradientUnits="userSpaceOnUse">
<stop stop-color="#4A73FE"/>
<stop offset="1" stop-color="#6BDDE8"/>
</linearGradient>
<linearGradient id="paint32_linear_79_4022" x1="33.5189" y1="8.00421" x2="33.5189" y2="28.6858" gradientUnits="userSpaceOnUse">
<stop stop-color="#4B71FE"/>
<stop offset="1" stop-color="#70DFE6"/>
</linearGradient>
<linearGradient id="paint33_linear_79_4022" x1="29.0035" y1="14.217" x2="29.0035" y2="17.2955" gradientUnits="userSpaceOnUse">
<stop stop-color="#4A73FE"/>
<stop offset="1" stop-color="#6BDDE8"/>
</linearGradient>
<linearGradient id="paint34_linear_79_4022" x1="36.2907" y1="16.312" x2="36.2907" y2="19.4228" gradientUnits="userSpaceOnUse">
<stop stop-color="#4A73FE"/>
<stop offset="1" stop-color="#6BDDE8"/>
</linearGradient>
<linearGradient id="paint35_linear_79_4022" x1="31.5941" y1="20.8323" x2="31.5941" y2="25.2113" gradientUnits="userSpaceOnUse">
<stop stop-color="#4A73FE"/>
<stop offset="1" stop-color="#6BDDE8"/>
</linearGradient>
<linearGradient id="paint36_linear_79_4022" x1="32.7836" y1="7.78918" x2="32.7836" y2="28.4709" gradientUnits="userSpaceOnUse">
<stop stop-color="#4A73FE"/>
<stop offset="1" stop-color="#6BDDE8"/>
</linearGradient>
<linearGradient id="paint37_linear_79_4022" x1="28.2683" y1="14.0024" x2="28.2683" y2="17.0816" gradientUnits="userSpaceOnUse">
<stop stop-color="#4A73FE"/>
<stop offset="1" stop-color="#6BDDE8"/>
</linearGradient>
<linearGradient id="paint38_linear_79_4022" x1="35.5513" y1="16.1334" x2="35.5513" y2="19.2125" gradientUnits="userSpaceOnUse">
<stop stop-color="#4A73FE"/>
<stop offset="1" stop-color="#6BDDE8"/>
</linearGradient>
<linearGradient id="paint39_linear_79_4022" x1="30.8437" y1="20.6126" x2="30.8437" y2="25.0961" gradientUnits="userSpaceOnUse">
<stop stop-color="#4A73FE"/>
<stop offset="1" stop-color="#6BDDE8"/>
</linearGradient>
<linearGradient id="paint40_linear_79_4022" x1="22.4637" y1="10.3771" x2="22.4637" y2="31.2525" gradientUnits="userSpaceOnUse">
<stop stop-color="#4A74FE"/>
<stop offset="1" stop-color="#6FDFE7"/>
</linearGradient>
<linearGradient id="paint41_linear_79_4022" x1="26.2608" y1="17.5461" x2="26.2608" y2="19.9453" gradientUnits="userSpaceOnUse">
<stop stop-color="#4A73FE"/>
<stop offset="1" stop-color="#6BDDE8"/>
</linearGradient>
<linearGradient id="paint42_linear_79_4022" x1="18.6661" y1="17.5934" x2="18.6661" y2="19.9453" gradientUnits="userSpaceOnUse">
<stop stop-color="#4A73FE"/>
<stop offset="1" stop-color="#6BDDE8"/>
</linearGradient>
<linearGradient id="paint43_linear_79_4022" x1="22.1784" y1="24.1708" x2="22.1784" y2="27.6972" gradientUnits="userSpaceOnUse">
<stop stop-color="#4A73FE"/>
<stop offset="1" stop-color="#6BDDE8"/>
</linearGradient>
<linearGradient id="paint44_linear_79_4022" x1="23.2302" y1="10.3771" x2="23.2302" y2="31.2525" gradientUnits="userSpaceOnUse">
<stop stop-color="#4A73FE"/>
<stop offset="1" stop-color="#6BDDE8"/>
</linearGradient>
<linearGradient id="paint45_linear_79_4022" x1="27.0273" y1="17.5461" x2="27.0273" y2="19.9453" gradientUnits="userSpaceOnUse">
<stop stop-color="#4A73FE"/>
<stop offset="1" stop-color="#6BDDE8"/>
</linearGradient>
<linearGradient id="paint46_linear_79_4022" x1="19.4331" y1="17.5461" x2="19.4331" y2="19.9453" gradientUnits="userSpaceOnUse">
<stop stop-color="#4A73FE"/>
<stop offset="1" stop-color="#6BDDE8"/>
</linearGradient>
<linearGradient id="paint47_linear_79_4022" x1="22.9448" y1="24.1708" x2="22.9448" y2="27.6972" gradientUnits="userSpaceOnUse">
<stop stop-color="#4A73FE"/>
<stop offset="1" stop-color="#6BDDE8"/>
</linearGradient>
<linearGradient id="paint48_linear_79_4022" x1="25.0592" y1="14.3066" x2="25.0592" y2="38.3905" gradientUnits="userSpaceOnUse">
<stop stop-color="#4A73FE"/>
<stop offset="1" stop-color="#6BDDE8"/>
</linearGradient>
<linearGradient id="paint49_linear_79_4022" x1="18.2147" y1="26.3476" x2="18.2147" y2="38.3905" gradientUnits="userSpaceOnUse">
<stop stop-color="#4A73FE"/>
<stop offset="1" stop-color="#6BDDE8"/>
</linearGradient>
<clipPath id="clip0_79_4022">
<rect width="50" height="41" fill="white"/>
</clipPath>
</defs>
</svg>
