<svg width="30" height="24" viewBox="0 0 30 24" fill="none" xmlns="http://www.w3.org/2000/svg">
<path d="M16.4066 18.452C21.451 8.19045 16.4444 1.29251 16.4444 1.29251L12.976 0.859934C11.3045 0.651133 9.60615 0.781157 7.9898 1.24168C6.37344 1.70219 4.87475 2.48305 3.58975 3.5342L0.92298 5.71534C0.92298 5.71534 0.620196 14.1277 10.6408 20.0941C11.1235 20.3815 11.6637 20.5676 12.2261 20.6402C12.7885 20.7128 13.3605 20.6702 13.9046 20.5152C14.4488 20.3602 14.9529 20.0963 15.384 19.7408C15.8151 19.3853 16.1636 18.9462 16.4066 18.452V18.452Z" fill="#1C2C65" stroke="#1C2C65" stroke-width="0.7" stroke-miterlimit="10"/>
<path d="M17.131 18.2449C22.1762 7.98403 17.1689 1.08609 17.1689 1.08609L13.7013 0.653513C12.0297 0.444712 10.3314 0.574737 8.71502 1.03526C7.09866 1.49577 5.59997 2.27663 4.31497 3.32778L1.6482 5.50892C1.6482 5.50892 1.34542 13.9213 11.366 19.8877C11.8488 20.1748 12.3889 20.3607 12.9513 20.4331C13.5136 20.5055 14.0854 20.4628 14.6295 20.3077C15.1735 20.1527 15.6775 19.8888 16.1085 19.5334C16.5396 19.1779 16.888 18.7389 17.131 18.2449Z" fill="#F3F3F3" stroke="#1C2C65" stroke-width="0.7" stroke-miterlimit="10"/>
<path d="M17.3188 8.19189C17.1344 7.60934 16.7186 7.12058 16.1621 6.83199C15.6055 6.54341 14.9532 6.47837 14.3471 6.65103C13.7411 6.82369 13.2303 7.22007 12.926 7.7539C12.6218 8.28772 12.5486 8.91576 12.7225 9.5013" fill="white"/>
<path d="M17.3188 8.19189C17.1344 7.60934 16.7186 7.12058 16.1621 6.83199C15.6055 6.54341 14.9532 6.47837 14.3471 6.65103C13.7411 6.82369 13.2303 7.22007 12.926 7.7539C12.6218 8.28772 12.5486 8.91576 12.7225 9.5013" stroke="#1C2C65" stroke-width="0.7" stroke-miterlimit="10"/>
<path d="M10.133 10.2395C10.0435 9.94865 9.89548 9.67764 9.69733 9.44194C9.49919 9.20623 9.25481 9.01044 8.97814 8.86575C8.70148 8.72107 8.39795 8.63031 8.0849 8.59866C7.77184 8.56702 7.45538 8.59511 7.15358 8.68132C6.85179 8.76754 6.57057 8.9102 6.32599 9.10115C6.0814 9.2921 5.87824 9.52761 5.7281 9.79423C5.57796 10.0608 5.48378 10.3534 5.45094 10.655C5.41811 10.9567 5.44725 11.2617 5.53672 11.5525" fill="#F3F3F3"/>
<path d="M10.133 10.2395C10.0435 9.94865 9.89548 9.67764 9.69733 9.44194C9.49919 9.20623 9.25481 9.01044 8.97814 8.86575C8.70148 8.72107 8.39795 8.63031 8.0849 8.59866C7.77184 8.56702 7.45538 8.59511 7.15358 8.68132C6.85179 8.76754 6.57057 8.9102 6.32599 9.10115C6.0814 9.2921 5.87824 9.52761 5.7281 9.79423C5.57796 10.0608 5.48378 10.3534 5.45094 10.655C5.41811 10.9567 5.44725 11.2617 5.53672 11.5525" stroke="#1C2C65" stroke-width="0.7" stroke-miterlimit="10"/>
<path d="M9.03162 14.7951C9.2926 15.6444 9.893 16.359 10.7007 16.7818C11.1007 16.9911 11.5395 17.1224 11.9921 17.1683C12.4448 17.2142 12.9023 17.1737 13.3387 17.0492C13.7751 16.9246 14.1818 16.7185 14.5355 16.4425C14.8892 16.1665 15.183 15.8261 15.4002 15.4406C15.6174 15.0552 15.7537 14.6323 15.8013 14.1961C15.849 13.7599 15.8069 13.319 15.6777 12.8984L9.03162 14.7951Z" fill="#F3F3F3" stroke="#1C2C65" stroke-width="0.7" stroke-miterlimit="10"/>
<path d="M17.6943 21.8484C9.83705 13.3865 12.6083 5.40456 12.6083 5.40456L15.8072 4.04554C17.3484 3.38911 19.0148 3.05005 20.6998 3.05005C22.3848 3.05005 24.0512 3.38911 25.5924 4.04554L28.7921 5.40893C28.7921 5.40893 31.561 13.3916 23.7045 21.8528C23.3258 22.2596 22.8623 22.5849 22.3444 22.8075C21.8264 23.03 21.2655 23.1448 20.6984 23.1444C20.1313 23.144 19.5706 23.0284 19.053 22.8051C18.5353 22.5818 18.0724 22.2558 17.6943 21.8484V21.8484Z" fill="#1C2C65" stroke="#1C2C65" stroke-width="0.7" stroke-miterlimit="10"/>
<path d="M16.938 21.8484C9.08005 13.3865 11.852 5.40451 11.852 5.40451L15.0502 4.0455C16.5915 3.3891 18.2581 3.05005 19.9432 3.05005C21.6283 3.05005 23.2948 3.3891 24.8362 4.0455L28.0351 5.40889C28.0351 5.40889 30.8048 13.3916 22.9475 21.8528C22.5689 22.2596 22.1055 22.5848 21.5876 22.8074C21.0696 23.0299 20.5088 23.1448 19.9418 23.1443C19.3747 23.1439 18.8141 23.0283 18.2965 22.805C17.779 22.5817 17.3161 22.2557 16.938 21.8484Z" fill="#F3F3F3" stroke="#1C2C65" stroke-width="0.7" stroke-miterlimit="10"/>
<path d="M13.8004 12.2595C13.8004 11.647 14.0529 11.0595 14.5023 10.6264C14.9518 10.1933 15.5613 9.94995 16.1969 9.94995C16.8325 9.94995 17.4421 10.1933 17.8916 10.6264C18.341 11.0595 18.5935 11.647 18.5935 12.2595" fill="#F3F3F3"/>
<path d="M13.8004 12.2595C13.8004 11.647 14.0529 11.0595 14.5023 10.6264C14.9518 10.1933 15.5613 9.94995 16.1969 9.94995C16.8325 9.94995 17.4421 10.1933 17.8916 10.6264C18.341 11.0595 18.5935 11.647 18.5935 12.2595" stroke="#1C2C65" stroke-width="0.7" stroke-miterlimit="10"/>
<path d="M21.2943 12.2595C21.2943 11.647 21.5468 11.0595 21.9962 10.6264C22.4457 10.1933 23.0552 9.94995 23.6908 9.94995C24.3264 9.94995 24.936 10.1933 25.3854 10.6264C25.8349 11.0595 26.0874 11.647 26.0874 12.2595" fill="#F3F3F3"/>
<path d="M21.2943 12.2595C21.2943 11.647 21.5468 11.0595 21.9962 10.6264C22.4457 10.1933 23.0552 9.94995 23.6908 9.94995C24.3264 9.94995 24.936 10.1933 25.3854 10.6264C25.8349 11.0595 26.0874 11.647 26.0874 12.2595" stroke="#1C2C65" stroke-width="0.7" stroke-miterlimit="10"/>
<path d="M23.6901 16.327C23.6901 16.7656 23.6005 17.1998 23.4263 17.605C23.2522 18.0102 22.9969 18.3783 22.6751 18.6884C22.3534 18.9986 21.9713 19.2445 21.5509 19.4124C21.1305 19.5802 20.6798 19.6666 20.2248 19.6666C19.7697 19.6666 19.3191 19.5802 18.8986 19.4124C18.4782 19.2445 18.0962 18.9986 17.7744 18.6884C17.4526 18.3783 17.1973 18.0102 17.0232 17.605C16.849 17.1998 16.7594 16.7656 16.7594 16.327H23.6901Z" fill="#F3F3F3" stroke="#1C2C65" stroke-width="0.7" stroke-miterlimit="10"/>
</svg>
