<svg width="28" height="27" viewBox="0 0 28 27" fill="none" xmlns="http://www.w3.org/2000/svg">
<path d="M27.5329 18.0001L19.087 9.80606C19.0683 9.78796 19.0433 9.77783 19.0173 9.77783H0.578979" stroke="#1C2C65" stroke-width="0.7" stroke-miterlimit="10"/>
<path d="M7.90844 15.7671C12.0134 15.7671 15.3412 12.4659 15.3412 8.39358C15.3412 4.32128 12.0134 1.02002 7.90844 1.02002C3.80346 1.02002 0.475708 4.32128 0.475708 8.39358C0.475708 12.4659 3.80346 15.7671 7.90844 15.7671Z" fill="#5433FF" stroke="#1C2C65" stroke-width="0.7" stroke-miterlimit="10"/>
<path d="M7.90845 2.09167V3.01592" stroke="#1C2C65" stroke-width="0.7" stroke-miterlimit="10"/>
<path d="M4.72998 2.93738L5.19646 3.73716" stroke="#1C2C65" stroke-width="0.7" stroke-miterlimit="10"/>
<path d="M2.40466 5.24683L3.21151 5.70831" stroke="#1C2C65" stroke-width="0.7" stroke-miterlimit="10"/>
<path d="M1.55603 8.40057L2.4877 8.39929" stroke="#1C2C65" stroke-width="0.7" stroke-miterlimit="10"/>
<path d="M2.41174 11.5525L3.21794 11.0891" stroke="#1C2C65" stroke-width="0.7" stroke-miterlimit="10"/>
<path d="M4.74292 13.8567L5.20682 13.0557" stroke="#1C2C65" stroke-width="0.7" stroke-miterlimit="10"/>
<path d="M7.92258 14.6954L7.92065 13.7711" stroke="#1C2C65" stroke-width="0.7" stroke-miterlimit="10"/>
<path d="M11.0991 13.8427L10.6313 13.0436" stroke="#1C2C65" stroke-width="0.7" stroke-miterlimit="10"/>
<path d="M13.4193 11.5276L12.6112 11.068" stroke="#1C2C65" stroke-width="0.7" stroke-miterlimit="10"/>
<path d="M14.2609 8.37183L13.3292 8.37502" stroke="#1C2C65" stroke-width="0.7" stroke-miterlimit="10"/>
<path d="M13.3974 5.22192L12.5925 5.68724" stroke="#1C2C65" stroke-width="0.7" stroke-miterlimit="10"/>
<path d="M11.0619 2.92273L10.5992 3.72506" stroke="#1C2C65" stroke-width="0.7" stroke-miterlimit="10"/>
<path d="M7.90845 9.81689V3.94141" stroke="#1C2C65" stroke-width="0.7" stroke-miterlimit="10"/>
<path d="M4.36902 6.31787L9.45908 9.32168" stroke="#1C2C65" stroke-width="0.7" stroke-miterlimit="10"/>
<path d="M8.34143 15.9931C12.4464 15.9931 15.7742 12.6918 15.7742 8.61953C15.7742 4.54723 12.4464 1.24597 8.34143 1.24597C4.23644 1.24597 0.908691 4.54723 0.908691 8.61953C0.908691 12.6918 4.23644 15.9931 8.34143 15.9931Z" fill="#F3F3F3" stroke="#1C2C65" stroke-width="0.7" stroke-miterlimit="10"/>
<path d="M8.34143 2.31763V3.24188" stroke="#1C2C65" stroke-width="0.7" stroke-miterlimit="10"/>
<path d="M5.16296 3.16333L5.62944 3.96311" stroke="#1C2C65" stroke-width="0.7" stroke-miterlimit="10"/>
<path d="M2.83777 5.47278L3.64525 5.93426" stroke="#1C2C65" stroke-width="0.7" stroke-miterlimit="10"/>
<path d="M1.98901 8.62649L2.92068 8.62585" stroke="#1C2C65" stroke-width="0.7" stroke-miterlimit="10"/>
<path d="M2.84473 11.7791L3.65093 11.3157" stroke="#1C2C65" stroke-width="0.7" stroke-miterlimit="10"/>
<path d="M5.1759 14.0833L5.63981 13.2816" stroke="#1C2C65" stroke-width="0.7" stroke-miterlimit="10"/>
<path d="M8.35569 14.9213L8.35376 13.9971" stroke="#1C2C65" stroke-width="0.7" stroke-miterlimit="10"/>
<path d="M11.5322 14.0687L11.0645 13.2695" stroke="#1C2C65" stroke-width="0.7" stroke-miterlimit="10"/>
<path d="M13.8523 11.7541L13.0442 11.2946" stroke="#1C2C65" stroke-width="0.7" stroke-miterlimit="10"/>
<path d="M14.6939 8.59778L13.7622 8.60097" stroke="#1C2C65" stroke-width="0.7" stroke-miterlimit="10"/>
<path d="M13.8311 5.44788L13.0255 5.91319" stroke="#1C2C65" stroke-width="0.7" stroke-miterlimit="10"/>
<path d="M11.4948 3.14868L11.0322 3.95102" stroke="#1C2C65" stroke-width="0.7" stroke-miterlimit="10"/>
<path d="M8.34143 10.0428V4.16736" stroke="#1C2C65" stroke-width="0.7" stroke-miterlimit="10"/>
<path d="M4.802 6.54382L9.89206 9.54763" stroke="#1C2C65" stroke-width="0.7" stroke-miterlimit="10"/>
<path d="M15.2338 18.0145C11.7594 10.738 15.2074 5.84165 15.2074 5.84165L17.5977 5.53463C18.7494 5.38691 19.9194 5.47934 21.033 5.806C22.1466 6.13265 23.1792 6.68635 24.0647 7.43164L25.9023 8.9795C25.9023 8.9795 26.1133 14.9469 19.2056 19.1794C18.873 19.383 18.5009 19.5148 18.1135 19.5661C17.7261 19.6174 17.3322 19.5871 16.9574 19.4772C16.5826 19.3672 16.2354 19.1802 15.9384 18.9281C15.6414 18.6761 15.4013 18.3648 15.2338 18.0145V18.0145Z" fill="#5433FF" stroke="#1C2C65" stroke-width="0.7" stroke-miterlimit="10"/>
<path d="M15.1051 10.8829C15.2292 10.4663 15.5151 10.1157 15.8999 9.90816C16.0904 9.80542 16.2994 9.7409 16.515 9.7183C16.7307 9.69569 16.9487 9.71545 17.1566 9.77643C17.3646 9.83741 17.5584 9.93842 17.727 10.0737C17.8955 10.209 18.0356 10.3759 18.1392 10.5649C18.2428 10.7539 18.3078 10.9612 18.3306 11.1751C18.3534 11.3891 18.3335 11.6053 18.272 11.8116" fill="white"/>
<path d="M15.1051 10.8829C15.2292 10.4663 15.5151 10.1157 15.8999 9.90816C16.0904 9.80542 16.2994 9.7409 16.515 9.7183C16.7307 9.69569 16.9487 9.71545 17.1566 9.77643C17.3646 9.83741 17.5584 9.93842 17.727 10.0737C17.8955 10.209 18.0356 10.3759 18.1392 10.5649C18.2428 10.7539 18.3078 10.9612 18.3306 11.1751C18.3534 11.3891 18.3335 11.6053 18.272 11.8116" stroke="#1C2C65" stroke-width="0.7" stroke-miterlimit="10"/>
<path d="M20.0568 12.3357C20.1159 12.1267 20.2163 11.9314 20.3521 11.7612C20.4879 11.5911 20.6565 11.4494 20.848 11.3444C21.0395 11.2393 21.2502 11.1731 21.4677 11.1496C21.6852 11.126 21.9053 11.1456 22.1151 11.2071C22.3249 11.2686 22.5204 11.3709 22.69 11.508C22.8597 11.6451 23.0002 11.8142 23.1034 12.0056C23.2066 12.197 23.2704 12.4069 23.2912 12.623C23.3119 12.8391 23.2892 13.0571 23.2243 13.2644" fill="white"/>
<path d="M20.0568 12.3357C20.1159 12.1267 20.2163 11.9314 20.3521 11.7612C20.4879 11.5911 20.6565 11.4494 20.848 11.3444C21.0395 11.2393 21.2502 11.1731 21.4677 11.1496C21.6852 11.126 21.9053 11.1456 22.1151 11.2071C22.3249 11.2686 22.5204 11.3709 22.69 11.508C22.8597 11.6451 23.0002 11.8142 23.1034 12.0056C23.2066 12.197 23.2704 12.4069 23.2912 12.623C23.3119 12.8391 23.2892 13.0571 23.2243 13.2644" stroke="#1C2C65" stroke-width="0.7" stroke-miterlimit="10"/>
<path d="M20.816 15.5673C20.6264 16.1577 20.2113 16.6508 19.6597 16.9412C19.108 17.2315 18.4636 17.296 17.8646 17.1207C17.2656 16.9454 16.7596 16.5443 16.4551 16.0034C16.1506 15.4625 16.0718 14.8248 16.2355 14.2269L20.816 15.5673Z" fill="white" stroke="#1C2C65" stroke-width="0.7" stroke-miterlimit="10"/>
<path d="M14.7338 17.8678C11.2594 10.5912 14.7074 5.69487 14.7074 5.69487L17.0977 5.38785C18.2494 5.24002 19.4196 5.33245 20.5332 5.65923C21.6468 5.986 22.6794 6.53992 23.5647 7.2855L25.4023 8.83272C25.4023 8.83272 25.6133 14.8001 18.7056 19.0326C18.373 19.2362 18.0009 19.368 17.6135 19.4193C17.2261 19.4706 16.8322 19.4403 16.4574 19.3304C16.0826 19.2205 15.7354 19.0334 15.4384 18.7814C15.1414 18.5293 14.9013 18.218 14.7338 17.8678V17.8678Z" fill="#F3F3F3" stroke="#1C2C65" stroke-width="0.7" stroke-miterlimit="10"/>
<path d="M14.6051 10.7361C14.7293 10.3195 15.0153 9.96887 15.4001 9.76142C15.7849 9.55398 16.237 9.50667 16.657 9.62991C17.0769 9.75315 17.4303 10.0368 17.6394 10.4186C17.8485 10.8003 17.8962 11.2488 17.772 11.6654" fill="white"/>
<path d="M14.6051 10.7361C14.7293 10.3195 15.0153 9.96887 15.4001 9.76142C15.7849 9.55398 16.237 9.50667 16.657 9.62991C17.0769 9.75315 17.4303 10.0368 17.6394 10.4186C17.8485 10.8003 17.8962 11.2488 17.772 11.6654" stroke="#1C2C65" stroke-width="0.7" stroke-miterlimit="10"/>
<path d="M19.5575 12.1914C19.619 11.9851 19.7209 11.7929 19.8573 11.6256C19.9937 11.4584 20.162 11.3195 20.3525 11.2167C20.7373 11.0093 21.1894 10.962 21.6093 11.0852C21.8173 11.1463 22.0111 11.2473 22.1797 11.3826C22.3482 11.518 22.4883 11.6849 22.5918 11.8739C22.6954 12.0629 22.7604 12.2703 22.7831 12.4842C22.8059 12.6982 22.7859 12.9145 22.7244 13.1208" fill="#F3F3F3"/>
<path d="M19.5575 12.1914C19.619 11.9851 19.7209 11.7929 19.8573 11.6256C19.9937 11.4584 20.162 11.3195 20.3525 11.2167C20.7373 11.0093 21.1894 10.962 21.6093 11.0852C21.8173 11.1463 22.0111 11.2473 22.1797 11.3826C22.3482 11.518 22.4883 11.6849 22.5918 11.8739C22.6954 12.0629 22.7604 12.2703 22.7831 12.4842C22.8059 12.6982 22.7859 12.9145 22.7244 13.1208" stroke="#1C2C65" stroke-width="0.7" stroke-miterlimit="10"/>
<path d="M20.3161 15.4205C20.2294 15.7214 20.0835 16.0023 19.8868 16.247C19.69 16.4916 19.4464 16.6952 19.1699 16.8459C18.8934 16.9967 18.5896 17.0915 18.2759 17.1251C17.9623 17.1587 17.645 17.1303 17.3425 17.0415C17.04 16.9528 16.7581 16.8055 16.5133 16.6081C16.2685 16.4107 16.0655 16.1671 15.9161 15.8915C15.7667 15.6158 15.6739 15.3136 15.6429 15.0021C15.6119 14.6907 15.6434 14.3762 15.7356 14.0769L20.3161 15.4205Z" fill="#F3F3F3" stroke="#1C2C65" stroke-width="0.7" stroke-miterlimit="10"/>
<path d="M14.3464 20.4253C19.7614 14.4254 17.8511 8.7599 17.8511 8.7599L15.6468 7.79289C14.5846 7.32729 13.4362 7.08679 12.275 7.08679C11.1137 7.08679 9.9653 7.32729 8.90314 7.79289L6.6988 8.7599C6.6988 8.7599 4.79043 14.4216 10.2048 20.4253C10.4655 20.7141 10.7847 20.9451 11.1416 21.1033C11.4984 21.2614 11.8848 21.3431 12.2756 21.3431C12.6664 21.3431 13.0528 21.2614 13.4097 21.1033C13.7665 20.9451 14.0857 20.7141 14.3464 20.4253V20.4253Z" fill="#5433FF" stroke="#1C2C65" stroke-width="0.7" stroke-miterlimit="10"/>
<path d="M16.509 13.6212C16.509 13.1866 16.335 12.7698 16.0252 12.4626C15.7155 12.1553 15.2954 11.9827 14.8573 11.9827C14.4193 11.9827 13.9992 12.1553 13.6894 12.4626C13.3797 12.7698 13.2057 13.1866 13.2057 13.6212" fill="white"/>
<path d="M16.509 13.6212C16.509 13.1866 16.335 12.7698 16.0252 12.4626C15.7155 12.1553 15.2954 11.9827 14.8573 11.9827C14.4193 11.9827 13.9992 12.1553 13.6894 12.4626C13.3797 12.7698 13.2057 13.1866 13.2057 13.6212" stroke="#1C2C65" stroke-width="0.7" stroke-miterlimit="10"/>
<path d="M11.3443 13.6212C11.3357 13.1923 11.158 12.7839 10.8493 12.4835C10.5405 12.1832 10.1253 12.015 9.69295 12.015C9.26055 12.015 8.8454 12.1832 8.53664 12.4835C8.22789 12.7839 8.05016 13.1923 8.04163 13.6212" fill="white"/>
<path d="M11.3443 13.6212C11.3357 13.1923 11.158 12.7839 10.8493 12.4835C10.5405 12.1832 10.1253 12.015 9.69295 12.015C9.26055 12.015 8.8454 12.1832 8.53664 12.4835C8.22789 12.7839 8.05016 13.1923 8.04163 13.6212" stroke="#1C2C65" stroke-width="0.7" stroke-miterlimit="10"/>
<path d="M9.69331 16.5068C9.68811 16.8212 9.74604 17.1335 9.86371 17.4254C9.98139 17.7174 10.1565 17.9832 10.3787 18.2073C10.601 18.4314 10.866 18.6095 11.1583 18.731C11.4506 18.8525 11.7644 18.9151 12.0814 18.9151C12.3983 18.9151 12.7121 18.8525 13.0044 18.731C13.2967 18.6095 13.5617 18.4314 13.784 18.2073C14.0062 17.9832 14.1813 17.7174 14.299 17.4254C14.4167 17.1335 14.4746 16.8212 14.4694 16.5068H9.69331Z" fill="white" stroke="#1C2C65" stroke-width="0.7" stroke-miterlimit="10"/>
<path d="M14.8677 20.4254C20.2827 14.4254 18.3724 8.75994 18.3724 8.75994L16.168 7.79292C15.106 7.3273 13.9577 7.08679 12.7965 7.08679C11.6354 7.08679 10.4871 7.3273 9.42503 7.79292L7.22004 8.75994C7.22004 8.75994 5.31167 14.4216 10.726 20.4254C10.9868 20.7142 11.306 20.9452 11.6628 21.1033C12.0196 21.2614 12.406 21.3432 12.7968 21.3432C13.1877 21.3432 13.5741 21.2614 13.9309 21.1033C14.2877 20.9452 14.6069 20.7142 14.8677 20.4254V20.4254Z" fill="#F3F3F3" stroke="#1C2C65" stroke-width="0.7" stroke-miterlimit="10"/>
<path d="M17.0302 13.6212C17.0302 13.1866 16.8562 12.7698 16.5465 12.4626C16.2367 12.1553 15.8166 11.9827 15.3786 11.9827C14.9405 11.9827 14.5204 12.1553 14.2107 12.4626C13.9009 12.7698 13.7269 13.1866 13.7269 13.6212" fill="#F3F3F3"/>
<path d="M17.0302 13.6212C17.0302 13.1866 16.8562 12.7698 16.5465 12.4626C16.2367 12.1553 15.8166 11.9827 15.3786 11.9827C14.9405 11.9827 14.5204 12.1553 14.2107 12.4626C13.9009 12.7698 13.7269 13.1866 13.7269 13.6212" stroke="#1C2C65" stroke-width="0.7" stroke-miterlimit="10"/>
<path d="M11.8662 13.6212C11.8662 13.1866 11.6921 12.7698 11.3824 12.4626C11.0727 12.1553 10.6526 11.9827 10.2145 11.9827C9.77647 11.9827 9.35637 12.1553 9.04662 12.4626C8.73688 12.7698 8.56287 13.1866 8.56287 13.6212" fill="#F3F3F3"/>
<path d="M11.8662 13.6212C11.8662 13.1866 11.6921 12.7698 11.3824 12.4626C11.0727 12.1553 10.6526 11.9827 10.2145 11.9827C9.77647 11.9827 9.35637 12.1553 9.04662 12.4626C8.73688 12.7698 8.56287 13.1866 8.56287 13.6212" stroke="#1C2C65" stroke-width="0.7" stroke-miterlimit="10"/>
<path d="M10.2144 16.5068C10.2092 16.8212 10.2672 17.1335 10.3848 17.4254C10.5025 17.7174 10.6776 17.9832 10.8998 18.2073C11.1221 18.4314 11.3871 18.6095 11.6794 18.731C11.9718 18.8525 12.2855 18.9151 12.6025 18.9151C12.9194 18.9151 13.2332 18.8525 13.5255 18.731C13.8178 18.6095 14.0828 18.4314 14.3051 18.2073C14.5274 17.9832 14.7024 17.7174 14.8201 17.4254C14.9378 17.1335 14.9957 16.8212 14.9905 16.5068H10.2144Z" fill="#F3F3F3" stroke="#1C2C65" stroke-width="0.7" stroke-miterlimit="10"/>
<path d="M0.535522 9.77039V17.9935L9.04598 26.2179H27.5249L27.5447 18.0938C27.5448 18.0384 27.5 17.9935 27.4447 17.9935H9.04598L0.535522 9.77039Z" fill="#F3F3F3" stroke="#1C2C65" stroke-width="0.7" stroke-miterlimit="10"/>
<path d="M9.04602 17.9935V26.2179" stroke="#1C2C65" stroke-width="0.7" stroke-miterlimit="10"/>
</svg>
