<svg width="49" height="57" viewBox="0 0 49 57" fill="none" xmlns="http://www.w3.org/2000/svg">
<path d="M4.68103 50.5766C7.67883 38.8606 16.1963 33.8044 24.129 37.0461C25.6561 37.6702 29.1311 39.4066 33.061 44.4719" fill="white"/>
<path d="M4.68103 50.5766C7.67883 38.8606 16.1963 33.8044 24.129 37.0461C25.6561 37.6702 29.1311 39.4066 33.061 44.4719" stroke="url(#paint0_linear_79_8765)" stroke-width="0.7" stroke-miterlimit="10"/>
<path d="M8.48999 52.4242C20.1031 42.2803 34.0718 40.4629 41.723 46.3749C43.1961 47.5131 46.3343 50.4056 47.7932 56.6435" stroke="url(#paint1_linear_79_8765)" stroke-width="0.7" stroke-miterlimit="10"/>
<path d="M8.66748 34.8951C20.2807 24.7512 34.2494 22.9338 41.9005 28.8459C43.3739 29.9841 46.512 32.8766 47.9705 39.1145" fill="white"/>
<path d="M8.66748 34.8951C20.2807 24.7512 34.2494 22.9338 41.9005 28.8459C43.3739 29.9841 46.512 32.8766 47.9705 39.1145" stroke="url(#paint2_linear_79_8765)" stroke-width="0.7" stroke-miterlimit="10"/>
<path d="M32.3074 24.8644C41.7724 13.9319 38.1836 3.84073 38.1836 3.84073L34.2206 2.17752C32.3113 1.37625 30.2551 0.981437 28.1839 1.01836C26.1127 1.05529 24.072 1.52314 22.1926 2.39195L18.291 4.19559C18.291 4.19559 15.0694 14.4085 24.92 24.9961C26.9285 27.155 30.3776 27.0934 32.3074 24.8644Z" fill="url(#paint3_linear_79_8765)" stroke="url(#paint4_linear_79_8765)" stroke-width="0.7" stroke-miterlimit="10"/>
<path d="M33.2373 24.8485C42.7023 13.9157 39.1135 3.82443 39.1135 3.82443L35.1504 2.16148C33.2411 1.36024 31.1849 0.965446 29.1137 1.00237C27.0425 1.0393 25.0018 1.50713 23.1224 2.37591L19.2208 4.17892C19.2208 4.17892 15.9992 14.3918 25.8498 24.9796C27.8584 27.1383 31.3075 27.0769 33.2373 24.8485Z" fill="white" stroke="url(#paint5_linear_79_8765)" stroke-width="0.7" stroke-miterlimit="10"/>
<path d="M36.8751 12.5843C36.8461 10.9623 35.5037 9.67101 33.8769 9.69994C32.2501 9.72887 30.955 11.0672 30.9837 12.6892" fill="white"/>
<path d="M36.8751 12.5843C36.8461 10.9623 35.5037 9.67101 33.8769 9.69994C32.2501 9.72887 30.955 11.0672 30.9837 12.6892" stroke="url(#paint6_linear_79_8765)" stroke-width="0.7" stroke-miterlimit="10"/>
<path d="M27.664 12.7485C27.6349 11.1265 26.2925 9.83519 24.6657 9.86425C23.0389 9.89331 21.7438 11.2316 21.7729 12.8532" fill="white"/>
<path d="M27.664 12.7485C27.6349 11.1265 26.2925 9.83519 24.6657 9.86425C23.0389 9.89331 21.7438 11.2316 21.7729 12.8532" stroke="url(#paint7_linear_79_8765)" stroke-width="0.7" stroke-miterlimit="10"/>
<path d="M24.4861 17.237C24.5289 19.9213 26.5018 22.0583 28.8929 22.0103C31.284 21.9622 33.1874 19.7472 33.1446 17.063L24.4861 17.237Z" fill="white" stroke="url(#paint8_linear_79_8765)" stroke-width="0.7" stroke-miterlimit="10"/>
<path d="M18.826 36.9837C24.477 24.5629 18.6816 16.1248 18.6816 16.1248L14.7141 15.5622C10.8494 15.0143 6.9677 16.1587 4.02331 18.7144L1.00047 21.3388C1.00047 21.3388 0.742653 31.5618 12.2596 38.9203C14.6082 40.42 17.6739 39.5162 18.826 36.9837Z" fill="url(#paint9_linear_79_8765)" stroke="url(#paint10_linear_79_8765)" stroke-width="0.7" stroke-miterlimit="10"/>
<path d="M19.6524 36.7401C25.3034 24.3192 19.508 15.8812 19.508 15.8812L15.5405 15.3186C11.6758 14.7706 7.79412 15.9151 4.84973 18.4707L1.82689 21.0951C1.82689 21.0951 1.56907 31.318 13.086 38.6766C15.4349 40.1764 18.5002 39.2725 19.6524 36.7401Z" fill="white" stroke="url(#paint11_linear_79_8765)" stroke-width="0.7" stroke-miterlimit="10"/>
<path d="M19.7561 24.521C19.3139 23.0303 17.7834 22.1673 16.3374 22.5937C14.8914 23.0201 14.0776 24.5742 14.5201 26.0649" fill="white"/>
<path d="M19.7561 24.521C19.3139 23.0303 17.7834 22.1673 16.3374 22.5937C14.8914 23.0201 14.0776 24.5742 14.5201 26.0649" stroke="url(#paint12_linear_79_8765)" stroke-width="0.7" stroke-miterlimit="10"/>
<path d="M11.5691 26.9352C11.1269 25.4444 9.59638 24.5815 8.15038 25.0079C6.70438 25.4343 5.8906 26.9883 6.33305 28.4791" fill="white"/>
<path d="M11.5691 26.9352C11.1269 25.4444 9.59638 24.5815 8.15038 25.0079C6.70438 25.4343 5.8906 26.9883 6.33305 28.4791" stroke="url(#paint13_linear_79_8765)" stroke-width="0.7" stroke-miterlimit="10"/>
<path d="M10.3612 32.4614C11.0007 34.6172 13.214 35.865 15.3051 35.2485C17.3962 34.6319 18.5727 32.3845 17.9333 30.2286L10.3612 32.4614Z" fill="white" stroke="url(#paint14_linear_79_8765)" stroke-width="0.7" stroke-miterlimit="10"/>
<path d="M26.0726 44.1024C15.8349 32.696 19.446 21.9348 19.446 21.9348L23.6138 20.0976C25.6219 19.2125 27.7932 18.7554 29.9887 18.7554C32.1842 18.7554 34.3556 19.2125 36.3636 20.0976L40.5324 21.9351C40.5324 21.9351 44.1403 32.696 33.9034 44.1024C31.8162 46.4276 28.1601 46.4276 26.0726 44.1024Z" fill="url(#paint15_linear_79_8765)" stroke="url(#paint16_linear_79_8765)" stroke-width="0.7" stroke-miterlimit="10"/>
<path d="M26.8717 44.1024C16.634 32.696 20.2449 21.9348 20.2449 21.9348L24.4127 20.0976C26.4208 19.2125 28.5921 18.7554 30.7876 18.7554C32.9831 18.7554 35.1545 19.2125 37.1625 20.0976L41.3313 21.9351C41.3313 21.9351 44.9394 32.696 34.7024 44.1024C32.6152 46.4276 28.9591 46.4276 26.8717 44.1024Z" fill="white" stroke="url(#paint17_linear_79_8765)" stroke-width="0.7" stroke-miterlimit="10"/>
<path d="M22.7834 31.1754C22.7834 29.456 24.1813 28.0623 25.9057 28.0623C27.63 28.0623 29.028 29.456 29.028 31.1754" fill="white"/>
<path d="M22.7834 31.1754C22.7834 29.456 24.1813 28.0623 25.9057 28.0623C27.63 28.0623 29.028 29.456 29.028 31.1754" stroke="url(#paint18_linear_79_8765)" stroke-width="0.7" stroke-miterlimit="10"/>
<path d="M32.5471 31.1754C32.5471 29.456 33.9451 28.0623 35.6695 28.0623C37.3938 28.0623 38.7917 29.456 38.7917 31.1754" fill="white"/>
<path d="M32.5471 31.1754C32.5471 29.456 33.9451 28.0623 35.6695 28.0623C37.3938 28.0623 38.7917 29.456 38.7917 31.1754" stroke="url(#paint19_linear_79_8765)" stroke-width="0.7" stroke-miterlimit="10"/>
<path d="M35.6703 36.6582C35.6703 39.1446 33.6487 41.1601 31.1551 41.1601C28.6615 41.1601 26.6398 39.1446 26.6398 36.6582H35.6703Z" fill="white" stroke="url(#paint20_linear_79_8765)" stroke-width="0.7" stroke-miterlimit="10"/>
<defs>
<linearGradient id="paint0_linear_79_8765" x1="18.871" y1="36.0837" x2="18.871" y2="50.5766" gradientUnits="userSpaceOnUse">
<stop stop-color="#4A73FE"/>
<stop offset="0.53125" stop-color="#44C3FD"/>
<stop offset="1" stop-color="#6FDFE7"/>
</linearGradient>
<linearGradient id="paint1_linear_79_8765" x1="28.1416" y1="43.0161" x2="28.1416" y2="56.6435" gradientUnits="userSpaceOnUse">
<stop stop-color="#4A73FE"/>
<stop offset="0.53125" stop-color="#44C3FD"/>
<stop offset="1" stop-color="#6FDFE7"/>
</linearGradient>
<linearGradient id="paint2_linear_79_8765" x1="28.319" y1="25.4871" x2="28.319" y2="39.1145" gradientUnits="userSpaceOnUse">
<stop stop-color="#4A73FE"/>
<stop offset="0.53125" stop-color="#44C3FD"/>
<stop offset="1" stop-color="#6FDFE7"/>
</linearGradient>
<linearGradient id="paint3_linear_79_8765" x1="28.3192" y1="1.01599" x2="28.3192" y2="26.5765" gradientUnits="userSpaceOnUse">
<stop stop-color="#4B76FF"/>
<stop offset="1" stop-color="#71E0E7"/>
</linearGradient>
<linearGradient id="paint4_linear_79_8765" x1="28.3192" y1="1.01599" x2="28.3192" y2="26.5765" gradientUnits="userSpaceOnUse">
<stop stop-color="#4A73FE"/>
<stop offset="0.53125" stop-color="#44C3FD"/>
<stop offset="1" stop-color="#6FDFE7"/>
</linearGradient>
<linearGradient id="paint5_linear_79_8765" x1="29.249" y1="1" x2="29.249" y2="26.56" gradientUnits="userSpaceOnUse">
<stop stop-color="#4A73FE"/>
<stop offset="0.53125" stop-color="#44C3FD"/>
<stop offset="1" stop-color="#6FDFE7"/>
</linearGradient>
<linearGradient id="paint6_linear_79_8765" x1="33.9292" y1="9.69946" x2="33.9292" y2="12.6892" gradientUnits="userSpaceOnUse">
<stop stop-color="#4A73FE"/>
<stop offset="0.53125" stop-color="#44C3FD"/>
<stop offset="1" stop-color="#6FDFE7"/>
</linearGradient>
<linearGradient id="paint7_linear_79_8765" x1="24.7182" y1="9.86377" x2="24.7182" y2="12.8532" gradientUnits="userSpaceOnUse">
<stop stop-color="#4A73FE"/>
<stop offset="0.53125" stop-color="#44C3FD"/>
<stop offset="1" stop-color="#6FDFE7"/>
</linearGradient>
<linearGradient id="paint8_linear_79_8765" x1="28.8157" y1="17.063" x2="28.8157" y2="22.0111" gradientUnits="userSpaceOnUse">
<stop stop-color="#4A73FE"/>
<stop offset="0.53125" stop-color="#44C3FD"/>
<stop offset="1" stop-color="#6FDFE7"/>
</linearGradient>
<linearGradient id="paint9_linear_79_8765" x1="11.1503" y1="15.428" x2="11.1503" y2="39.6477" gradientUnits="userSpaceOnUse">
<stop stop-color="#4A73FE"/>
<stop offset="0.53125" stop-color="#44C3FD"/>
<stop offset="1" stop-color="#6FDFE7"/>
</linearGradient>
<linearGradient id="paint10_linear_79_8765" x1="11.1503" y1="15.428" x2="11.1503" y2="39.6477" gradientUnits="userSpaceOnUse">
<stop stop-color="#4A73FE"/>
<stop offset="0.53125" stop-color="#44C3FD"/>
<stop offset="1" stop-color="#6FDFE7"/>
</linearGradient>
<linearGradient id="paint11_linear_79_8765" x1="11.9767" y1="15.1843" x2="11.9767" y2="39.404" gradientUnits="userSpaceOnUse">
<stop stop-color="#4A73FE"/>
<stop offset="0.53125" stop-color="#44C3FD"/>
<stop offset="1" stop-color="#6FDFE7"/>
</linearGradient>
<linearGradient id="paint12_linear_79_8765" x1="17.0778" y1="22.4847" x2="17.0778" y2="26.0649" gradientUnits="userSpaceOnUse">
<stop stop-color="#4A73FE"/>
<stop offset="0.53125" stop-color="#44C3FD"/>
<stop offset="1" stop-color="#6FDFE7"/>
</linearGradient>
<linearGradient id="paint13_linear_79_8765" x1="8.89079" y1="24.8989" x2="8.89079" y2="28.4791" gradientUnits="userSpaceOnUse">
<stop stop-color="#4A73FE"/>
<stop offset="0.53125" stop-color="#44C3FD"/>
<stop offset="1" stop-color="#6FDFE7"/>
</linearGradient>
<linearGradient id="paint14_linear_79_8765" x1="14.2343" y1="30.2286" x2="14.2343" y2="35.406" gradientUnits="userSpaceOnUse">
<stop stop-color="#4A73FE"/>
<stop offset="0.53125" stop-color="#44C3FD"/>
<stop offset="1" stop-color="#6FDFE7"/>
</linearGradient>
<linearGradient id="paint15_linear_79_8765" x1="29.9886" y1="18.7554" x2="29.9886" y2="45.8463" gradientUnits="userSpaceOnUse">
<stop stop-color="#4A73FE"/>
<stop offset="0.53125" stop-color="#44C3FD"/>
<stop offset="1" stop-color="#6FDFE7"/>
</linearGradient>
<linearGradient id="paint16_linear_79_8765" x1="29.9886" y1="18.7554" x2="29.9886" y2="45.8463" gradientUnits="userSpaceOnUse">
<stop stop-color="#4A73FE"/>
<stop offset="0.53125" stop-color="#44C3FD"/>
<stop offset="1" stop-color="#6FDFE7"/>
</linearGradient>
<linearGradient id="paint17_linear_79_8765" x1="30.7876" y1="18.7554" x2="30.7876" y2="45.8463" gradientUnits="userSpaceOnUse">
<stop stop-color="#4A73FE"/>
<stop offset="0.53125" stop-color="#44C3FD"/>
<stop offset="1" stop-color="#6FDFE7"/>
</linearGradient>
<linearGradient id="paint18_linear_79_8765" x1="25.9057" y1="28.0623" x2="25.9057" y2="31.1754" gradientUnits="userSpaceOnUse">
<stop stop-color="#4A73FE"/>
<stop offset="0.53125" stop-color="#44C3FD"/>
<stop offset="1" stop-color="#6FDFE7"/>
</linearGradient>
<linearGradient id="paint19_linear_79_8765" x1="35.6694" y1="28.0623" x2="35.6694" y2="31.1754" gradientUnits="userSpaceOnUse">
<stop stop-color="#4A73FE"/>
<stop offset="0.53125" stop-color="#44C3FD"/>
<stop offset="1" stop-color="#6FDFE7"/>
</linearGradient>
<linearGradient id="paint20_linear_79_8765" x1="31.155" y1="36.6582" x2="31.155" y2="41.1601" gradientUnits="userSpaceOnUse">
<stop stop-color="#4A73FE"/>
<stop offset="0.53125" stop-color="#44C3FD"/>
<stop offset="1" stop-color="#6FDFE7"/>
</linearGradient>
</defs>
</svg>
