<svg width="30" height="30" viewBox="0 0 30 30" fill="none" xmlns="http://www.w3.org/2000/svg">
<path d="M1.67127 11.4033L13.1713 1.18109C13.929 0.507516 15.071 0.507517 15.8287 1.18109L27.3287 11.4033C27.7557 11.7828 28 12.3269 28 12.8981V27C28 28.1046 27.1046 29 26 29H3C1.89543 29 1 28.1046 1 27V12.8981C1 12.3269 1.2443 11.7828 1.67127 11.4033Z" fill="#1C2C65"/>
<path d="M1.67127 11.4033L13.1713 1.18109C13.929 0.507516 15.071 0.507517 15.8287 1.18109L27.3287 11.4033C27.7557 11.7828 28 12.3269 28 12.8981V27C28 28.1046 27.1046 29 26 29H3C1.89543 29 1 28.1046 1 27V12.8981C1 12.3269 1.2443 11.7828 1.67127 11.4033Z" fill="black" fill-opacity="0.2"/>
<path d="M1.67127 11.4033L13.1713 1.18109C13.929 0.507516 15.071 0.507517 15.8287 1.18109L27.3287 11.4033C27.7557 11.7828 28 12.3269 28 12.8981V27C28 28.1046 27.1046 29 26 29H3C1.89543 29 1 28.1046 1 27V12.8981C1 12.3269 1.2443 11.7828 1.67127 11.4033Z" stroke="#1C2C65" stroke-width="0.7"/>
<path d="M2.67127 11.4033L14.1713 1.18109C14.929 0.507516 16.071 0.507517 16.8287 1.18109L28.3287 11.4033C28.7557 11.7828 29 12.3269 29 12.8981V27C29 28.1046 28.1046 29 27 29H4C2.89543 29 2 28.1046 2 27V12.8981C2 12.3269 2.2443 11.7828 2.67127 11.4033Z" fill="white"/>
<path d="M2.67127 11.4033L14.1713 1.18109C14.929 0.507516 16.071 0.507517 16.8287 1.18109L28.3287 11.4033C28.7557 11.7828 29 12.3269 29 12.8981V27C29 28.1046 28.1046 29 27 29H4C2.89543 29 2 28.1046 2 27V12.8981C2 12.3269 2.2443 11.7828 2.67127 11.4033Z" fill="white"/>
<path d="M2.67127 11.4033L14.1713 1.18109C14.929 0.507516 16.071 0.507517 16.8287 1.18109L28.3287 11.4033C28.7557 11.7828 29 12.3269 29 12.8981V27C29 28.1046 28.1046 29 27 29H4C2.89543 29 2 28.1046 2 27V12.8981C2 12.3269 2.2443 11.7828 2.67127 11.4033Z" stroke="#1C2C65" stroke-width="0.7"/>
<path d="M20 19C20.5523 19 21.0079 19.4503 20.9237 19.9961C20.855 20.4411 20.7404 20.8772 20.5813 21.2961C20.3049 22.0241 19.8998 22.6855 19.3891 23.2426C18.8784 23.7998 18.2721 24.2417 17.6048 24.5433C16.9375 24.8448 16.2223 25 15.5 25C14.7777 25 14.0625 24.8448 13.3952 24.5433C12.7279 24.2417 12.1216 23.7998 11.6109 23.2426C11.1002 22.6855 10.6951 22.0241 10.4187 21.2961C10.2596 20.8772 10.145 20.4411 10.0763 19.9961C9.99209 19.4503 10.4477 19 11 19H20Z" fill="white" stroke="#111111" stroke-width="0.7" stroke-miterlimit="10"/>
</svg>
