<svg width="44" height="31" viewBox="0 0 44 31" fill="none" xmlns="http://www.w3.org/2000/svg">
<path d="M23.3728 25.485C22.8038 16.7729 29.9897 9.51944 38.6207 10.0935C39.0695 10.1234 39.5126 10.1741 39.949 10.2447C41.0745 10.4268 42.0928 9.54431 42.0928 8.39377V2.51186C42.0928 1.67685 41.4223 1 40.595 1H3.1635C1.96867 1 1 1.97777 1 3.18384V27.0238C1 28.1887 1.93556 29.1331 3.08959 29.1331H21.3887C22.6924 29.1331 23.689 27.9631 23.4976 26.6615C23.4406 26.2741 23.3987 25.8817 23.3729 25.485H23.3728Z" fill="url(#paint0_linear_115_3730)" stroke="url(#paint1_linear_115_3730)" stroke-width="0.7" stroke-miterlimit="10"/>
<path d="M24.2681 26.0766C23.6991 17.3645 30.885 10.111 39.5159 10.6851C39.9647 10.715 40.4078 10.7656 40.8442 10.8363C41.9697 11.0184 42.9881 10.1359 42.9881 8.98533V3.10329C42.9881 2.26828 42.3175 1.59143 41.4903 1.59143H4.05876C2.86393 1.59143 1.89526 2.56921 1.89526 3.77527V27.6154C1.89526 28.7803 2.83082 29.7246 3.98485 29.7246H22.2839C23.5876 29.7246 24.5843 28.5546 24.3928 27.253C24.3358 26.8657 24.2939 26.4733 24.2681 26.0766Z" fill="white" stroke="url(#paint2_linear_115_3730)" stroke-width="0.7" stroke-miterlimit="10"/>
<path d="M33.8679 9.54199C35.5992 9.54199 37.0027 8.12531 37.0027 6.37775C37.0027 4.63018 35.5992 3.2135 33.8679 3.2135C32.1366 3.2135 30.7332 4.63018 30.7332 6.37775C30.7332 8.12531 32.1366 9.54199 33.8679 9.54199Z" fill="white" stroke="url(#paint3_linear_115_3730)" stroke-width="0.7" stroke-miterlimit="10"/>
<path d="M1.89526 18.4172L10.0375 6.52711C10.1791 6.3204 10.489 6.33013 10.6172 6.54514L16.7081 16.7633C17.1891 17.5703 18.3298 17.662 18.9354 16.9424L21.6535 13.7123C21.8346 13.4972 22.1707 13.5063 22.3395 13.731L25.8613 18.4172" fill="white"/>
<path d="M1.89526 18.4172L10.0375 6.52711C10.1791 6.3204 10.489 6.33013 10.6172 6.54514L16.7081 16.7633C17.1891 17.5703 18.3298 17.662 18.9354 16.9424L21.6535 13.7123C21.8346 13.4972 22.1707 13.5063 22.3395 13.731L25.8613 18.4172" stroke="url(#paint4_linear_115_3730)" stroke-width="0.7" stroke-miterlimit="10"/>
<path d="M41.5905 16.9803C41.5905 17.2474 41.5117 17.5084 41.3642 17.7302L33.6492 29.3224C33.4862 29.5671 33.0274 29.5894 32.8231 29.3623L28.0929 24.1044C27.8923 23.8815 27.7812 23.5911 27.7812 23.29V21.4688C27.7812 21.2535 28.0438 21.1511 28.187 21.3105L32.8231 26.4637C33.0274 26.6908 33.4862 26.6686 33.6492 26.4238L40.9505 15.4532C41.143 15.1638 41.5905 15.3015 41.5905 15.65V16.9804V16.9803Z" fill="url(#paint5_linear_115_3730)" stroke="url(#paint6_linear_115_3730)" stroke-width="0.7" stroke-miterlimit="10"/>
<path d="M28.0242 21.2328H28.6208V22.0978L28.0831 21.7662" fill="url(#paint7_linear_115_3730)"/>
<path d="M28.0242 21.2328H28.6208V22.0978L28.0831 21.7662" stroke="url(#paint8_linear_115_3730)" stroke-width="0.7" stroke-miterlimit="10"/>
<path d="M33.8769 29.5278L33.2803 29.5214L33.2894 28.6565L33.8235 28.9937" fill="url(#paint9_linear_115_3730)"/>
<path d="M33.8769 29.5278L33.2803 29.5214L33.2894 28.6565L33.8235 28.9937" stroke="url(#paint10_linear_115_3730)" stroke-width="0.7" stroke-miterlimit="10"/>
<path d="M42.2233 16.9803C42.2233 17.2474 42.1445 17.5084 41.997 17.7302L34.282 29.3224C34.119 29.5671 33.6602 29.5894 33.4559 29.3623L28.7257 24.1044C28.5251 23.8815 28.4141 23.5911 28.4141 23.29V21.4688C28.4141 21.2535 28.6766 21.1511 28.8199 21.3105L33.4559 26.4637C33.6602 26.6908 34.119 26.6686 34.282 26.4238L41.5833 15.4532C41.7758 15.1638 42.2233 15.3015 42.2233 15.65V16.9804V16.9803Z" fill="white" stroke="url(#paint11_linear_115_3730)" stroke-width="0.7" stroke-miterlimit="10"/>
<defs>
<linearGradient id="paint0_linear_115_3730" x1="21.5464" y1="1" x2="21.5464" y2="29.1331" gradientUnits="userSpaceOnUse">
<stop stop-color="#4C76FF"/>
<stop offset="1" stop-color="#6BDBE9"/>
</linearGradient>
<linearGradient id="paint1_linear_115_3730" x1="21.5464" y1="1" x2="21.5464" y2="29.1331" gradientUnits="userSpaceOnUse">
<stop stop-color="#4B76FE"/>
<stop offset="1" stop-color="#6BDDE8"/>
</linearGradient>
<linearGradient id="paint2_linear_115_3730" x1="22.4417" y1="1.59143" x2="22.4417" y2="29.7246" gradientUnits="userSpaceOnUse">
<stop stop-color="#4B76FE"/>
<stop offset="1" stop-color="#6BDDE8"/>
</linearGradient>
<linearGradient id="paint3_linear_115_3730" x1="33.8679" y1="3.2135" x2="33.8679" y2="9.54199" gradientUnits="userSpaceOnUse">
<stop stop-color="#4B76FE"/>
<stop offset="1" stop-color="#6BDDE8"/>
</linearGradient>
<linearGradient id="paint4_linear_115_3730" x1="13.8783" y1="6.37781" x2="13.8783" y2="18.4172" gradientUnits="userSpaceOnUse">
<stop stop-color="#4B76FE"/>
<stop offset="1" stop-color="#6BDDE8"/>
</linearGradient>
<linearGradient id="paint5_linear_115_3730" x1="34.6859" y1="15.2964" x2="34.6859" y2="29.52" gradientUnits="userSpaceOnUse">
<stop stop-color="#4C76FF"/>
<stop offset="1" stop-color="#6BDBE9"/>
</linearGradient>
<linearGradient id="paint6_linear_115_3730" x1="34.6859" y1="15.2964" x2="34.6859" y2="29.52" gradientUnits="userSpaceOnUse">
<stop stop-color="#4B76FE"/>
<stop offset="1" stop-color="#6BDDE8"/>
</linearGradient>
<linearGradient id="paint7_linear_115_3730" x1="28.3225" y1="21.2328" x2="28.3225" y2="22.0978" gradientUnits="userSpaceOnUse">
<stop stop-color="#4C76FF"/>
<stop offset="1" stop-color="#6BDBE9"/>
</linearGradient>
<linearGradient id="paint8_linear_115_3730" x1="28.3225" y1="21.2328" x2="28.3225" y2="22.0978" gradientUnits="userSpaceOnUse">
<stop stop-color="#4B76FE"/>
<stop offset="1" stop-color="#6BDDE8"/>
</linearGradient>
<linearGradient id="paint9_linear_115_3730" x1="33.5786" y1="28.6565" x2="33.5786" y2="29.5278" gradientUnits="userSpaceOnUse">
<stop stop-color="#4C76FF"/>
<stop offset="1" stop-color="#6BDBE9"/>
</linearGradient>
<linearGradient id="paint10_linear_115_3730" x1="33.5786" y1="28.6565" x2="33.5786" y2="29.5278" gradientUnits="userSpaceOnUse">
<stop stop-color="#4B76FE"/>
<stop offset="1" stop-color="#6BDDE8"/>
</linearGradient>
<linearGradient id="paint11_linear_115_3730" x1="35.3187" y1="15.2964" x2="35.3187" y2="29.52" gradientUnits="userSpaceOnUse">
<stop stop-color="#4B76FE"/>
<stop offset="1" stop-color="#6BDDE8"/>
</linearGradient>
</defs>
</svg>
