<svg width="40" height="28" viewBox="0 0 40 28" fill="none" xmlns="http://www.w3.org/2000/svg">
<path d="M21.2475 23.1583C20.7327 15.2762 27.2341 8.71369 35.0428 9.23309C35.4488 9.26011 35.8497 9.30595 36.2446 9.36987C37.2628 9.53463 38.1841 8.73619 38.1841 7.69526V2.37369C38.1841 1.61823 37.5775 1.00586 36.829 1.00586H2.96344C1.88243 1.00586 1.00604 1.89049 1.00604 2.98166V24.5505C1.00604 25.6045 1.85247 26.4588 2.89657 26.4588H19.4524C20.6319 26.4588 21.5336 25.4003 21.3604 24.2227C21.3088 23.8722 21.271 23.5172 21.2476 23.1583H21.2475Z" fill="#1C2C65" stroke="#1C2C65" stroke-width="0.7" stroke-miterlimit="10"/>
<path d="M22.0574 23.6935C21.5426 15.8113 28.044 9.24885 35.8527 9.76824C36.2588 9.79527 36.6596 9.8411 37.0545 9.90503C38.0728 10.0698 38.9941 9.27135 38.9941 8.23041V2.90873C38.9941 2.15326 38.3874 1.54089 37.639 1.54089H3.77337C2.69237 1.54089 1.81598 2.42552 1.81598 3.51669V25.0857C1.81598 26.1396 2.66241 26.994 3.7065 26.994H20.2623C21.4418 26.994 22.3436 25.9354 22.1703 24.7579C22.1188 24.4074 22.0808 24.0524 22.0574 23.6935Z" fill="#F3F3F3" stroke="#1C2C65" stroke-width="0.7" stroke-miterlimit="10"/>
<path d="M30.7428 8.73415C32.3091 8.73415 33.5789 7.45243 33.5789 5.87135C33.5789 4.29027 32.3091 3.00854 30.7428 3.00854C29.1764 3.00854 27.9066 4.29027 27.9066 5.87135C27.9066 7.45243 29.1764 8.73415 30.7428 8.73415Z" fill="#F3F3F3" stroke="#1C2C65" stroke-width="0.7" stroke-miterlimit="10"/>
<path d="M1.81598 16.7638L9.18253 6.00642C9.31061 5.8194 9.59107 5.82821 9.707 6.02273L15.2177 15.2674C15.6529 15.9975 16.6848 16.0805 17.2328 15.4295L19.692 12.5071C19.8558 12.3125 20.1598 12.3207 20.3126 12.524L23.4989 16.7638" fill="#F3F3F3"/>
<path d="M1.81598 16.7638L9.18253 6.00642C9.31061 5.8194 9.59107 5.82821 9.707 6.02273L15.2177 15.2674C15.6529 15.9975 16.6848 16.0805 17.2328 15.4295L19.692 12.5071C19.8558 12.3125 20.1598 12.3207 20.3126 12.524L23.4989 16.7638" stroke="#1C2C65" stroke-width="0.7" stroke-miterlimit="10"/>
<path d="M37.7297 15.4638C37.7297 15.7055 37.6583 15.9416 37.525 16.1422L30.5449 26.6301C30.3975 26.8516 29.9823 26.8717 29.7975 26.6662L25.5179 21.9093C25.3364 21.7076 25.236 21.4449 25.236 21.1724V19.5247C25.236 19.3299 25.4735 19.2373 25.6031 19.3815L29.7975 24.0438C29.9823 24.2492 30.3975 24.2291 30.5449 24.0077L37.1506 14.0821C37.3248 13.8204 37.7297 13.9449 37.7297 14.2602V15.4639V15.4638Z" fill="#1C2C65" stroke="#1C2C65" stroke-width="0.7" stroke-miterlimit="10"/>
<path d="M25.4557 19.3112H25.9955V20.0938L25.509 19.7938" fill="#1C2C65"/>
<path d="M25.4557 19.3112H25.9955V20.0938L25.509 19.7938" stroke="#1C2C65" stroke-width="0.7" stroke-miterlimit="10"/>
<path d="M37.4292 13.9401H37.9689V14.7227L37.4825 14.4227" fill="#1C2C65"/>
<path d="M37.4292 13.9401H37.9689V14.7227L37.4825 14.4227" stroke="#1C2C65" stroke-width="0.7" stroke-miterlimit="10"/>
<path d="M30.7508 26.816L30.211 26.8102L30.2193 26.0277L30.7024 26.3328" fill="#1C2C65"/>
<path d="M30.7508 26.816L30.211 26.8102L30.2193 26.0277L30.7024 26.3328" stroke="#1C2C65" stroke-width="0.7" stroke-miterlimit="10"/>
<path d="M38.3021 15.4638C38.3021 15.7055 38.2307 15.9416 38.0973 16.1422L31.1173 26.6301C30.9698 26.8516 30.5547 26.8717 30.3699 26.6662L26.0903 21.9093C25.9088 21.7076 25.8083 21.4449 25.8083 21.1724V19.5247C25.8083 19.3299 26.0459 19.2373 26.1755 19.3815L30.3699 24.0438C30.5547 24.2492 30.9698 24.2291 31.1173 24.0077L37.723 14.0821C37.8972 13.8204 38.3021 13.9449 38.3021 14.2602V15.4639V15.4638Z" fill="#F3F3F3" stroke="#1C2C65" stroke-width="0.7" stroke-miterlimit="10"/>
</svg>
