<svg width="40" height="36" viewBox="0 0 40 36" fill="none" xmlns="http://www.w3.org/2000/svg">
<path d="M38.9428 14.2602L24.7062 2.08716C24.6961 2.07856 24.6747 2.08306 24.6747 2.09372V12.412L38.9113 24.585C38.9346 24.6049 38.9846 24.5945 38.9846 24.5697V14.3405C38.9846 14.3116 38.9699 14.2835 38.9428 14.2603V14.2602Z" fill="#F3F3F3" stroke="#1C2C65" stroke-miterlimit="10"/>
<path d="M14.5143 14.3062H38.9778C38.9816 14.3062 38.9847 14.3092 38.9847 14.313V24.6476H14.5171C14.5155 24.6476 14.5143 24.6464 14.5143 24.6449V14.3063V14.3062Z" fill="#F3F3F3" stroke="#1C2C65" stroke-miterlimit="10"/>
<path d="M14.5143 24.6433H38.9778C38.9816 24.6433 38.9847 24.6464 38.9847 24.6502V34.9848H14.5171C14.5155 34.9848 14.5143 34.9836 14.5143 34.982V24.6434V24.6433Z" fill="#F3F3F3" stroke="#1C2C65" stroke-miterlimit="10"/>
<path d="M14.5143 34.9425H38.9346C38.9622 34.9425 38.9847 34.9623 38.9847 34.9867" fill="#F3F3F3"/>
<path d="M14.5143 34.9425H38.9346C38.9622 34.9425 38.9847 34.9623 38.9847 34.9867" stroke="#1C2C65" stroke-miterlimit="10"/>
<path d="M24.6747 2.08264H1.02118V12.424H24.6747V2.08264Z" stroke="#1C2C65" stroke-miterlimit="10"/>
<path d="M14.4789 24.6156L1.02508 12.4276C1.02262 12.4253 1.02118 12.4226 1.02118 12.4198V2.12267C1.02118 2.10997 1.04531 2.10465 1.0566 2.11489L8.98957 9.30127L14.5105 14.3027C14.513 14.305 14.5144 14.3078 14.5144 14.3105V24.6077C14.5144 24.6204 14.4903 24.6257 14.479 24.6155L14.4789 24.6156Z" fill="#F3F3F3" stroke="#1C2C65" stroke-miterlimit="10"/>
<path d="M14.4789 34.9372L1.02508 22.7492C1.02262 22.747 1.02118 22.7442 1.02118 22.7415V12.4443C1.02118 12.4316 1.04531 12.4263 1.0566 12.4365L8.98957 19.623L14.5105 24.6245C14.513 24.6268 14.5144 24.6295 14.5144 24.6323V34.9294C14.5144 34.9421 14.4903 34.9475 14.479 34.9372H14.4789Z" fill="#F3F3F3" stroke="#1C2C65" stroke-miterlimit="10"/>
<path d="M1.01538 22.7856C1.01538 22.7729 1.03951 22.7676 1.0508 22.7779L8.98377 29.9643L14.5047 34.9658C14.5072 34.9681 14.5086 34.9708 14.5086 34.9736" fill="#F3F3F3"/>
<path d="M1.01538 22.7856C1.01538 22.7729 1.03951 22.7676 1.0508 22.7779L8.98377 29.9643L14.5047 34.9658C14.5072 34.9681 14.5086 34.9708 14.5086 34.9736" stroke="#1C2C65" stroke-miterlimit="10"/>
<path d="M38.8269 14.1614L24.6938 2.11004C24.6815 2.09959 24.6651 2.09375 24.6481 2.09375L1.17628 2.12243C1.11837 2.12243 1.089 2.18389 1.12946 2.22045L14.495 14.2931C14.5074 14.3042 14.5244 14.3105 14.5421 14.3105L38.7815 14.2605C38.8403 14.2604 38.8691 14.1973 38.8269 14.1614Z" fill="#F3F3F3" stroke="#1C2C65" stroke-miterlimit="10"/>
<path d="M35.451 10.6987C35.451 11.0158 34.8949 11.2927 34.0651 11.4437C33.6435 11.5207 33.1512 11.5644 32.6248 11.5644C32.0983 11.5644 31.6066 11.5206 31.1851 11.4437C30.3553 11.2932 29.7991 11.0158 29.7991 10.6987C29.7991 10.221 31.0643 9.8335 32.6248 9.8335C34.1852 9.8335 35.451 10.2211 35.451 10.6987Z" fill="#F3F3F3" stroke="#1C2C65" stroke-width="0.7" stroke-miterlimit="10"/>
<path d="M35.451 10.6987V12.1887C35.451 12.6668 34.1858 13.0544 32.6248 13.0544C31.0637 13.0544 29.7991 12.6668 29.7991 12.1887V10.6987C29.7991 11.0158 30.3553 11.2932 31.1851 11.4437C31.6066 11.5207 32.099 11.5645 32.6248 11.5645C33.1505 11.5645 33.6436 11.5206 34.0651 11.4437C34.8949 11.2927 35.451 11.0158 35.451 10.6987V10.6987Z" stroke="#1C2C65" stroke-width="0.7" stroke-miterlimit="10"/>
<path d="M21.1134 10.578C21.1134 10.8951 20.5572 11.172 19.7274 11.3229C19.3058 11.4 18.8135 11.4437 18.2871 11.4437C17.7607 11.4437 17.269 11.4 16.8474 11.3229C16.0176 11.1725 15.4614 10.8951 15.4614 10.578C15.4614 10.1003 16.7267 9.71277 18.2871 9.71277C19.8475 9.71277 21.1134 10.1004 21.1134 10.578Z" stroke="#1C2C65" stroke-width="0.7" stroke-miterlimit="10"/>
<path d="M21.1134 10.578V12.0679C21.1134 12.5461 19.8482 12.9337 18.2871 12.9337C16.7261 12.9337 15.4614 12.5461 15.4614 12.0679V10.578C15.4614 10.8951 16.0176 11.1725 16.8474 11.323C17.269 11.4 17.7613 11.4437 18.2871 11.4437C18.8129 11.4437 19.3059 11.4 19.7274 11.323C20.5572 11.172 21.1134 10.8951 21.1134 10.578V10.578Z" stroke="#1C2C65" stroke-width="0.7" stroke-miterlimit="10"/>
<path d="M15.4615 6.38767C15.4615 6.70479 14.9047 6.98217 14.0749 7.13264C13.6533 7.20915 13.1616 7.2534 12.6358 7.2534C12.11 7.2534 11.6177 7.20905 11.1961 7.13264C10.3657 6.98217 9.80951 6.70479 9.80951 6.38767C9.80951 5.90954 11.0748 5.52246 12.6358 5.52246C14.1969 5.52246 15.4615 5.90954 15.4615 6.38767Z" stroke="#1C2C65" stroke-width="0.7" stroke-miterlimit="10"/>
<path d="M15.4615 6.3877V7.87762C15.4615 8.35576 14.1962 8.74334 12.6358 8.74334C11.0754 8.74334 9.80951 8.35576 9.80951 7.87762V6.3877C9.80951 6.70481 10.3657 6.98219 11.1961 7.13266C11.6177 7.20917 12.11 7.25342 12.6358 7.25342C13.1616 7.25342 13.6533 7.20907 14.0749 7.13266C14.9047 6.98219 15.4615 6.70481 15.4615 6.3877Z" stroke="#1C2C65" stroke-width="0.7" stroke-miterlimit="10"/>
<path d="M9.80938 1.88111C9.80938 2.19822 9.25381 2.47509 8.424 2.62607C8.00243 2.70309 7.51011 2.74683 6.9837 2.74683C6.45729 2.74683 5.96549 2.70299 5.54401 2.62607C4.7142 2.47509 4.15802 2.19822 4.15802 1.88111C4.15802 1.40297 5.42327 1.01538 6.9837 1.01538C8.54413 1.01538 9.80938 1.40297 9.80938 1.88111Z" fill="#F3F3F3" stroke="#1C2C65" stroke-width="0.7" stroke-miterlimit="10"/>
<path d="M9.80938 1.8811V3.37103C9.80938 3.84875 8.54475 4.23634 6.9837 4.23634C5.42265 4.23634 4.15802 3.84875 4.15802 3.37103V1.8811C4.15802 2.19822 4.7142 2.47509 5.54401 2.62607C5.96559 2.70309 6.45791 2.74683 6.9837 2.74683C7.50949 2.74683 8.00253 2.70299 8.424 2.62607C9.25381 2.47509 9.80938 2.19822 9.80938 1.8811Z" stroke="#1C2C65" stroke-width="0.7" stroke-miterlimit="10"/>
<path d="M29.7991 6.2668C29.7991 6.58392 29.2423 6.8613 28.4125 7.01177C27.9909 7.08828 27.4992 7.13253 26.9734 7.13253C26.4476 7.13253 25.9552 7.08828 25.5337 7.01177C24.7033 6.8613 24.1471 6.58392 24.1471 6.2668C24.1471 5.78908 25.4123 5.40149 26.9734 5.40149C28.5344 5.40149 29.7991 5.78908 29.7991 6.2668Z" fill="#F3F3F3" stroke="#1C2C65" stroke-width="0.7" stroke-miterlimit="10"/>
<path d="M29.7991 6.26685V7.75677C29.7991 8.23491 28.5338 8.6225 26.9734 8.6225C25.413 8.6225 24.1471 8.23491 24.1471 7.75677V6.26685C24.1471 6.58396 24.7033 6.86134 25.5337 7.01181C25.9553 7.08832 26.4476 7.13257 26.9734 7.13257C27.4992 7.13257 27.9909 7.08832 28.4125 7.01181C29.2423 6.86134 29.7991 6.58396 29.7991 6.26685Z" stroke="#1C2C65" stroke-width="0.7" stroke-miterlimit="10"/>
<path d="M24.147 1.88111C24.147 2.19822 23.5908 2.47509 22.761 2.62607C22.3395 2.70309 21.8471 2.74683 21.3213 2.74683C20.7956 2.74683 20.3032 2.70299 19.8817 2.62607C19.0518 2.47509 18.4957 2.19822 18.4957 1.88111C18.4957 1.40297 19.7609 1.01538 21.3213 1.01538C22.8818 1.01538 24.147 1.40297 24.147 1.88111Z" fill="#F3F3F3" stroke="#1C2C65" stroke-width="0.7" stroke-miterlimit="10"/>
<path d="M24.147 1.8811V3.37103C24.147 3.84875 22.8818 4.23634 21.3213 4.23634C19.7609 4.23634 18.4957 3.84875 18.4957 3.37103V1.8811C18.4957 2.19822 19.0518 2.47509 19.8817 2.62607C20.3032 2.70309 20.7956 2.74683 21.3213 2.74683C21.8471 2.74683 22.3395 2.70299 22.761 2.62607C23.5908 2.47509 24.147 2.19822 24.147 1.8811V1.8811Z" stroke="#1C2C65" stroke-width="0.7" stroke-miterlimit="10"/>
</svg>
