<svg width="40" height="36" viewBox="0 0 40 36" fill="none" xmlns="http://www.w3.org/2000/svg">
<path d="M38.9427 14.2602L24.7061 2.08716C24.696 2.07856 24.6746 2.08306 24.6746 2.09372V12.412L38.9112 24.585C38.9345 24.6049 38.9845 24.5945 38.9845 24.5697V14.3405C38.9845 14.3116 38.9698 14.2835 38.9427 14.2603V14.2602Z" fill="white" stroke="url(#paint0_linear_384_2589)" stroke-miterlimit="10"/>
<path d="M14.5144 14.3062H38.9779C38.9817 14.3062 38.9848 14.3092 38.9848 14.313V24.6476H14.5172C14.5156 24.6476 14.5144 24.6464 14.5144 24.6449V14.3063V14.3062Z" fill="white" stroke="url(#paint1_linear_384_2589)" stroke-miterlimit="10"/>
<path d="M14.5144 24.6433H38.9779C38.9817 24.6433 38.9848 24.6464 38.9848 24.6502V34.9848H14.5172C14.5156 34.9848 14.5144 34.9836 14.5144 34.982V24.6434V24.6433Z" fill="white" stroke="url(#paint2_linear_384_2589)" stroke-miterlimit="10"/>
<path d="M14.5144 34.9425H38.9347C38.9623 34.9425 38.9848 34.9623 38.9848 34.9867" fill="white"/>
<path d="M14.5144 34.9425H38.9347C38.9623 34.9425 38.9848 34.9623 38.9848 34.9867" stroke="url(#paint3_linear_384_2589)" stroke-miterlimit="10"/>
<path d="M24.6748 2.08264H1.02124V12.424H24.6748V2.08264Z" stroke="url(#paint4_linear_384_2589)" stroke-miterlimit="10"/>
<path d="M14.479 24.6156L1.02514 12.4276C1.02268 12.4253 1.02124 12.4226 1.02124 12.4198V2.12267C1.02124 2.10997 1.04537 2.10465 1.05666 2.11489L8.98963 9.30127L14.5106 14.3027C14.5131 14.305 14.5145 14.3078 14.5145 14.3105V24.6077C14.5145 24.6204 14.4904 24.6257 14.4791 24.6155L14.479 24.6156Z" fill="white" stroke="url(#paint5_linear_384_2589)" stroke-miterlimit="10"/>
<path d="M14.479 34.9372L1.02514 22.7492C1.02268 22.747 1.02124 22.7442 1.02124 22.7415V12.4443C1.02124 12.4316 1.04537 12.4263 1.05666 12.4365L8.98963 19.623L14.5106 24.6245C14.5131 24.6268 14.5145 24.6295 14.5145 24.6323V34.9294C14.5145 34.9421 14.4904 34.9475 14.4791 34.9372H14.479Z" fill="white" stroke="url(#paint6_linear_384_2589)" stroke-miterlimit="10"/>
<path d="M1.01538 22.7856C1.01538 22.7729 1.03951 22.7676 1.0508 22.7779L8.98377 29.9643L14.5047 34.9658C14.5072 34.9681 14.5086 34.9708 14.5086 34.9736" fill="white"/>
<path d="M1.01538 22.7856C1.01538 22.7729 1.03951 22.7676 1.0508 22.7779L8.98377 29.9643L14.5047 34.9658C14.5072 34.9681 14.5086 34.9708 14.5086 34.9736" stroke="url(#paint7_linear_384_2589)" stroke-miterlimit="10"/>
<path d="M38.827 14.1614L24.6939 2.11004C24.6817 2.09959 24.6652 2.09375 24.6482 2.09375L1.1764 2.12243C1.11849 2.12243 1.08913 2.18389 1.12958 2.22045L14.4951 14.2931C14.5075 14.3042 14.5245 14.3105 14.5422 14.3105L38.7816 14.2605C38.8404 14.2604 38.8692 14.1973 38.827 14.1614Z" fill="white" stroke="url(#paint8_linear_384_2589)" stroke-miterlimit="10"/>
<path d="M35.451 10.6987C35.451 11.0158 34.8949 11.2927 34.0651 11.4437C33.6435 11.5207 33.1512 11.5644 32.6248 11.5644C32.0983 11.5644 31.6066 11.5206 31.1851 11.4437C30.3553 11.2932 29.7991 11.0158 29.7991 10.6987C29.7991 10.221 31.0643 9.8335 32.6248 9.8335C34.1852 9.8335 35.451 10.2211 35.451 10.6987V10.6987Z" fill="white" stroke="url(#paint9_linear_384_2589)" stroke-width="0.7" stroke-miterlimit="10"/>
<path d="M35.451 10.6987V12.1887C35.451 12.6668 34.1858 13.0544 32.6248 13.0544C31.0637 13.0544 29.7991 12.6668 29.7991 12.1887V10.6987C29.7991 11.0158 30.3553 11.2932 31.1851 11.4437C31.6066 11.5207 32.099 11.5645 32.6248 11.5645C33.1505 11.5645 33.6436 11.5206 34.0651 11.4437C34.8949 11.2927 35.451 11.0158 35.451 10.6987V10.6987Z" stroke="url(#paint10_linear_384_2589)" stroke-width="0.7" stroke-miterlimit="10"/>
<path d="M21.1134 10.578C21.1134 10.8951 20.5572 11.172 19.7274 11.3229C19.3058 11.4 18.8135 11.4437 18.2871 11.4437C17.7607 11.4437 17.269 11.4 16.8474 11.3229C16.0176 11.1725 15.4614 10.8951 15.4614 10.578C15.4614 10.1003 16.7267 9.71277 18.2871 9.71277C19.8475 9.71277 21.1134 10.1004 21.1134 10.578Z" stroke="url(#paint11_linear_384_2589)" stroke-width="0.7" stroke-miterlimit="10"/>
<path d="M21.1134 10.578V12.0679C21.1134 12.5461 19.8482 12.9337 18.2871 12.9337C16.7261 12.9337 15.4614 12.5461 15.4614 12.0679V10.578C15.4614 10.8951 16.0176 11.1725 16.8474 11.323C17.269 11.4 17.7613 11.4437 18.2871 11.4437C18.8129 11.4437 19.3059 11.4 19.7274 11.323C20.5572 11.172 21.1134 10.8951 21.1134 10.578V10.578Z" stroke="url(#paint12_linear_384_2589)" stroke-width="0.7" stroke-miterlimit="10"/>
<path d="M15.4613 6.38767C15.4613 6.70479 14.9045 6.98217 14.0747 7.13264C13.6531 7.20915 13.1614 7.2534 12.6356 7.2534C12.1098 7.2534 11.6175 7.20905 11.1959 7.13264C10.3655 6.98217 9.80933 6.70479 9.80933 6.38767C9.80933 5.90954 11.0746 5.52246 12.6356 5.52246C14.1967 5.52246 15.4613 5.90954 15.4613 6.38767Z" stroke="url(#paint13_linear_384_2589)" stroke-width="0.7" stroke-miterlimit="10"/>
<path d="M15.4613 6.3877V7.87762C15.4613 8.35576 14.1961 8.74334 12.6356 8.74334C11.0752 8.74334 9.80933 8.35576 9.80933 7.87762V6.3877C9.80933 6.70481 10.3655 6.98219 11.1959 7.13266C11.6175 7.20917 12.1098 7.25342 12.6356 7.25342C13.1614 7.25342 13.6531 7.20907 14.0747 7.13266C14.9045 6.98219 15.4613 6.70481 15.4613 6.3877Z" stroke="url(#paint14_linear_384_2589)" stroke-width="0.7" stroke-miterlimit="10"/>
<path d="M9.80932 1.88111C9.80932 2.19822 9.25375 2.47509 8.42394 2.62607C8.00237 2.70309 7.51005 2.74683 6.98364 2.74683C6.45723 2.74683 5.96542 2.70299 5.54395 2.62607C4.71414 2.47509 4.15796 2.19822 4.15796 1.88111C4.15796 1.40297 5.42321 1.01538 6.98364 1.01538C8.54407 1.01538 9.80932 1.40297 9.80932 1.88111Z" fill="white" stroke="url(#paint15_linear_384_2589)" stroke-width="0.7" stroke-miterlimit="10"/>
<path d="M9.80932 1.8811V3.37103C9.80932 3.84875 8.54469 4.23634 6.98364 4.23634C5.42259 4.23634 4.15796 3.84875 4.15796 3.37103V1.8811C4.15796 2.19822 4.71414 2.47509 5.54395 2.62607C5.96553 2.70309 6.45785 2.74683 6.98364 2.74683C7.50943 2.74683 8.00247 2.70299 8.42394 2.62607C9.25375 2.47509 9.80932 2.19822 9.80932 1.8811Z" stroke="url(#paint16_linear_384_2589)" stroke-width="0.7" stroke-miterlimit="10"/>
<path d="M29.7989 6.2668C29.7989 6.58392 29.2421 6.8613 28.4123 7.01177C27.9908 7.08828 27.4991 7.13253 26.9733 7.13253C26.4475 7.13253 25.9551 7.08828 25.5336 7.01177C24.7032 6.8613 24.147 6.58392 24.147 6.2668C24.147 5.78908 25.4122 5.40149 26.9733 5.40149C28.5343 5.40149 29.7989 5.78908 29.7989 6.2668Z" fill="white" stroke="url(#paint17_linear_384_2589)" stroke-width="0.7" stroke-miterlimit="10"/>
<path d="M29.7989 6.26685V7.75677C29.7989 8.23491 28.5337 8.6225 26.9733 8.6225C25.4128 8.6225 24.147 8.23491 24.147 7.75677V6.26685C24.147 6.58396 24.7032 6.86134 25.5336 7.01181C25.9552 7.08832 26.4475 7.13257 26.9733 7.13257C27.4991 7.13257 27.9908 7.08832 28.4123 7.01181C29.2421 6.86134 29.7989 6.58396 29.7989 6.26685Z" stroke="url(#paint18_linear_384_2589)" stroke-width="0.7" stroke-miterlimit="10"/>
<path d="M24.147 1.88111C24.147 2.19822 23.5908 2.47509 22.761 2.62607C22.3394 2.70309 21.8471 2.74683 21.3213 2.74683C20.7955 2.74683 20.3032 2.70299 19.8816 2.62607C19.0518 2.47509 18.4956 2.19822 18.4956 1.88111C18.4956 1.40297 19.7609 1.01538 21.3213 1.01538C22.8817 1.01538 24.147 1.40297 24.147 1.88111V1.88111Z" fill="white" stroke="url(#paint19_linear_384_2589)" stroke-width="0.7" stroke-miterlimit="10"/>
<path d="M24.147 1.8811V3.37103C24.147 3.84875 22.8817 4.23634 21.3213 4.23634C19.7609 4.23634 18.4956 3.84875 18.4956 3.37103V1.8811C18.4956 2.19822 19.0518 2.47509 19.8816 2.62607C20.3032 2.70309 20.7955 2.74683 21.3213 2.74683C21.8471 2.74683 22.3394 2.70299 22.761 2.62607C23.5908 2.47509 24.147 2.19822 24.147 1.8811V1.8811Z" stroke="url(#paint20_linear_384_2589)" stroke-width="0.7" stroke-miterlimit="10"/>
<defs>
<linearGradient id="paint0_linear_384_2589" x1="31.8295" y1="2.08264" x2="31.8295" y2="24.5955" gradientUnits="userSpaceOnUse">
<stop stop-color="#4A73FE"/>
<stop offset="1" stop-color="#6CDDE9"/>
</linearGradient>
<linearGradient id="paint1_linear_384_2589" x1="26.7496" y1="14.3062" x2="26.7496" y2="24.6476" gradientUnits="userSpaceOnUse">
<stop stop-color="#4A73FE"/>
<stop offset="1" stop-color="#6CDDE9"/>
</linearGradient>
<linearGradient id="paint2_linear_384_2589" x1="26.7496" y1="24.6433" x2="26.7496" y2="34.9848" gradientUnits="userSpaceOnUse">
<stop stop-color="#4A73FE"/>
<stop offset="1" stop-color="#6CDDE9"/>
</linearGradient>
<linearGradient id="paint3_linear_384_2589" x1="26.7496" y1="34.9425" x2="26.7496" y2="34.9867" gradientUnits="userSpaceOnUse">
<stop stop-color="#4A73FE"/>
<stop offset="1" stop-color="#6CDDE9"/>
</linearGradient>
<linearGradient id="paint4_linear_384_2589" x1="12.848" y1="2.08264" x2="12.848" y2="12.424" gradientUnits="userSpaceOnUse">
<stop stop-color="#4A73FE"/>
<stop offset="1" stop-color="#6CDDE9"/>
</linearGradient>
<linearGradient id="paint5_linear_384_2589" x1="7.76787" y1="2.1095" x2="7.76787" y2="24.6208" gradientUnits="userSpaceOnUse">
<stop stop-color="#4A73FE"/>
<stop offset="1" stop-color="#6CDDE9"/>
</linearGradient>
<linearGradient id="paint6_linear_384_2589" x1="7.76787" y1="12.4312" x2="7.76787" y2="34.9426" gradientUnits="userSpaceOnUse">
<stop stop-color="#4A73FE"/>
<stop offset="1" stop-color="#6CDDE9"/>
</linearGradient>
<linearGradient id="paint7_linear_384_2589" x1="7.76201" y1="22.7725" x2="7.76201" y2="34.9736" gradientUnits="userSpaceOnUse">
<stop stop-color="#4A73FE"/>
<stop offset="1" stop-color="#6CDDE9"/>
</linearGradient>
<linearGradient id="paint8_linear_384_2589" x1="19.979" y1="2.09375" x2="19.979" y2="14.3105" gradientUnits="userSpaceOnUse">
<stop stop-color="#4A73FE"/>
<stop offset="1" stop-color="#6CDDE9"/>
</linearGradient>
<linearGradient id="paint9_linear_384_2589" x1="32.6251" y1="9.8335" x2="32.6251" y2="11.5644" gradientUnits="userSpaceOnUse">
<stop stop-color="#4A73FE"/>
<stop offset="1" stop-color="#70E0E6"/>
</linearGradient>
<linearGradient id="paint10_linear_384_2589" x1="32.6251" y1="10.6987" x2="32.6251" y2="13.0544" gradientUnits="userSpaceOnUse">
<stop stop-color="#4A74FE"/>
<stop offset="1" stop-color="#6FDFE7"/>
</linearGradient>
<linearGradient id="paint11_linear_384_2589" x1="18.2874" y1="9.71277" x2="18.2874" y2="11.4437" gradientUnits="userSpaceOnUse">
<stop stop-color="#4A73FE"/>
<stop offset="1" stop-color="#70E0E6"/>
</linearGradient>
<linearGradient id="paint12_linear_384_2589" x1="18.2874" y1="10.578" x2="18.2874" y2="12.9337" gradientUnits="userSpaceOnUse">
<stop stop-color="#4A74FE"/>
<stop offset="1" stop-color="#6FDFE7"/>
</linearGradient>
<linearGradient id="paint13_linear_384_2589" x1="12.6353" y1="5.52246" x2="12.6353" y2="7.2534" gradientUnits="userSpaceOnUse">
<stop stop-color="#4A73FE"/>
<stop offset="1" stop-color="#70E0E6"/>
</linearGradient>
<linearGradient id="paint14_linear_384_2589" x1="12.6353" y1="6.3877" x2="12.6353" y2="8.74334" gradientUnits="userSpaceOnUse">
<stop stop-color="#4A74FE"/>
<stop offset="1" stop-color="#6FDFE7"/>
</linearGradient>
<linearGradient id="paint15_linear_384_2589" x1="6.98364" y1="1.01538" x2="6.98364" y2="2.74683" gradientUnits="userSpaceOnUse">
<stop stop-color="#4A73FE"/>
<stop offset="1" stop-color="#70E0E6"/>
</linearGradient>
<linearGradient id="paint16_linear_384_2589" x1="6.98364" y1="1.8811" x2="6.98364" y2="4.23634" gradientUnits="userSpaceOnUse">
<stop stop-color="#4A74FE"/>
<stop offset="1" stop-color="#6FDFE7"/>
</linearGradient>
<linearGradient id="paint17_linear_384_2589" x1="26.973" y1="5.40149" x2="26.973" y2="7.13253" gradientUnits="userSpaceOnUse">
<stop stop-color="#4A73FE"/>
<stop offset="1" stop-color="#70E0E6"/>
</linearGradient>
<linearGradient id="paint18_linear_384_2589" x1="26.973" y1="6.26685" x2="26.973" y2="8.6225" gradientUnits="userSpaceOnUse">
<stop stop-color="#4A74FE"/>
<stop offset="1" stop-color="#6FDFE7"/>
</linearGradient>
<linearGradient id="paint19_linear_384_2589" x1="21.3213" y1="1.01538" x2="21.3213" y2="2.74683" gradientUnits="userSpaceOnUse">
<stop stop-color="#4A73FE"/>
<stop offset="1" stop-color="#70E0E6"/>
</linearGradient>
<linearGradient id="paint20_linear_384_2589" x1="21.3213" y1="1.8811" x2="21.3213" y2="4.23634" gradientUnits="userSpaceOnUse">
<stop stop-color="#4A74FE"/>
<stop offset="1" stop-color="#6FDFE7"/>
</linearGradient>
</defs>
</svg>
