<svg width="36" height="35" viewBox="0 0 36 35" fill="none" xmlns="http://www.w3.org/2000/svg">
<path d="M12.8952 15.4954C12.3397 15.0705 11.5412 15.508 11.6071 16.2011C11.6891 17.0648 10.5183 17.4178 10.1027 16.6546C9.76928 16.0422 8.86054 16.1194 8.63678 16.7792C8.35793 17.6014 7.14363 17.4511 7.0767 16.5861C7.02303 15.8919 6.1612 15.5956 5.68644 16.108C5.09483 16.7464 4.04706 16.1188 4.34033 15.3016C4.57566 14.6458 3.90982 14.027 3.26622 14.3034C2.4642 14.6478 1.76417 13.6514 2.36691 13.0231C2.85057 12.519 2.49579 11.6849 1.79461 11.6775C0.92076 11.6683 0.689525 10.4754 1.49751 10.1448C2.14591 9.87963 2.16354 8.9743 1.52599 8.68439C0.731447 8.32308 1.00905 7.13994 1.88255 7.16424C2.58355 7.18377 2.97055 6.36388 2.50683 5.84158C1.92901 5.19072 2.66731 4.22185 3.45536 4.59685C4.08774 4.89772 4.77717 4.305 4.56756 3.64071C4.30633 2.81277 5.37778 2.22589 5.94403 2.88664C6.39848 3.41689 7.27118 3.15376 7.35182 2.46225C7.45239 1.60047 8.67167 1.49683 8.91831 2.32918C9.11616 2.99709 10.0213 3.10913 10.3783 2.50996C10.8233 1.76332 11.9795 2.16094 11.8639 3.02086C11.7711 3.71087 12.552 4.17873 13.1236 3.77555C13.836 3.27313 14.7294 4.10327 14.2714 4.84214C13.9039 5.43504 14.4256 6.1777 15.1131 6.04021C15.9697 5.86888 16.4457 6.98805 15.7246 7.4781C15.146 7.8713 15.3183 8.76047 16.0027 8.91244C16.8555 9.1018 16.8318 10.3164 15.9722 10.473C15.2825 10.5985 15.0757 11.4804 15.6385 11.8956C16.34 12.4129 15.8207 13.513 14.9714 13.3089C14.2898 13.1451 13.7396 13.8671 14.0838 14.4737C14.5127 15.2297 13.5876 16.0249 12.8953 15.4954L12.8952 15.4954Z" fill="url(#paint0_linear_382_2602)" stroke="url(#paint1_linear_382_2602)" stroke-width="0.7" stroke-miterlimit="10"/>
<path d="M9.23598 14.3741C12.1455 14.3741 14.5042 12.0326 14.5042 9.14409C14.5042 6.25563 12.1455 3.91406 9.23598 3.91406C6.32643 3.91406 3.96777 6.25563 3.96777 9.14409C3.96777 12.0326 6.32643 14.3741 9.23598 14.3741Z" fill="url(#paint2_linear_382_2602)" stroke="url(#paint3_linear_382_2602)" stroke-width="0.7" stroke-miterlimit="10"/>
<path d="M13.658 14.738C13.1025 14.3132 12.304 14.7507 12.3699 15.4438C12.4519 16.3075 11.2811 16.6605 10.8655 15.8973C10.5321 15.2849 9.62336 15.3621 9.3996 16.0219C9.12075 16.8441 7.90645 16.6938 7.83952 15.8287C7.78585 15.1346 6.92401 14.8382 6.44926 15.3506C5.85765 15.9891 4.80988 15.3615 5.10315 14.5443C5.33848 13.8885 4.67263 13.2697 4.02904 13.5461C3.22701 13.8905 2.52699 12.894 3.12973 12.2658C3.61338 11.7617 3.25861 10.9276 2.55743 10.9202C1.68358 10.911 1.45234 9.71803 2.26033 9.38748C2.90873 9.12231 2.92635 8.21697 2.28881 7.92706C1.49426 7.56576 1.77187 6.38262 2.64537 6.40692C3.34637 6.42644 3.73336 5.60655 3.26965 5.08426C2.69183 4.4334 3.43012 3.46453 4.21817 3.83953C4.85055 4.14039 5.53999 3.54767 5.33038 2.88338C5.06915 2.05545 6.14059 1.46856 6.70684 2.12932C7.1613 2.65957 8.034 2.39643 8.11463 1.70493C8.21521 0.843151 9.43449 0.739504 9.68112 1.57186C9.87898 2.23977 10.7841 2.35181 11.1412 1.75264C11.5861 1.006 12.7424 1.40362 12.6267 2.26354C12.5339 2.95354 13.3148 3.42141 13.8864 3.01822C14.5988 2.51581 15.4923 3.34595 15.0342 4.08482C14.6667 4.67771 15.1884 5.42038 15.8759 5.28289C16.7325 5.11156 17.2085 6.23073 16.4874 6.72077C15.9088 7.11397 16.0811 8.00314 16.7655 8.15512C17.6183 8.34448 17.5946 9.55907 16.735 9.71565C16.0453 9.84121 15.8385 10.723 16.4014 11.1382C17.1028 11.6556 16.5836 12.7557 15.7343 12.5516C15.0527 12.3877 14.5024 13.1098 14.8466 13.7164C15.2755 14.4723 14.3504 15.2676 13.6581 14.7381L13.658 14.738Z" fill="white" stroke="url(#paint4_linear_382_2602)" stroke-width="0.7" stroke-miterlimit="10"/>
<path d="M9.59246 13.7165C12.333 13.7165 14.5547 11.511 14.5547 8.79026C14.5547 6.06957 12.333 3.86401 9.59246 3.86401C6.8519 3.86401 4.63025 6.06957 4.63025 8.79026C4.63025 11.511 6.8519 13.7165 9.59246 13.7165Z" fill="white" stroke="url(#paint5_linear_382_2602)" stroke-width="0.7" stroke-miterlimit="10"/>
<path d="M26.8474 30.6694C25.8438 29.902 24.4012 30.6922 24.5202 31.9444C24.6685 33.5047 22.5532 34.1424 21.8025 32.7637C21.2001 31.6573 19.5585 31.7967 19.1542 32.9886C18.6504 34.474 16.4567 34.2024 16.3358 32.6397C16.2387 31.3857 14.6819 30.8502 13.8242 31.7759C12.7554 32.9294 10.8627 31.7955 11.3924 30.3191C11.8175 29.1344 10.6146 28.0165 9.45193 28.5158C8.00293 29.1381 6.73835 27.3379 7.82724 26.2031C8.701 25.2925 8.06007 23.7856 6.79326 23.7722C5.21467 23.7555 4.79688 21.6004 6.25656 21.0033C7.42787 20.5242 7.45973 18.8888 6.30801 18.365C4.87271 17.7124 5.37408 15.5749 6.95214 15.6189C8.2185 15.6542 8.91764 14.173 8.08001 13.2295C7.03616 12.0537 8.3699 10.3034 9.79362 10.9808C10.936 11.5244 12.1816 10.4536 11.8029 9.25336C11.331 7.75769 13.2666 6.69737 14.2896 7.89103C15.1105 8.84894 16.6871 8.37365 16.8329 7.12433C17.0146 5.56742 19.2173 5.38028 19.6629 6.8839C20.0204 8.09046 21.6554 8.29289 22.3004 7.21048C23.1042 5.86157 25.1932 6.58003 24.9842 8.13349C24.8165 9.38007 26.2272 10.2252 27.26 9.49679C28.547 8.58907 30.1609 10.0889 29.3335 11.4237C28.6695 12.4948 29.6121 13.8364 30.854 13.588C32.4016 13.2785 33.2616 15.3003 31.9588 16.1856C30.9134 16.8961 31.2248 18.5024 32.4611 18.7769C34.0017 19.119 33.9589 21.3133 32.4061 21.596C31.1601 21.8229 30.7864 23.416 31.8033 24.166C33.0706 25.1006 32.1325 27.0879 30.5981 26.7192C29.3668 26.4233 28.3727 27.7279 28.9945 28.8236C29.7693 30.1892 28.0981 31.6259 26.8474 30.6694Z" fill="url(#paint6_linear_382_2602)" stroke="url(#paint7_linear_382_2602)" stroke-width="0.7" stroke-miterlimit="10"/>
<path d="M20.2368 28.6438C25.493 28.6438 29.754 24.4137 29.754 19.1956C29.754 13.9774 25.493 9.74731 20.2368 9.74731C14.9806 9.74731 10.7196 13.9774 10.7196 19.1956C10.7196 24.4137 14.9806 28.6438 20.2368 28.6438Z" fill="url(#paint8_linear_382_2602)" stroke="url(#paint9_linear_382_2602)" stroke-width="0.7" stroke-miterlimit="10"/>
<path d="M28.2257 29.3013C27.2221 28.5338 25.7795 29.3241 25.8985 30.5762C26.0468 32.1366 23.9315 32.7743 23.1808 31.3955C22.5784 30.2892 20.9367 30.4286 20.5325 31.6205C20.0287 33.1058 17.835 32.8343 17.7141 31.2715C17.617 30.0175 16.0602 29.4821 15.2025 30.4077C14.1337 31.5613 12.241 30.4273 12.7707 28.9509C13.1958 27.7662 11.9929 26.6484 10.8302 27.1477C9.38123 27.7699 8.11664 25.9698 9.20553 24.835C10.0793 23.9243 9.43837 22.4174 8.17156 22.404C6.59297 22.3873 6.17518 20.2322 7.63486 19.6351C8.80617 19.1561 8.83803 17.5206 7.68631 16.9969C6.25101 16.3443 6.75238 14.2067 8.33043 14.2507C9.5968 14.286 10.2959 12.8048 9.45831 11.8613C8.41446 10.6855 9.7482 8.93527 11.1719 9.61264C12.3143 10.1562 13.5599 9.08539 13.1812 7.8852C12.7093 6.38953 14.6449 5.32921 15.6679 6.52286C16.4888 7.48078 18.0654 7.00549 18.2112 5.75616C18.3929 4.19926 20.5956 4.01211 21.0412 5.51574C21.3987 6.72229 23.0337 6.92473 23.6787 5.84231C24.4825 4.49341 26.5715 5.21187 26.3625 6.76532C26.1948 8.01191 27.6055 8.85707 28.6383 8.12863C29.9253 7.22091 31.5392 8.72073 30.7118 10.0555C30.0478 11.1266 30.9904 12.4683 32.2323 12.2199C33.7799 11.9104 34.6399 13.9321 33.3371 14.8175C32.2917 15.5279 32.6031 17.1342 33.8394 17.4087C35.38 17.7509 35.3372 19.9451 33.7844 20.2279C32.5384 20.4548 32.1647 22.0478 33.1816 22.7978C34.4489 23.7325 33.5108 25.7198 31.9764 25.3511C30.7451 25.0551 29.751 26.3597 30.3728 27.4554C31.1476 28.8211 29.4764 30.2577 28.2257 29.3013Z" fill="white" stroke="url(#paint10_linear_382_2602)" stroke-width="0.7" stroke-miterlimit="10"/>
<path d="M20.8812 27.4554C25.8321 27.4554 29.8456 23.471 29.8456 18.5559C29.8456 13.6409 25.8321 9.65649 20.8812 9.65649C15.9302 9.65649 11.9167 13.6409 11.9167 18.5559C11.9167 23.471 15.9302 27.4554 20.8812 27.4554Z" fill="white" stroke="url(#paint11_linear_382_2602)" stroke-width="0.7" stroke-miterlimit="10"/>
<defs>
<linearGradient id="paint0_linear_382_2602" x1="8.81489" y1="1.75732" x2="8.81489" y2="17.3219" gradientUnits="userSpaceOnUse">
<stop stop-color="#4A74FE"/>
<stop offset="1" stop-color="#70E0E6"/>
</linearGradient>
<linearGradient id="paint1_linear_382_2602" x1="8.81489" y1="1.75732" x2="8.81489" y2="17.3219" gradientUnits="userSpaceOnUse">
<stop stop-color="#4A72FE"/>
<stop offset="1" stop-color="#6FDFE6"/>
</linearGradient>
<linearGradient id="paint2_linear_382_2602" x1="9.23598" y1="3.91406" x2="9.23598" y2="14.3741" gradientUnits="userSpaceOnUse">
<stop stop-color="#4A74FE"/>
<stop offset="1" stop-color="#70E0E6"/>
</linearGradient>
<linearGradient id="paint3_linear_382_2602" x1="9.23598" y1="3.91406" x2="9.23598" y2="14.3741" gradientUnits="userSpaceOnUse">
<stop stop-color="#4A72FE"/>
<stop offset="1" stop-color="#6FDFE6"/>
</linearGradient>
<linearGradient id="paint4_linear_382_2602" x1="9.5777" y1="1" x2="9.5777" y2="16.5646" gradientUnits="userSpaceOnUse">
<stop stop-color="#4A73FE"/>
<stop offset="1" stop-color="#69DBEA"/>
</linearGradient>
<linearGradient id="paint5_linear_382_2602" x1="9.59246" y1="3.86401" x2="9.59246" y2="13.7165" gradientUnits="userSpaceOnUse">
<stop stop-color="#4A73FE"/>
<stop offset="1" stop-color="#69DBEA"/>
</linearGradient>
<linearGradient id="paint6_linear_382_2602" x1="19.4759" y1="5.85083" x2="19.4759" y2="33.969" gradientUnits="userSpaceOnUse">
<stop stop-color="#4A74FE"/>
<stop offset="1" stop-color="#6DDEE8"/>
</linearGradient>
<linearGradient id="paint7_linear_382_2602" x1="19.4759" y1="5.85083" x2="19.4759" y2="33.969" gradientUnits="userSpaceOnUse">
<stop stop-color="#4A77FE"/>
<stop offset="1" stop-color="#6FDFE6"/>
</linearGradient>
<linearGradient id="paint8_linear_382_2602" x1="20.2368" y1="9.74731" x2="20.2368" y2="28.6438" gradientUnits="userSpaceOnUse">
<stop stop-color="#4A73FE"/>
<stop offset="1" stop-color="#69DBEA"/>
</linearGradient>
<linearGradient id="paint9_linear_382_2602" x1="20.2368" y1="9.74731" x2="20.2368" y2="28.6438" gradientUnits="userSpaceOnUse">
<stop stop-color="#4A73FE"/>
<stop offset="1" stop-color="#69DBEA"/>
</linearGradient>
<linearGradient id="paint10_linear_382_2602" x1="20.8542" y1="4.48267" x2="20.8542" y2="32.6008" gradientUnits="userSpaceOnUse">
<stop stop-color="#4A73FE"/>
<stop offset="1" stop-color="#69DBEA"/>
</linearGradient>
<linearGradient id="paint11_linear_382_2602" x1="20.8812" y1="9.65649" x2="20.8812" y2="27.4554" gradientUnits="userSpaceOnUse">
<stop stop-color="#4A73FE"/>
<stop offset="1" stop-color="#69DBEA"/>
</linearGradient>
</defs>
</svg>
