<svg width="36" height="35" viewBox="0 0 36 35" fill="none" xmlns="http://www.w3.org/2000/svg">
<path d="M12.908 15.5037C12.3525 15.0788 11.554 15.5163 11.6199 16.2094C11.7019 17.0731 10.5311 17.4261 10.1155 16.6629C9.7821 16.0505 8.87336 16.1277 8.6496 16.7875C8.37075 17.6097 7.15645 17.4594 7.08952 16.5944C7.03585 15.9002 6.17401 15.6039 5.69926 16.1163C5.10765 16.7547 4.05988 16.1271 4.35315 15.3099C4.58848 14.6541 3.92263 14.0353 3.27904 14.3117C2.47701 14.6561 1.77699 13.6597 2.37973 13.0314C2.86338 12.5273 2.50861 11.6932 1.80743 11.6858C0.933578 11.6766 0.702343 10.4837 1.51033 10.1531C2.15873 9.88793 2.17635 8.9826 1.53881 8.69269C0.744264 8.33138 1.02187 7.14824 1.89537 7.17254C2.59637 7.19207 2.98336 6.37218 2.51965 5.84988C1.94183 5.19902 2.68012 4.23015 3.46817 4.60515C4.10055 4.90602 4.78999 4.3133 4.58038 3.64901C4.31915 2.82108 5.39059 2.23419 5.95684 2.89494C6.4113 3.42519 7.284 3.16206 7.36463 2.47055C7.46521 1.60878 8.68449 1.50513 8.93112 2.33748C9.12898 3.00539 10.0341 3.11743 10.3912 2.51827C10.8361 1.77162 11.9924 2.16924 11.8767 3.02916C11.7839 3.71917 12.5648 4.18703 13.1364 3.78385C13.8488 3.28143 14.7423 4.11157 14.2842 4.85044C13.9167 5.44334 14.4384 6.186 15.1259 6.04851C15.9825 5.87718 16.4585 6.99635 15.7374 7.4864C15.1588 7.8796 15.3311 8.76877 16.0155 8.92075C16.8683 9.1101 16.8446 10.3247 15.985 10.4813C15.2953 10.6068 15.0885 11.4887 15.6514 11.9039C16.3528 12.4212 15.8336 13.5213 14.9843 13.3172C14.3027 13.1534 13.7524 13.8754 14.0966 14.482C14.5255 15.238 13.6004 16.0332 12.9081 15.5037L12.908 15.5037Z" fill="#1C2C65" stroke="#1C2C65" stroke-width="0.7" stroke-miterlimit="10"/>
<path d="M9.2488 14.3824C12.1583 14.3824 14.517 12.0409 14.517 9.15239C14.517 6.26393 12.1583 3.92236 9.2488 3.92236C6.33925 3.92236 3.98059 6.26393 3.98059 9.15239C3.98059 12.0409 6.33925 14.3824 9.2488 14.3824Z" fill="#1C2C65" stroke="#1C2C65" stroke-width="0.7" stroke-miterlimit="10"/>
<path d="M13.6709 14.7462C13.1153 14.3214 12.3168 14.7588 12.3827 15.4519C12.4648 16.3157 11.2939 16.6687 10.8783 15.9055C10.5449 15.2931 9.63618 15.3703 9.41242 16.0301C9.13356 16.8523 7.91927 16.702 7.85234 15.8369C7.79867 15.1428 6.93683 14.8464 6.46208 15.3588C5.87046 15.9973 4.8227 15.3697 5.11597 14.5524C5.3513 13.8966 4.68545 13.2778 4.04186 13.5542C3.23983 13.8987 2.53981 12.9022 3.14255 12.274C3.6262 11.7699 3.27143 10.9358 2.57025 10.9284C1.6964 10.9192 1.46516 9.72621 2.27315 9.39566C2.92155 9.13049 2.93917 8.22515 2.30163 7.93524C1.50708 7.57394 1.78469 6.3908 2.65818 6.4151C3.35919 6.43462 3.74618 5.61473 3.28246 5.09243C2.70464 4.44157 3.44294 3.47271 4.23099 3.84771C4.86337 4.14857 5.5528 3.55585 5.3432 2.89156C5.08197 2.06363 6.15341 1.47674 6.71966 2.1375C7.17412 2.66775 8.04681 2.40461 8.12745 1.7131C8.22803 0.851329 9.44731 0.747683 9.69394 1.58003C9.8918 2.24795 10.7969 2.35999 11.154 1.76082C11.5989 1.01418 12.7552 1.4118 12.6396 2.27172C12.5467 2.96172 13.3277 3.42959 13.8992 3.0264C14.6116 2.52398 15.5051 3.35413 15.0471 4.09299C14.6796 4.68589 15.2012 5.42856 15.8887 5.29107C16.7454 5.11974 17.2214 6.23891 16.5002 6.72895C15.9216 7.12215 16.0939 8.01132 16.7783 8.1633C17.6311 8.35265 17.6075 9.56725 16.7479 9.72383C16.0582 9.84939 15.8513 10.7312 16.4142 11.1464C17.1156 11.6638 16.5964 12.7639 15.7471 12.5597C15.0655 12.3959 14.5153 13.118 14.8594 13.7246C15.2884 14.4805 14.3632 15.2758 13.671 14.7463L13.6709 14.7462Z" fill="#F3F3F3" stroke="#1C2C65" stroke-width="0.7" stroke-miterlimit="10"/>
<path d="M9.60527 13.7246C12.3458 13.7246 14.5675 11.519 14.5675 8.79832C14.5675 6.07763 12.3458 3.87207 9.60527 3.87207C6.86472 3.87207 4.64307 6.07763 4.64307 8.79832C4.64307 11.519 6.86472 13.7246 9.60527 13.7246Z" fill="#F3F3F3" stroke="#1C2C65" stroke-width="0.7" stroke-miterlimit="10"/>
<path d="M26.8602 30.6777C25.8566 29.9103 24.414 30.7005 24.533 31.9527C24.6813 33.513 22.566 34.1507 21.8153 32.772C21.213 31.6656 19.5713 31.805 19.167 32.9969C18.6632 34.4823 16.4695 34.2107 16.3486 32.648C16.2516 31.394 14.6947 30.8585 13.837 31.7842C12.7683 32.9377 10.8755 31.8038 11.4052 30.3274C11.8303 29.1427 10.6274 28.0248 9.46475 28.5241C8.01575 29.1464 6.75117 27.3462 7.84005 26.2114C8.71382 25.3008 8.07289 23.7939 6.80608 23.7805C5.22749 23.7638 4.8097 21.6087 6.26938 21.0116C7.44069 20.5325 7.47255 18.8971 6.32083 18.3733C4.88553 17.7207 5.3869 15.5832 6.96496 15.6272C8.23132 15.6625 8.93045 14.1813 8.09283 13.2378C7.04898 12.062 8.38272 10.3117 9.80644 10.9891C10.9488 11.5327 12.1944 10.4619 11.8157 9.26166C11.3438 7.76599 13.2794 6.70567 14.3024 7.89933C15.1233 8.85724 16.7 8.38195 16.8458 7.13263C17.0274 5.57572 19.2301 5.38858 19.6757 6.8922C20.0332 8.09876 21.6682 8.30119 22.3132 7.21878C23.1171 5.86988 25.206 6.58833 24.997 8.14179C24.8293 9.38837 26.2401 10.2335 27.2728 9.5051C28.5598 8.59737 30.1737 10.0972 29.3463 11.432C28.6824 12.5031 29.6249 13.8447 30.8668 13.5963C32.4144 13.2868 33.2744 15.3086 31.9716 16.1939C30.9263 16.9044 31.2376 18.5107 32.4739 18.7852C34.0146 19.1273 33.9717 21.3216 32.419 21.6043C31.1729 21.8312 30.7992 23.4243 31.8161 24.1743C33.0834 25.1089 32.1454 27.0963 30.6109 26.7275C29.3796 26.4316 28.3855 27.7362 29.0073 28.8319C29.7821 30.1975 28.1109 31.6342 26.8602 30.6777Z" fill="#1C2C65" stroke="#1C2C65" stroke-width="0.7" stroke-miterlimit="10"/>
<path d="M20.2496 28.652C25.5059 28.652 29.7669 24.4219 29.7669 19.2037C29.7669 13.9856 25.5059 9.75549 20.2496 9.75549C14.9934 9.75549 10.7324 13.9856 10.7324 19.2037C10.7324 24.4219 14.9934 28.652 20.2496 28.652Z" fill="#1C2C65" stroke="#1C2C65" stroke-width="0.7" stroke-miterlimit="10"/>
<path d="M28.2385 29.3095C27.2349 28.542 25.7923 29.3323 25.9113 30.5844C26.0596 32.1448 23.9443 32.7825 23.1936 31.4037C22.5913 30.2973 20.9496 30.4368 20.5453 31.6287C20.0415 33.114 17.8478 32.8425 17.7269 31.2797C17.6299 30.0257 16.073 29.4903 15.2153 30.4159C14.1466 31.5695 12.2538 30.4355 12.7835 28.9591C13.2086 27.7744 12.0057 26.6565 10.843 27.1559C9.39405 27.7781 8.12946 25.9779 9.21835 24.8431C10.0921 23.9325 9.45119 22.4256 8.18438 22.4122C6.60579 22.3955 6.188 20.2404 7.64768 19.6433C8.81898 19.1642 8.85085 17.5288 7.69912 17.0051C6.26383 16.3524 6.76519 14.2149 8.34325 14.2589C9.60962 14.2942 10.3087 12.813 9.47112 11.8695C8.42727 10.6937 9.76101 8.94345 11.1847 9.62082C12.3271 10.1644 13.5727 9.09357 13.194 7.89338C12.7221 6.39771 14.6577 5.33739 15.6807 6.53104C16.5016 7.48895 18.0783 7.01367 18.2241 5.76434C18.4057 4.20744 20.6084 4.02029 21.054 5.52391C21.4115 6.73047 23.0465 6.9329 23.6915 5.85049C24.4953 4.50159 26.5843 5.22004 26.3753 6.7735C26.2076 8.02009 27.6184 8.86525 28.6511 8.13681C29.9381 7.22909 31.552 8.72891 30.7246 10.0637C30.0606 11.1348 31.0032 12.4764 32.2451 12.2281C33.7927 11.9185 34.6527 13.9403 33.3499 14.8257C32.3046 15.5361 32.6159 17.1424 33.8522 17.4169C35.3929 17.759 35.35 19.9533 33.7973 20.236C32.5512 20.4629 32.1775 22.056 33.1944 22.806C34.4617 23.7407 33.5237 25.728 31.9892 25.3592C30.7579 25.0633 29.7638 26.3679 30.3856 27.4636C31.1604 28.8292 29.4892 30.2659 28.2385 29.3095Z" fill="#F3F3F3" stroke="#1C2C65" stroke-width="0.7" stroke-miterlimit="10"/>
<path d="M20.894 27.4636C25.8449 27.4636 29.8584 23.4791 29.8584 18.5641C29.8584 13.6491 25.8449 9.66467 20.894 9.66467C15.9431 9.66467 11.9296 13.6491 11.9296 18.5641C11.9296 23.4791 15.9431 27.4636 20.894 27.4636Z" fill="#F3F3F3" stroke="#1C2C65" stroke-width="0.7" stroke-miterlimit="10"/>
</svg>
