<svg width="27" height="36" viewBox="0 0 27 36" fill="none" xmlns="http://www.w3.org/2000/svg">
<path d="M24.8353 0.422028H7.32001C6.62214 0.422028 6.0564 0.998852 6.0564 1.7104V29.7655C6.0564 30.4771 6.62214 31.0539 7.32001 31.0539H24.8353C25.5332 31.0539 26.099 30.4771 26.099 29.7655V1.7104C26.099 0.998852 25.5332 0.422028 24.8353 0.422028Z" fill="#F2F3F7" stroke="#1C2C65" stroke-width="0.7" stroke-miterlimit="10"/>
<path d="M21.0305 10.0282C21.7819 10.0282 22.3911 9.40714 22.3911 8.64098C22.3911 7.87482 21.7819 7.25372 21.0305 7.25372C20.279 7.25372 19.6699 7.87482 19.6699 8.64098C19.6699 9.40714 20.279 10.0282 21.0305 10.0282Z" fill="#1C2C65" stroke="#F2F3F7" stroke-width="0.4" stroke-miterlimit="10"/>
<path d="M23.7144 8.64099H18.3475C18.26 8.64094 18.1741 8.61767 18.0981 8.57346C18.0222 8.52925 17.9588 8.46563 17.9143 8.38886C17.8698 8.31209 17.8456 8.22483 17.8442 8.13566C17.8429 8.04649 17.8643 7.95849 17.9064 7.88033C18.1828 7.38988 18.3287 6.83432 18.3298 6.26867C18.3298 4.79109 18.0668 2.15063 21.0342 2.15063C24.0016 2.15063 23.7386 4.79109 23.7386 6.26867C23.7409 6.83338 23.8871 7.38779 24.1629 7.87748C24.2061 7.95629 24.228 8.0453 24.2267 8.13553C24.2253 8.22577 24.2006 8.31404 24.1552 8.39147C24.1097 8.46889 24.045 8.53271 23.9676 8.57652C23.8902 8.62033 23.8029 8.64257 23.7144 8.64099Z" fill="#1C2C65" stroke="#F2F3F7" stroke-width="0.4" stroke-miterlimit="10"/>
<path d="M20.2285 10.0282C20.9799 10.0282 21.5891 9.40714 21.5891 8.64098C21.5891 7.87482 20.9799 7.25372 20.2285 7.25372C19.477 7.25372 18.8679 7.87482 18.8679 8.64098C18.8679 9.40714 19.477 10.0282 20.2285 10.0282Z" fill="#1C2C65" stroke="#F2F3F7" stroke-width="0.7" stroke-miterlimit="10"/>
<path d="M22.9114 8.64098H17.5455C17.458 8.64093 17.3721 8.61765 17.2961 8.57344C17.2201 8.52923 17.1568 8.46561 17.1123 8.38885C17.0678 8.31208 17.0436 8.22481 17.0422 8.13565C17.0409 8.04648 17.0623 7.95848 17.1044 7.88031C17.3806 7.3908 17.5269 6.83628 17.5287 6.27151C17.5287 4.79392 17.2648 2.15347 20.2331 2.15347C23.2015 2.15347 22.9329 4.79392 22.9329 6.27151C22.9351 6.83622 23.0813 7.39063 23.3572 7.88031C23.3995 7.95883 23.4209 8.04727 23.4193 8.13684C23.4178 8.22641 23.3932 8.314 23.3481 8.3909C23.3031 8.46781 23.239 8.53135 23.1624 8.57522C23.0858 8.61909 22.9993 8.64176 22.9114 8.64098Z" fill="#1C2C65" stroke="#F2F3F7" stroke-width="0.7" stroke-miterlimit="10"/>
<path d="M19.2819 4.94608H1.76661C1.06873 4.94608 0.502991 5.5229 0.502991 6.23445V34.2896C0.502991 35.0011 1.06873 35.578 1.76661 35.578H19.2819C19.9798 35.578 20.5456 35.0011 20.5456 34.2896V6.23445C20.5456 5.5229 19.9798 4.94608 19.2819 4.94608Z" fill="#F2F3F7" stroke="#1C2C65" stroke-width="0.7" stroke-miterlimit="10"/>
<path d="M14.717 14.5513C15.4685 14.5513 16.0777 13.9302 16.0777 13.1641C16.0777 12.3979 15.4685 11.7768 14.717 11.7768C13.9656 11.7768 13.3564 12.3979 13.3564 13.1641C13.3564 13.9302 13.9656 14.5513 14.717 14.5513Z" fill="#1C2C65" stroke="#F2F3F7" stroke-width="0.4" stroke-miterlimit="10"/>
<path d="M17.3972 13.1641H12.0341C11.9466 13.164 11.8607 13.1408 11.7847 13.0965C11.7087 13.0523 11.6454 12.9887 11.6009 12.9119C11.5563 12.8352 11.5322 12.7479 11.5308 12.6587C11.5294 12.5696 11.5509 12.4816 11.593 12.4034C11.8692 11.9139 12.0155 11.3594 12.0173 10.7946C12.0173 9.31703 11.7543 6.67657 14.7171 6.67657C17.6798 6.67657 17.4215 9.31703 17.4215 10.7946C17.4223 11.3589 17.5669 11.9133 17.8411 12.4034C17.8836 12.4818 17.9053 12.5701 17.9039 12.6596C17.9026 12.7491 17.8782 12.8367 17.8333 12.9137C17.7884 12.9906 17.7245 13.0542 17.648 13.0981C17.5715 13.1421 17.485 13.1648 17.3972 13.1641Z" fill="#1C2C65" stroke="#F2F3F7" stroke-width="0.3" stroke-miterlimit="10"/>
<path d="M13.915 14.5513C14.6665 14.5513 15.2757 13.9302 15.2757 13.1641C15.2757 12.3979 14.6665 11.7768 13.915 11.7768C13.1636 11.7768 12.5544 12.3979 12.5544 13.1641C12.5544 13.9302 13.1636 14.5513 13.915 14.5513Z" fill="#1C2C65" stroke="#F2F3F7" stroke-width="0.7" stroke-miterlimit="10"/>
<path d="M16.5981 13.1641H11.2321C11.1445 13.1643 11.0584 13.1412 10.9823 13.0971C10.9062 13.0529 10.8427 12.9893 10.7981 12.9124C10.7535 12.8356 10.7294 12.7482 10.7282 12.6589C10.727 12.5696 10.7486 12.4815 10.791 12.4034C11.0669 11.9137 11.2131 11.3593 11.2153 10.7946C11.2153 9.31703 10.9514 6.67657 13.9151 6.67657C16.8788 6.67657 16.6195 9.31703 16.6195 10.7946C16.6203 11.3589 16.7649 11.9133 17.0392 12.4034C17.0813 12.4816 17.1027 12.5696 17.1013 12.6587C17.0999 12.7479 17.0758 12.8352 17.0313 12.9119C16.9868 12.9887 16.9234 13.0523 16.8474 13.0965C16.7715 13.1408 16.6855 13.164 16.5981 13.1641Z" fill="#1C2C65" stroke="#F2F3F7" stroke-width="0.7" stroke-miterlimit="10"/>
<path d="M3.99451 18.7103H17.0541" stroke="#1C2C65" stroke-width="0.7" stroke-miterlimit="10"/>
<path d="M3.99451 21.1596H17.0541" stroke="#1C2C65" stroke-width="0.7" stroke-miterlimit="10"/>
<path d="M3.99451 23.897H17.0541" stroke="#1C2C65" stroke-width="0.7" stroke-miterlimit="10"/>
<path d="M3.99451 26.6345H17.0541" stroke="#1C2C65" stroke-width="0.7" stroke-miterlimit="10"/>
</svg>
