<svg width="32" height="32" viewBox="0 0 32 32" fill="none" xmlns="http://www.w3.org/2000/svg">
<path d="M1.67298 12.2308L14.1373 1.17686C14.8945 0.505309 16.0341 0.505308 16.7913 1.17686L29.2556 12.2308C29.6836 12.6103 29.9286 13.155 29.9286 13.7271V29C29.9286 30.1046 29.0331 31 27.9286 31H3C1.89543 31 1 30.1046 1 29V13.7271C1 13.155 1.24497 12.6103 1.67298 12.2308Z" fill="#1C2C65"/>
<path d="M1.67298 12.2308L14.1373 1.17686C14.8945 0.505309 16.0341 0.505308 16.7913 1.17686L29.2556 12.2308C29.6836 12.6103 29.9286 13.155 29.9286 13.7271V29C29.9286 30.1046 29.0331 31 27.9286 31H3C1.89543 31 1 30.1046 1 29V13.7271C1 13.155 1.24497 12.6103 1.67298 12.2308Z" fill="black" fill-opacity="0.2"/>
<path d="M1.67298 12.2308L14.1373 1.17686C14.8945 0.505309 16.0341 0.505308 16.7913 1.17686L29.2556 12.2308C29.6836 12.6103 29.9286 13.155 29.9286 13.7271V29C29.9286 30.1046 29.0331 31 27.9286 31H3C1.89543 31 1 30.1046 1 29V13.7271C1 13.155 1.24497 12.6103 1.67298 12.2308Z" stroke="#1C2C65" stroke-width="0.7"/>
<path d="M2.74439 12.2308L15.2087 1.17686C15.9659 0.505309 17.1055 0.505308 17.8627 1.17686L30.327 12.2308C30.755 12.6103 31 13.155 31 13.7271V29C31 30.1046 30.1046 31 29 31H4.07141C2.96684 31 2.07141 30.1046 2.07141 29V13.7271C2.07141 13.155 2.31639 12.6103 2.74439 12.2308Z" fill="#F2F3F7"/>
<path d="M2.74439 12.2308L15.2087 1.17686C15.9659 0.505309 17.1055 0.505308 17.8627 1.17686L30.327 12.2308C30.755 12.6103 31 13.155 31 13.7271V29C31 30.1046 30.1046 31 29 31H4.07141C2.96684 31 2.07141 30.1046 2.07141 29V13.7271C2.07141 13.155 2.31639 12.6103 2.74439 12.2308Z" fill="#F2F3F7"/>
<path d="M2.74439 12.2308L15.2087 1.17686C15.9659 0.505309 17.1055 0.505308 17.8627 1.17686L30.327 12.2308C30.755 12.6103 31 13.155 31 13.7271V29C31 30.1046 30.1046 31 29 31H4.07141C2.96684 31 2.07141 30.1046 2.07141 29V13.7271C2.07141 13.155 2.31639 12.6103 2.74439 12.2308Z" stroke="#1C2C65" stroke-width="0.7"/>
<path d="M21.4286 20.3103C21.9809 20.3103 22.436 20.7603 22.357 21.3069C22.2849 21.8062 22.1586 22.2957 21.98 22.7648C21.6839 23.5429 21.2498 24.25 20.7026 24.8456C20.1554 25.4411 19.5058 25.9136 18.7908 26.2359C18.0759 26.5582 17.3096 26.7241 16.5357 26.7241C15.7619 26.7241 14.9956 26.5582 14.2806 26.2359C13.5657 25.9136 12.9161 25.4411 12.3689 24.8456C11.8217 24.25 11.3876 23.5429 11.0915 22.7648C10.9129 22.2957 10.7866 21.8062 10.7145 21.3069C10.6355 20.7603 11.0906 20.3103 11.6429 20.3103H21.4286Z" fill="#F2F3F7" stroke="#111111" stroke-width="0.7" stroke-miterlimit="10"/>
</svg>
