<svg width="29" height="29" viewBox="0 0 29 29" fill="none" xmlns="http://www.w3.org/2000/svg">
<path d="M8.19613e-05 14.4775C0.0267133 6.46125 6.52192 -0.0180661 14.5132 3.78462e-05C22.5397 0.0181418 29.0464 6.54796 28.9998 14.5394C28.9531 22.5652 22.4418 29.0455 14.4695 28.9998C6.44012 28.954 -0.0265494 22.4633 8.19613e-05 14.4775ZM14.5066 27.9535C21.9291 27.9383 27.9706 21.8906 27.9535 14.4928C27.9364 7.06726 21.893 1.03196 14.4923 1.04721C7.06881 1.06246 1.03205 7.10537 1.04631 14.5061C1.05963 21.9259 7.10876 27.9688 14.5066 27.9526V27.9535Z" fill="#1C2C65"/>
<path d="M12.0127 14.7529C11.4915 14.8338 11.0235 14.9034 10.5575 14.9796C9.81466 15.1006 9.59685 14.8843 9.70148 14.1335C9.78517 13.5332 9.86602 12.9329 9.9364 12.3317C9.97635 11.9887 10.1542 11.8 10.489 11.7285C11.9975 11.4065 13.4974 11.0349 15.0163 10.7719C15.7211 10.6499 16.462 10.7138 17.1849 10.7385C17.5473 10.7509 17.708 11.0844 17.5967 11.4884C17.221 12.8491 16.8387 14.2088 16.4601 15.5694C16.0531 17.033 15.6469 18.4956 15.2408 19.9592C15.2351 19.9811 15.2408 20.0049 15.2408 20.1355C15.5756 19.7981 15.8695 19.5237 16.1368 19.2264C16.326 19.0159 16.4792 18.7719 16.6513 18.5442C16.8986 18.2183 17.1906 18.1726 17.5073 18.4365C17.9553 18.8091 18.4042 19.1826 18.8189 19.5885C18.9407 19.7086 19.0263 19.9525 19.0015 20.1221C18.7095 22.1317 16.8025 24.2355 14.8423 24.7262C14.0101 24.9349 13.1664 24.9673 12.3456 24.69C11.0426 24.2489 10.4785 23.2331 10.2902 21.9459C10.1133 20.7357 10.3673 19.5847 10.7601 18.4508C11.1643 17.2855 11.5657 16.1183 11.967 14.951C11.9823 14.9072 11.988 14.8605 12.0136 14.7509L12.0127 14.7529ZM10.7972 13.8677C11.3916 13.7752 11.9404 13.6962 12.4873 13.6037C13.2349 13.478 13.4955 13.7867 13.2501 14.5013C12.6633 16.2069 12.0631 17.9077 11.5096 19.6238C11.2242 20.5071 11.1843 21.4246 11.4411 22.3318C11.6427 23.0435 12.0755 23.5419 12.8183 23.7315C13.4584 23.8954 14.0976 23.8611 14.7186 23.6724C16.4059 23.1617 17.2648 21.861 17.8478 20.3146C17.8706 20.2546 17.8478 20.1402 17.8031 20.0973C17.6196 19.9211 17.4179 19.7629 17.2315 19.6038C16.9157 19.9382 16.6523 20.266 16.3393 20.5347C16.0093 20.8186 15.6583 21.1026 15.2693 21.2855C14.6701 21.5676 14.1613 21.2255 14.1308 20.5671C14.1194 20.3213 14.1337 20.063 14.1984 19.8267C14.7329 17.8572 15.2817 15.8905 15.8267 13.9239C16.0207 13.2216 16.2147 12.5184 16.4326 11.7295C15.8115 11.7905 15.2513 11.8019 14.7091 11.9067C13.5782 12.124 12.4597 12.4003 11.3307 12.6271C11.0587 12.6814 10.9056 12.7557 10.9018 13.0606C10.8989 13.3074 10.839 13.5542 10.7953 13.8677H10.7972Z" fill="#1C2C65"/>
<path d="M12.9182 7.00531C12.921 5.4922 14.1394 4.28019 15.6641 4.27447C17.1925 4.2678 18.4242 5.49792 18.4242 7.03104C18.4242 8.55368 17.1764 9.79809 15.6574 9.78856C14.1309 9.77808 12.9144 8.5432 12.9172 7.00627L12.9182 7.00531ZM17.3647 7.02246C17.3628 6.08296 16.6171 5.33213 15.6736 5.31879C14.7529 5.3064 13.9701 6.08392 13.9701 7.01198C13.9701 7.97435 14.7234 8.729 15.6831 8.72519C16.6238 8.72138 17.3666 7.96864 17.3647 7.02246Z" fill="#1C2C65"/>
</svg>
