<svg width="36" height="32" viewBox="0 0 36 32" fill="none" xmlns="http://www.w3.org/2000/svg">
<path d="M35.9372 18.4541C35.9423 18.402 35.9597 18.3507 35.977 18.2995C35.9851 18.2757 35.9932 18.2518 36 18.2279V16.435C35.9596 16.2213 35.9241 16.0063 35.8887 15.7913C35.8124 15.3284 35.7361 14.8655 35.61 14.416L35.9372 18.4541ZM35.9372 18.4541C35.7666 20.2092 35.2416 21.8624 34.2609 23.3334C33.8503 23.9494 33.8138 24.4487 34.0547 25.1226L35.9372 18.4541ZM0.0609375 12.0705C0.0545975 12.1377 0.0383961 12.204 0.0221918 12.2703C0.0144347 12.302 0.00667698 12.3338 0 12.3656V14.0896C0.0341266 14.2773 0.0661119 14.4655 0.0981028 14.6538C0.169814 15.0757 0.241553 15.4978 0.3375 15.9155C0.657188 17.2965 1.24781 18.5662 2.06156 19.733C2.20312 19.9352 2.21906 20.0998 2.14313 20.3306C1.49719 22.2835 0.864375 24.2409 0.231562 26.1984L0.0609375 12.0705ZM0.0609375 12.0705C0.208125 10.4946 0.677813 9.01527 1.45031 7.62878L0.0609375 12.0705ZM0.532388 15.8706C0.845807 17.2244 1.42509 18.4708 2.22561 19.6186C2.3092 19.7381 2.36492 19.8599 2.38229 19.9957C2.39954 20.1305 2.37662 20.2609 2.3331 20.3931L2.33301 20.3934C1.68732 22.3455 1.05471 24.3023 0.421865 26.2599L0.421794 26.2601C0.322027 26.5675 0.341507 26.8409 0.439707 27.0418C0.535824 27.2383 0.715442 27.3834 0.980679 27.4302L0.981104 27.4303C1.20186 27.4697 1.49699 27.4119 1.72466 27.3011L1.72469 27.3011C3.62094 26.3786 5.50712 25.4358 7.3881 24.4836C7.55449 24.3992 7.71809 24.343 7.89375 24.3313C8.0705 24.3196 8.24442 24.354 8.43041 24.4286L8.43058 24.4286C9.49866 24.8583 10.6164 25.1331 11.768 25.2829C11.9524 25.3065 12.1451 25.4087 12.2713 25.5324C14.4522 27.6713 17.0829 28.9366 20.1217 29.3858C22.6874 29.7651 25.1901 29.4894 27.6061 28.5478L27.6063 28.5477C27.7661 28.4856 27.9208 28.4515 28.0814 28.458C28.2423 28.4644 28.3951 28.5111 28.552 28.5907C30.4536 29.5539 32.3603 30.5068 34.2772 31.4394L34.2775 31.4396C34.5031 31.5498 34.7983 31.6063 35.0209 31.5667L35.021 31.5667C35.2784 31.521 35.4581 31.3767 35.5563 31.1813C35.6562 30.9825 35.6784 30.7159 35.5846 30.4247L35.775 30.3633L35.5846 30.4246C35.447 29.9971 35.311 29.5696 35.1752 29.1424C34.754 27.8175 34.3339 26.4961 33.8664 25.19L33.8664 25.19C33.7397 24.8355 33.68 24.5108 33.7146 24.1852C33.7492 23.8587 33.8766 23.5494 34.0945 23.2225C35.0543 21.7826 35.5702 20.1621 35.7381 18.4347L35.7381 18.4345C35.744 18.3749 35.7595 18.3211 35.7729 18.2795C35.7796 18.2586 35.785 18.2426 35.7898 18.2286C35.7935 18.2178 35.7968 18.2082 35.8 18.1982V16.4537M0.532388 15.8706L35.8035 16.4722C35.8023 16.466 35.8012 16.4599 35.8 16.4537M0.532388 15.8706C0.437774 15.4587 0.36765 15.046 0.296447 14.627C0.265224 14.4432 0.233794 14.2582 0.2 14.0716V14.0694V14.066V14.0626V14.0593V14.0559V14.0525V14.0492V14.0458V14.0424V14.0391V14.0357V14.0323V14.029V14.0256V14.0222V14.0189V14.0155V14.0121V14.0088V14.0054V14.002V13.9987V13.9953V13.9919V13.9886V13.9852V13.9818V13.9784V13.9751V13.9717V13.9683V13.965V13.9616V13.9582V13.9549V13.9515V13.9481V13.9448V13.9414V13.938V13.9347V13.9313V13.9279V13.9246V13.9212V13.9178V13.9145V13.9111V13.9077V13.9044V13.901V13.8976V13.8943V13.8909V13.8875V13.8842V13.8808V13.8774V13.8741V13.8707V13.8673V13.864V13.8606V13.8572V13.8539V13.8505V13.8471V13.8438V13.8404V13.837V13.8337V13.8303V13.8269V13.8236V13.8202V13.8168V13.8135V13.8101V13.8067V13.8034V13.8V13.7966V13.7933V13.7899V13.7865V13.7832V13.7798V13.7764V13.7731V13.7697V13.7663V13.763V13.7596V13.7562V13.7529V13.7495V13.7461V13.7428V13.7394V13.736V13.7327V13.7293V13.7259V13.7226V13.7192V13.7158V13.7125V13.7091V13.7057V13.7024V13.699V13.6956V13.6923V13.6889V13.6855V13.6822V13.6788V13.6754V13.6721V13.6687V13.6653V13.6619V13.6586V13.6552V13.6518V13.6485V13.6451V13.6417V13.6384V13.635V13.6316V13.6283V13.6249V13.6215V13.6182V13.6148V13.6114V13.6081V13.6047V13.6013V13.598V13.5946V13.5912V13.5879V13.5845V13.5811V13.5778V13.5744V13.571V13.5677V13.5643V13.5609V13.5576V13.5542V13.5508V13.5475V13.5441V13.5407V13.5374V13.534V13.5306V13.5273V13.5239V13.5205V13.5172V13.5138V13.5104V13.5071V13.5037V13.5003V13.497V13.4936V13.4902V13.4869V13.4835V13.4801V13.4768V13.4734V13.47V13.4667V13.4633V13.4599V13.4566V13.4532V13.4498V13.4465V13.4431V13.4397V13.4364V13.433V13.4296V13.4263V13.4229V13.4195V13.4162V13.4128V13.4094V13.4061V13.4027V13.3993V13.396V13.3926V13.3892V13.3859V13.3825V13.3791V13.3758V13.3724V13.369V13.3657V13.3623V13.3589V13.3556V13.3522V13.3488V13.3454V13.3421V13.3387V13.3353V13.332V13.3286V13.3252V13.3219V13.3185V13.3151V13.3118V13.3084V13.305V13.3017V13.2983V13.2949V13.2916V13.2882V13.2848V13.2815V13.2781V13.2747V13.2714V13.268V13.2646V13.2613V13.2579V13.2545V13.2512V13.2478V13.2444V13.2411V13.2377V13.2343V13.231V13.2276V13.2242V13.2209V13.2175V13.2141V13.2108V13.2074V13.204V13.2007V13.1973V13.1939V13.1906V13.1872V13.1838V13.1805V13.1771V13.1737V13.1704V13.167V13.1636V13.1603V13.1569V13.1535V13.1502V13.1468V13.1434V13.1401V13.1367V13.1333V13.13V13.1266V13.1232V13.1199V13.1165V13.1131V13.1098V13.1064V13.103V13.0997V13.0963V13.0929V13.0896V13.0862V13.0828V13.0795V13.0761V13.0727V13.0694V13.066V13.0626V13.0593V13.0559V13.0525V13.0492V13.0458V13.0424V13.0391V13.0357V13.0323V13.0289V13.0256V13.0222V13.0188V13.0155V13.0121V13.0087V13.0054V13.002V12.9986V12.9953V12.9919V12.9885V12.9852V12.9818V12.9784V12.9751V12.9717V12.9683V12.965V12.9616V12.9582V12.9549V12.9515V12.9481V12.9448V12.9414V12.938V12.9347V12.9313V12.9279V12.9246V12.9212V12.9178V12.9145V12.9111V12.9077V12.9044V12.901V12.8976V12.8943V12.8909V12.8875V12.8842V12.8808V12.8774V12.8741V12.8707V12.8673V12.864V12.8606V12.8572V12.8539V12.8505V12.8471V12.8438V12.8404V12.837V12.8337V12.8303V12.8269V12.8236V12.8202V12.8168V12.8135V12.8101V12.8067V12.8034V12.8V12.7966V12.7933V12.7899V12.7865V12.7832V12.7798V12.7764V12.7731V12.7697V12.7663V12.763V12.7596V12.7562V12.7529V12.7495V12.7461V12.7428V12.7394V12.736V12.7327V12.7293V12.7259V12.7225V12.7192V12.7158V12.7124V12.7091V12.7057V12.7023V12.699V12.6956V12.6922V12.6889V12.6855V12.6821V12.6788V12.6754V12.672V12.6687V12.6653V12.6619V12.6586V12.6552V12.6518V12.6485V12.6451V12.6417V12.6384V12.635V12.6316V12.6283V12.6249V12.6215V12.6182V12.6148V12.6114V12.6081V12.6047V12.6013V12.598V12.5946V12.5912V12.5879V12.5845V12.5811V12.5778V12.5744V12.571V12.5677V12.5643V12.5609V12.5576V12.5542V12.5508V12.5475V12.5441V12.5407V12.5374V12.534V12.5306V12.5273V12.5239V12.5205V12.5172V12.5138V12.5104V12.5071V12.5037V12.5003V12.497V12.4936V12.4902V12.4869V12.4835V12.4801V12.4768V12.4734V12.47V12.4667V12.4633V12.4599V12.4566V12.4532V12.4498V12.4465V12.4431V12.4397V12.4364V12.433V12.4296V12.4263V12.4229V12.4195V12.4162V12.4128V12.4094V12.406V12.4027V12.3993V12.3959V12.3926V12.3892V12.3874C0.203461 12.3723 0.207614 12.3552 0.212114 12.3367C0.229587 12.2649 0.252292 12.1715 0.260052 12.0893L0.260071 12.0891C0.404587 10.5418 0.865577 9.08919 1.62502 7.72612C4.38612 2.77536 10.3023 0.280799 15.9304 1.14959L15.9609 0.952029L15.9304 1.14959C18.9531 1.61613 21.5683 2.87979 23.7411 5.00432C23.8733 5.1338 24.0723 5.22101 24.2473 5.24437L24.2475 5.24439C25.7371 5.44154 27.1653 5.83437 28.5053 6.48649C31.9815 8.17973 34.3802 10.7663 35.4174 14.4699L35.4174 14.47C35.5406 14.9089 35.6138 15.3534 35.689 15.8103C35.7238 16.0219 35.7591 16.2361 35.8 16.4537M0.532388 15.8706L35.8 16.4537M33.0607 28.7091L33.2024 28.6705C33.1878 28.6169 33.1749 28.5679 33.1629 28.5222C33.1378 28.4266 33.1166 28.346 33.0918 28.2698L33.0607 28.7091ZM33.0607 28.7091L33.0103 28.9231H33.0094H32.8565L32.8398 28.8616C32.4528 28.6687 32.0702 28.4794 31.6911 28.2918C30.7023 27.8023 29.7379 27.325 28.7838 26.8301L28.7838 26.8301C28.5504 26.7089 28.3403 26.6551 28.1326 26.6522C27.9234 26.6493 27.7042 26.6981 27.4526 26.7994C23.0662 28.5684 18.8298 28.2598 14.9334 25.5432C11.9808 23.4849 10.4011 20.6004 10.5045 16.9819C10.584 14.1753 11.8116 11.852 13.8697 9.95408C18.9968 5.22591 27.7103 5.88009 31.9733 11.3182C34.7544 14.8657 34.8028 19.6287 32.0687 23.2138L31.914 23.0959L32.0687 23.2138C31.9024 23.4318 31.8116 23.6312 31.7793 23.8305C31.7471 24.0297 31.7706 24.245 31.8587 24.499C32.1769 25.4157 32.4732 26.3412 32.7686 27.2639C32.8761 27.5997 32.9835 27.9351 33.0918 28.2696L33.0607 28.7091ZM21.1724 5.06444L20.7387 5.15206C20.4912 5.20205 20.2496 5.2462 20.0125 5.28953C19.5144 5.38052 19.0361 5.46793 18.5642 5.59838C14.3562 6.76259 11.227 9.17519 9.58833 13.1951C8.30399 16.3463 8.52101 19.48 10.0589 22.5327L10.0591 22.5332C10.1111 22.637 10.1622 22.7409 10.2123 22.8447L10.216 22.8523L10.219 22.8602C10.2355 22.9034 10.2335 22.941 10.2317 22.9588C10.2302 22.9741 10.2271 22.9887 10.2261 22.9932C10.2256 22.9958 10.225 22.9984 10.2245 23.0012C10.2218 23.0137 10.2185 23.0293 10.2141 23.0543L10.1715 23.2916L9.94616 23.206C9.80995 23.1542 9.66996 23.1041 9.5285 23.0535C9.19455 22.934 8.85244 22.8115 8.53267 22.6577L8.53264 22.6577C8.30131 22.5463 8.09209 22.4959 7.88931 22.4985C7.6866 22.5011 7.47738 22.557 7.24625 22.677C6.28252 23.1781 5.30746 23.6609 4.31589 24.152C3.91362 24.3512 3.50862 24.5518 3.10057 24.7554L2.73597 24.9374L2.81505 24.5377C2.82319 24.4966 2.829 24.4622 2.83476 24.4282C2.83725 24.4134 2.83973 24.3988 2.84239 24.3837C2.85067 24.3365 2.86049 24.2859 2.87698 24.2343L2.87713 24.2339C2.94926 24.0098 3.02134 23.7857 3.09343 23.5616C3.45398 22.4405 3.81484 21.3185 4.18546 20.1997M21.1724 5.06444L4.37531 20.2626M21.1724 5.06444L20.82 4.79676C20.804 4.78455 20.7873 4.77139 20.7706 4.75817C20.7358 4.73071 20.7007 4.70297 20.6698 4.68289M21.1724 5.06444L20.6698 4.68289M4.18546 20.1997L4.37531 20.2626M4.18546 20.1997C4.18542 20.1998 4.18539 20.1999 4.18535 20.2L4.37531 20.2626M4.18546 20.1997C4.25027 20.0027 4.26514 19.8309 4.23777 19.6727C4.21039 19.5145 4.13846 19.3569 4.01022 19.1919L4.16813 19.0692M4.37531 20.2626C4.52156 19.8185 4.45687 19.4406 4.16813 19.0692M4.16813 19.0692L4.01022 19.1919C0.654298 14.8746 1.36266 8.98131 5.75874 5.41759L5.75875 5.41759C8.38005 3.29274 11.4308 2.44532 14.7986 2.70169C16.7895 2.85303 18.6364 3.45035 20.3389 4.47288L20.3393 4.4731C20.4523 4.54132 20.5627 4.61292 20.6698 4.68289M4.16813 19.0692L20.6698 4.68289M3.01125 24.5765L2.92193 24.3975C2.9672 24.375 3.01242 24.3524 3.05758 24.3299C3.04767 24.3688 3.04063 24.4103 3.03242 24.4588C3.02649 24.4939 3.01994 24.5326 3.01125 24.5765ZM3.01125 24.5765L3.20745 24.6153C3.21672 24.5685 3.22403 24.5253 3.23008 24.4895C3.23152 24.481 3.23288 24.473 3.23419 24.4654C3.15999 24.5023 3.08568 24.5393 3.01125 24.5765Z" fill="#1C2C65" stroke="#F2F3F7" stroke-width="0.4"/>
<path d="M17.9944 16.498L17.9944 16.498C17.5308 16.5003 17.1477 16.8826 17.1462 17.3284C17.1447 17.7741 17.5254 18.1587 17.9891 18.164L17.9894 18.164C18.4637 18.17 18.8595 17.7753 18.8528 17.3198L17.9944 16.498ZM17.9944 16.498C18.4574 16.4958 18.8461 16.8748 18.8528 17.3197L17.9944 16.498Z" fill="#1C2C65" stroke="#F2F3F7" stroke-width="0.4"/>
<path d="M27.2885 17.3672L27.2884 17.3299C27.2877 16.8855 26.904 16.5019 26.4399 16.4989C25.9761 16.4959 25.5888 16.8731 25.5828 17.3194L27.2885 17.3672ZM27.2885 17.3672C27.2681 17.7957 26.8943 18.1598 26.4446 18.1649L27.2885 17.3672ZM26.4446 18.1649C25.9706 18.1701 25.5768 17.7767 25.5828 17.3194L26.4446 18.1649Z" fill="#1C2C65" stroke="#F2F3F7" stroke-width="0.4"/>
<path d="M22.211 16.498L22.211 16.498C21.7462 16.5018 21.365 16.8841 21.365 17.3305C21.365 17.7773 21.7465 18.1604 22.2103 18.1649C22.6845 18.1694 23.079 17.7732 23.0716 17.3183L22.211 16.498ZM22.211 16.498C22.6738 16.4943 23.0641 16.8726 23.0716 17.3182L22.211 16.498Z" fill="#1C2C65" stroke="#F2F3F7" stroke-width="0.4"/>
</svg>
