<svg width="35" height="31" viewBox="0 0 35 31" fill="none" xmlns="http://www.w3.org/2000/svg">
<path d="M1.067 3.65114L1.06703 3.65114C1.46358 3.66243 1.79253 3.96644 1.84413 4.3427L1.84414 4.34272C1.8921 4.69226 1.66059 5.05871 1.28841 5.17974L1.2881 5.17984C0.909975 5.30349 0.496715 5.1443 0.30001 4.80049C0.266742 4.74122 0.233446 4.68135 0.2 4.62109V4.25379C0.289556 4.06055 0.396783 3.91164 0.526922 3.81097C0.661437 3.70692 0.833078 3.64444 1.067 3.65114Z" fill="#1C2C65" stroke="#F2F3F7" stroke-width="0.4"/>
<path d="M20.4977 24.741L20.4794 24.9402C20.6572 24.9565 20.8299 24.9843 21.0194 25.0148C21.1085 25.0291 21.2013 25.044 21.3001 25.0586L21.5294 25.0925V24.8607V24.4612V24.4438V24.4264V24.409V24.3916V24.3742V24.3568V24.3394V24.322V24.3046V24.2872V24.2698V24.2524V24.235V24.2176V24.2002V24.1828V24.1654V24.148V24.1306V24.1132V24.0958V24.0784V24.061V24.0436V24.0262V24.0088V23.9914V23.974V23.9566V23.9392V23.9218V23.9044V23.887V23.8696V23.8522V23.8348V23.8174V23.8V23.7826V23.7652V23.7478V23.7304V23.713V23.6956V23.6782V23.6608V23.6434V23.626V23.6086V23.5912V23.5738V23.5564V23.539V23.5216V23.5042V23.4868V23.4694V23.452V23.4346V23.4172V23.3998V23.3824V23.365V23.3476V23.3302V23.3128V23.2954V23.278V23.2606V23.2432V23.2258V23.2084V23.191V23.1736V23.1562V23.1388V23.1214V23.104V23.0866V23.0692V23.0518V23.0344V23.017V22.9996V22.9822V22.9648V22.9474V22.93V22.9126V22.8952V22.8778V22.8604V22.843V22.8256V22.8082V22.7908V22.7734V22.756V22.7386V22.7212V22.7038V22.6864V22.669V22.6516V22.6342V22.6168V22.5994V22.582V22.5646V22.5472V22.5298V22.5124V22.495V22.4776V22.4602V22.4428V22.4254V22.408V22.3906V22.3732V22.3558V22.3384V22.321V22.3036V22.2862V22.2688V22.2514V22.234V22.2166V22.1992V22.1818V22.1644V22.147V22.1296V22.1122V22.0948V22.0774V22.06V22.0426V22.0252V22.0078V21.9904V21.973V21.9556V21.9382V21.9208V21.9034V21.886V21.8686V21.8512V21.8338V21.8164V21.799V21.7816V21.7642V21.7468V21.7294V21.712V21.6946V21.6772V21.6598V21.6424V21.625V21.6076V21.5902V21.5728V21.5554V21.538V21.5206V21.5032V21.4858V21.4684V21.451V21.4336V21.4162V21.3988V21.3814V21.364V21.3466V21.3292V21.3118V21.2944V21.277V21.2596V21.2422V21.2248V21.2074V21.1899V21.1726V21.1552V21.1378V21.1203V21.103V21.0856V21.0682V21.0507V21.0333V21.016V20.9985V20.9811V20.9637V20.9464V20.9289V20.9115V20.8941V20.8767V20.8593V20.8419V20.8245V20.8071V20.7897V20.7723V20.7549V20.7375V20.7201V20.7027V20.6853V20.6679V20.6505V20.6331V20.6157V20.5983V20.5809V20.5635V20.5461V20.5287V20.5113V20.4939V20.4765V20.4591V20.4417V20.4243V20.4069V20.3895V20.3721V20.3547V20.3373V20.3199V20.3025V20.2851V20.2677V20.2503V20.2329V20.2155V20.1981V20.1807V20.1633V20.1459V20.1285V20.1111V20.0937V20.0763V20.0589V20.0415V20.0241V20.0067V19.9893V19.9719V19.9545V19.9371V19.9197V19.9023V19.8849V19.8675V19.8501V19.8327V19.8153V19.7979V19.7805V19.7631V19.7457V19.7283V19.7109V19.6935V19.6761V19.6587V19.6413V19.6239V19.6065V19.5891V19.5717V19.5543V19.5369V19.5195V19.5021V19.4847V19.4673V19.4499V19.4325V19.4151V19.3977V19.3803V19.3629V19.3455V19.3281V19.3107V19.2933V19.2759V19.2585V19.2411V19.2237V19.2063V19.1889V19.1715V19.1541V19.1367V19.1193V19.1019V19.0845V19.0671V19.0497V19.0323V19.0149V18.9975V18.9801V18.9627V18.9453V18.9279V18.9105V18.8931V18.8757V18.8583V18.8409V18.8235V18.8061V18.7887V18.7713V18.7539V18.7365V18.7191V18.7017V18.6843V18.6669V18.6495V18.6321V18.6147V18.5973V18.5799V18.5625V18.5451V18.5277V18.5103V18.4929V18.4755V18.4581V18.4407V18.4233V18.4059V18.3885V18.3711V18.3537V18.3363V18.3189V18.3015V18.2841V18.2667V18.2493V18.2319V18.2145V18.1971V18.1797V18.1623V18.1449V18.1275V18.1101V18.0927V18.0753V18.0579V18.0405V18.0231V18.0057V17.9883V17.9709V17.9535V17.9361V17.9187V17.9013V17.8839V17.8665V17.8491V17.8317V17.8143V17.7969V17.7795V17.7621V17.7447V17.7273V17.7099V17.6925V17.6751V17.6577V17.6403V17.6229V17.6055V17.5881V17.5707V17.5533V17.5359V17.5185V17.5011V17.4837V17.4663V17.4489V17.4315V17.4141V17.3967V17.3793V17.3619V17.3445V17.3271V17.3097V17.2923V17.2749V17.2575V17.2401V17.2227V17.2053V17.1879V17.1705V17.1531V17.1357V17.1183V17.1009V17.0835V17.0661V17.0487V17.0313V17.0139V16.9965V16.9791V16.9617V16.9443V16.9269V16.9095V16.8921V16.8747V16.8573V16.8399V16.8225V16.8051V16.7877V16.7703V16.7529V16.7355V16.7181V16.7007V16.6833V16.6659V16.6485V16.6311V16.6137V16.5963V16.5789V16.5615V16.5441V16.5267V16.5093V16.4919V16.4745V16.4571V16.4397V16.4223V16.4049V16.3875V16.3701V16.3527V16.3353V16.3179V16.3005V16.2831V16.2657V16.2483V16.2309V16.2135V16.1961V16.1787V16.1613V16.1439V16.1265V16.1091V16.0917V16.0743V16.0569V16.0395V16.0221V16.0047V15.9873V15.9699V15.9525V15.9351V15.9177V15.9003V15.8829V15.8655V15.8481V15.8307V15.8133V15.7959V15.7785V15.7611V15.7437V15.7263V15.7089V15.6915V15.6741V15.6567V15.6393V15.6219V15.6045V15.5871V15.5697V15.5523C21.5294 15.199 21.5734 15.0093 21.6671 14.8754C21.7619 14.7398 21.9315 14.6271 22.2734 14.491L22.2734 14.491C23.2429 14.105 24.2131 13.7201 25.1834 13.3352C27.9353 12.2437 30.6881 11.1517 33.4286 10.0315C33.8364 9.86486 34.1776 9.91331 34.411 10.0716C34.6458 10.2309 34.8031 10.5225 34.8 10.9062C34.7671 14.8557 34.7726 18.8059 34.7927 22.7547V22.7547C34.7962 23.4207 34.6602 23.9807 34.3814 24.4523C34.1025 24.924 33.6727 25.3211 33.0663 25.6485C32.2115 26.1095 31.3889 26.3426 30.4844 26.0571L30.4844 26.0571C29.3527 25.7001 28.6688 24.9578 28.4909 23.834L28.4909 23.8339C28.3982 23.2506 28.4651 22.7348 28.6736 22.2853C28.8825 21.8351 29.2395 21.4384 29.7472 21.1041C30.4716 20.6278 31.1908 20.249 32.0528 20.3205C32.2379 20.3361 32.4167 20.3646 32.608 20.395C32.6997 20.4095 32.7942 20.4245 32.8936 20.4388L33.1221 20.4717V20.2409V16.1544V16.0287L33.0089 15.9742L33.0071 15.9733L32.9279 15.9351L32.8462 15.9677C31.9496 16.325 31.0805 16.6718 30.2113 17.0186C29.7886 17.187 29.366 17.3555 28.9434 17.524C27.1807 18.2268 25.4189 18.9293 23.6522 19.6198L23.652 19.6199C23.492 19.6826 23.3585 19.7655 23.273 19.9C23.189 20.0322 23.1712 20.1838 23.1717 20.3366L23.1717 20.337C23.1779 21.511 23.1774 22.685 23.1768 23.8597L23.1768 23.9161C23.1762 25.1094 23.1758 26.3033 23.1826 27.497C23.1861 28.1161 23.0514 28.6374 22.7856 29.0797C22.5194 29.5226 22.1143 29.8987 21.5582 30.2151C20.6318 30.7422 19.7339 30.9918 18.7396 30.628L18.7395 30.628C17.6869 30.2431 17.054 29.5141 16.8882 28.4603C16.7141 27.3525 17.1041 26.434 18.0608 25.7792L18.0608 25.7792C18.8106 25.2658 19.567 24.858 20.4797 24.9402L20.4977 24.741ZM20.4977 24.741C19.5108 24.6521 18.7037 25.0966 17.9478 25.6141L34.9927 22.7537C34.9726 18.8053 34.9671 14.8561 35 10.9078C35.0073 10.0268 34.2705 9.47142 33.353 9.84636C30.6135 10.9661 27.8621 12.0575 25.1104 13.149C24.14 13.534 23.1694 13.9189 22.1994 14.3052C21.5028 14.5824 21.3294 14.8271 21.3294 15.5523V24.4612V24.6585C21.3391 24.66 21.3489 24.6615 21.3586 24.6629L21.3294 24.8607H21.1294V24.8298C21.1058 24.826 21.0824 24.8223 21.0591 24.8185C20.8657 24.7875 20.6823 24.758 20.4977 24.741ZM32.8992 11.9867H32.9339H32.9349H33.1349V12.1867C33.1349 12.3316 33.1356 12.4751 33.1364 12.6176C33.1386 13.0423 33.1408 13.4573 33.1228 13.8703L32.8992 11.9867ZM32.8992 11.9867L32.8665 11.9984C32.8207 12.0148 32.7768 12.03 32.7347 12.0446C32.6544 12.0725 32.5804 12.0982 32.5114 12.1258M32.8992 11.9867L32.5114 12.1258M32.5114 12.1258C31.8274 12.396 31.1435 12.668 30.4607 12.94L30.4607 12.94C30.1681 13.0566 29.8755 13.1731 29.5828 13.2897C27.5847 14.0858 25.5861 14.882 23.5902 15.6836L23.5896 15.6838C23.5197 15.7121 23.4366 15.7579 23.3673 15.8113C23.3326 15.838 23.2952 15.8713 23.2643 15.9105C23.2361 15.9464 23.1965 16.0082 23.1929 16.089L23.1928 16.0894C23.1747 16.5129 23.1766 16.9388 23.1786 17.3779C23.1792 17.5178 23.1799 17.6591 23.1799 17.802V18.0935L23.4518 17.9886C23.5453 17.9526 23.6325 17.9192 23.7157 17.8875C23.8656 17.8303 24.002 17.7782 24.1366 17.7247L24.1367 17.7246C24.406 17.6174 24.6752 17.5102 24.9445 17.4031C27.5445 16.368 30.1445 15.3329 32.7415 14.292C32.7416 14.292 32.7417 14.2919 32.7418 14.2919L32.6674 14.1063L32.5114 12.1258ZM31.3238 24.6022H31.3239C31.4569 24.6013 31.6108 24.5613 31.759 24.5071C31.911 24.4515 32.0727 24.375 32.2262 24.2887C32.3796 24.2024 32.5286 24.1042 32.6544 24.0036C32.7769 23.9057 32.8905 23.7952 32.959 23.6819L32.9591 23.6818C33.2278 23.2368 33.1753 22.7006 32.8302 22.309L32.8301 22.3089C32.4961 21.9307 31.9382 21.7734 31.4544 21.9872L31.4544 21.9872C31.1457 22.1237 30.843 22.2891 30.5663 22.4823L30.5662 22.4824C30.1322 22.7858 29.9955 23.3372 30.1616 23.8093L30.1617 23.8097C30.3261 24.2743 30.8222 24.6053 31.3238 24.6022ZM21.4974 28.018H21.5261L21.5248 27.8167C21.5185 26.8532 20.6369 26.2641 19.8232 26.6152L19.823 26.6153C19.5426 26.7366 19.2712 26.8872 19.0206 27.059C18.2855 27.5601 18.3389 28.6317 19.1067 29.0595L19.1069 29.0596C19.444 29.2469 19.7547 29.2491 20.0408 29.1663C20.2671 29.1008 20.4843 28.9787 20.6781 28.8698C20.7152 28.8489 20.7514 28.8286 20.7867 28.8092C21.131 28.6203 21.4121 28.3511 21.4974 28.018Z" fill="#1C2C65" stroke="#F2F3F7" stroke-width="0.4"/>
<path d="M7.36522 13.1555C7.24167 12.4124 6.42623 11.9588 5.6927 12.274L5.69266 12.274C5.40309 12.3985 5.1184 12.553 4.85981 12.7365C4.13062 13.2528 4.22059 14.3242 5.0006 14.7323L5.00067 14.7324C5.43692 14.9604 6.01983 14.8456 6.47134 14.6076C6.92116 14.3705 7.34284 13.9566 7.38154 13.4699L7.18216 13.4541M7.36522 13.1555L7.18216 13.3555C7.18216 13.3663 7.18247 13.3772 7.18277 13.3882C7.18338 13.4102 7.18399 13.4323 7.18216 13.4541M7.36522 13.1555H7.38216V13.3555C7.38216 13.3572 7.38226 13.3607 7.3824 13.3657C7.38301 13.3875 7.38436 13.4364 7.38146 13.4708L7.18216 13.4541M7.36522 13.1555L7.16682 13.5555M7.18216 13.4541V13.5555H7.18125H7.16682M7.16682 13.5555C7.00512 14.283 5.76438 14.9059 5.09332 14.5551L7.16682 13.5555ZM9.44088 3.15853V2.97885L9.17968 3.06279L9.17694 3.06367L8.81652 3.1795L9.04088 3.35402V3.52164C9.04088 4.43893 9.04013 5.35637 9.03939 6.27391C9.03752 8.56811 9.03566 10.8629 9.04544 13.1574C9.04805 13.7771 8.91314 14.2982 8.64717 14.74C8.38083 15.1825 7.97558 15.5578 7.41858 15.8739C6.52453 16.3807 5.65663 16.6328 4.68948 16.3138C3.59676 15.9533 2.9407 15.2211 2.75514 14.1445C2.57156 13.0793 2.92187 12.1699 3.82424 11.5131L3.82427 11.5131C4.63107 10.9256 5.46286 10.4834 6.47599 10.6116C6.61308 10.6292 6.74631 10.653 6.90007 10.6806C6.97919 10.6948 7.06374 10.7099 7.15706 10.7257L7.39038 10.7651V10.5285V10.5277V10.527V10.5262V10.5254V10.5247V10.5239V10.5232V10.5224V10.5217V10.5209V10.5201V10.5194V10.5186V10.5179V10.5171V10.5164V10.5156V10.5148V10.5141V10.5133V10.5126V10.5118V10.5111V10.5103V10.5096V10.5088V10.508V10.5073V10.5065V10.5058V10.505V10.5043V10.5035V10.5028V10.502V10.5013V10.5005V10.4997V10.499V10.4982V10.4975V10.4967V10.496V10.4952V10.4945V10.4937V10.493V10.4922V10.4915V10.4907V10.49V10.4892V10.4885V10.4877V10.4869V10.4862V10.4854V10.4847V10.4839V10.4832V10.4824V10.4817V10.4809V10.4802V10.4794V10.4787V10.4779V10.4772V10.4764V10.4757V10.4749V10.4742V10.4734V10.4727V10.4719V10.4712V10.4704V10.4697V10.4689V10.4682V10.4674V10.4667V10.4659V10.4652V10.4644V10.4637V10.4629V10.4622V10.4614V10.4607V10.4599V10.4592V10.4585V10.4577V10.457V10.4562V10.4555V10.4547V10.454V10.4532V10.4525V10.4517V10.451V10.4502V10.4495V10.4487V10.448V10.4472V10.4465V10.4457V10.445V10.4443V10.4435V10.4428V10.442V10.4413V10.4405V10.4398V10.439V10.4383V10.4375V10.4368V10.4361V10.4353V10.4346V10.4338V10.4331V10.4323V10.4316V10.4308V10.4301V10.4293V10.4286V10.4279V10.4271V10.4264V10.4256V10.4249V10.4241V10.4234V10.4227V10.4219V10.4212V10.4204V10.4197V10.4189V10.4182V10.4174V10.4167V10.416V10.4152V10.4145V10.4137V10.413V10.4122V10.4115V10.4108V10.41V10.4093V10.4085V10.4078V10.407V10.4063V10.4056V10.4048V10.4041V10.4033V10.4026V10.4019V10.4011V10.4004V10.3996V10.3989V10.3981V10.3974V10.3967V10.3959V10.3952V10.3944V10.3937V10.393V10.3922V10.3915V10.3907V10.39V10.3893V10.3885V10.3878V10.387V10.3863V10.3856V10.3848V10.3841V10.3833V10.3826V10.3819V10.3811V10.3804V10.3796V10.3789V10.3782V10.3774V10.3767V10.3759V10.3752V10.3745V10.3737V10.373V10.3722V10.3715V10.3708V10.37V10.3693V10.3686V10.3678V10.3671V10.3663V10.3656V10.3649V10.3641V10.3634V10.3626V10.3619V10.3612V10.3604V10.3597V10.359V10.3582V10.3575V10.3567V10.356V10.3553V10.3545V10.3538V10.3531V10.3523V10.3516V10.3508V10.3501V10.3494V10.3486V10.3479V10.3472V10.3464V10.3457V10.345V10.3442V10.3435V10.3427V10.342V10.3413V10.3405V10.3398V10.3391V10.3383V10.3376V10.3369V10.3361V10.3354V10.3346V10.3339V10.3332V10.3324V10.3317V10.331V10.3302V10.3295V10.3288V10.328V10.3273V10.3266V10.3258V10.3251V10.3243V10.3236V10.3229V10.3221V10.3214V10.3207V10.3199V10.3192V10.3185V10.3177V10.317V10.3163V10.3155V10.3148V10.3141V10.3133V10.3126V10.3119V10.3111V10.3104V10.3096V10.3089V10.3082V10.3074V10.3067V10.306V10.3052V10.3045V10.3038V10.303V10.3023V10.3016V10.3008V10.3001V10.2994V10.2986V10.2979V10.2972V10.2964V10.2957V10.295V10.2942V10.2935V10.2928V10.292V10.2913V10.2906V10.2898V10.2891V10.2884V10.2876V10.2869V10.2862V10.2854V10.2847V10.284V10.2832V10.2825V10.2818V10.281V10.2803V10.2796V10.2788V10.2781V10.2774V10.2766V10.2759V10.2752V10.2744V10.2737V10.273V10.2722V10.2715V10.2708V10.27V10.2693V10.2686V10.2678V10.2671V10.2664V10.2656V10.2649V10.2642V10.2634V10.2627V10.262V10.2612V10.2605V10.2598V10.259V10.2583V10.2576V10.2569V10.2561V10.2554V10.2547V10.2539V10.2532V10.2525V10.2517V10.251V10.2503V10.2495V10.2488V10.2481V10.2473V10.2466V10.2459V10.2451V10.2444V10.2437V10.2429V10.2422V10.2415V10.2407V10.24V10.2393V10.2386V10.2378V10.2371V10.2364V10.2356V10.2349V10.2342V10.2334V10.2327V10.232V10.2312V10.2305V10.2298V10.229V10.2283V10.2276V10.2268V10.2261V10.2254V10.2246V10.2239V10.2232V10.2225V10.2217V10.221V10.2203V10.2195V10.2188V10.2181V10.2173V10.2166V10.2159V10.2151V10.2144V10.2137V10.2129V10.2122V10.2115V10.2107V10.21V10.2093V10.2086V10.2078V10.2071V10.2064V10.2056V10.2049V10.2042V10.2034V10.2027V10.202V10.2012V10.2005V10.1998V10.199V10.1983V10.1976V10.1968V10.1961V10.1954V10.1947V10.1939V10.1932V10.1925V10.1917V10.191V10.1903V10.1895V10.1888V10.1881V10.1873V10.1866V10.1859V10.1851V10.1844V10.1837V10.1829V10.1822V10.1815V10.1807V10.18V10.1793V10.1786V10.1778V10.1771V10.1764V10.1756V10.1749V10.1742V10.1734V10.1727V10.172V10.1712V10.1705V10.1698V10.169V10.1683V10.1676V10.1668V10.1661V10.1654V10.1646V10.1639V10.1632V10.1625V10.1617V10.161V10.1603V10.1595V10.1588V10.1581V10.1573V10.1566V10.1559V10.1551V10.1544V10.1537V10.1529V10.1522V10.1515V10.1507V10.15V10.1326V10.1152V10.0978V10.0804V10.063V10.0456V10.0282V10.0108V9.99341V9.97601V9.95861V9.94121V9.92381V9.90641V9.88901V9.87161V9.85421V9.83681V9.81941V9.80201V9.78461V9.76721V9.74981V9.73241V9.71501V9.69761V9.68021V9.66281V9.64541V9.62801V9.61061V9.59321V9.57581V9.55841V9.54101V9.52361V9.50621V9.4888V9.47141V9.45401V9.43661V9.4192V9.4018V9.38441V9.367V9.3496V9.3322V9.3148V9.2974V9.28V9.2626V9.2452V9.2278V9.2104V9.193V9.1756V9.1582V9.1408V9.1234V9.106V9.0886V9.0712V9.0538V9.0364V9.019V9.0016V8.9842V8.9668V8.9494V8.932V8.9146V8.8972V8.8798V8.8624V8.845V8.8276V8.8102V8.7928V8.7754V8.758V8.7406V8.7232V8.7058V8.6884V8.671V8.6536V8.6362V8.6188V8.6014V8.584V8.5666V8.5492V8.5318V8.5144V8.497V8.4796V8.4622V8.4448V8.4274V8.41V8.3926V8.3752V8.3578V8.34039V8.323V8.3056V8.28819V8.27079V8.25339V8.23599V8.21859V8.20119V8.18379V8.16639V8.14899V8.13159V8.11419V8.09679V8.07939V8.06199V8.04459V8.02719V8.00979V7.99239V7.97499V7.95759V7.94019V7.92279V7.90539V7.88799V7.87059V7.85319V7.83579V7.81839V7.80099V7.78359V7.76618V7.74878V7.73138V7.71398V7.69658V7.67918V7.66178V7.64438V7.62698V7.60958V7.59218V7.57478V7.55738V7.53998V7.52258V7.50518V7.48778V7.47038V7.45298V7.43558V7.41818V7.40077V7.38337V7.36597V7.34857V7.33117V7.31377V7.29637V7.27897V7.26157V7.24417V7.22677V7.20937V7.19197V7.17457V7.15717V7.13977V7.12237V7.10496V7.08756V7.07016V7.05276V7.03536V7.01796V7.00056V6.98316V6.96576V6.94836V6.93096V6.91356V6.89616V6.87876V6.86135V6.84395V6.82655V6.80915V6.79175V6.77435V6.75695V6.73955V6.72215V6.70475V6.68735V6.66995V6.65255V6.63514V6.61774V6.60034V6.58294V6.56554V6.54814V6.53074V6.51334V6.49594V6.47854V6.46114V6.44373V6.42633V6.40893V6.39153V6.37413V6.35673V6.33933V6.32193V6.30453V6.28713V6.26973V6.25232V6.23492V6.21752V6.20012V6.18272V6.16532V6.14792V6.13052V6.11312V6.09571V6.07831V6.06091V6.04351V6.02611V6.00871V5.99131V5.97391V5.95651V5.9391V5.9217V5.9043V5.8869V5.8695V5.8521V5.8347V5.8173V5.79989V5.78249V5.76509V5.74769V5.73029V5.71289V5.69549V5.67809V5.66068V5.64328V5.62588V5.60848V5.59108V5.57368V5.55628V5.53887V5.52147V5.50407V5.48667V5.46927V5.45187V5.43447V5.41706V5.39966V5.38226V5.36486V5.34746V5.33006V5.31265V5.29525V5.27785V5.26045V5.24305V5.22565V5.20825V5.19084V5.17344V5.15604V5.13864V5.12124V5.10384V5.08643V5.06903V5.05163V5.03423V5.01683V4.99942V4.98202V4.96462V4.94722V4.92982V4.91242V4.89501V4.87761V4.86021V4.84281V4.82541V4.808V4.7906V4.7732V4.7558V4.7384V4.72099V4.70359V4.68619V4.66879V4.65139V4.63399V4.61658V4.59918V4.58178V4.56438V4.54697V4.52957V4.51217V4.49477V4.47737V4.45996V4.44256V4.42516V4.40776V4.39036V4.37295V4.35555V4.33815V4.32075V4.30334V4.28594V4.26854V4.25114V4.23374V4.21633V4.19893V4.18153V4.16413V4.14672V4.12932V4.11192V4.09452V4.07711V4.05971V4.04231V4.02491V4.0075V3.9901V3.9727V3.9553V3.93789V3.92049V3.90309V3.88569V3.86828V3.85088V3.83348V3.81608V3.79867V3.78127V3.76387V3.74646V3.72906V3.71166V3.69426V3.67685V3.65945V3.64205V3.62465V3.60724V3.58984V3.57244V3.55503V3.53763V3.52023V3.50283V3.48542V3.46802V3.45062V3.43321V3.41581V3.39841V3.381V3.3636V3.3462V3.3288V3.31139V3.29399V3.27659V3.25918V3.24178V3.22438V3.20697V3.18957V3.17217V3.15476V3.13736V3.11996V3.10255V3.08515V3.06775V3.05034V3.03294V3.01554V2.99813V2.98073V2.96333V2.94592V2.92852V2.91112V2.89371V2.87631V2.85891V2.8415V2.8241V2.8067V2.78929V2.77189V2.75449V2.73708V2.71968V2.70228V2.68487V2.66747V2.65006V2.63266V2.61526V2.59785V2.58045V2.56305V2.54564V2.52824V2.51083V2.49343V2.47603V2.45862V2.44122V2.42381V2.40641V2.38901V2.3716V2.3542V2.33679V2.31939V2.30199V2.28458V2.26718V2.24977V2.23237V2.21497V2.19756V2.18016V2.16275V2.14535V2.12795V2.11054V2.09314V2.07573V2.05833V2.04092V2.02352V2.00612V1.98871V1.97131V1.9539V1.9365V1.91909V1.90169V1.88428V1.86688V1.84948V1.83207V1.81467V1.79726V1.77986V1.76245V1.74505V1.72764V1.71024V1.69283V1.67543V1.65802V1.64062V1.62322V1.60581V1.58841V1.571V1.5536V1.53619V1.51879V1.50138V1.48398V1.46657V1.44917V1.43176V1.41436V1.39695V1.37955V1.36214V1.34474V1.32733V1.30993V1.29252V1.27512V1.25771V1.24031C7.39038 0.794003 7.50562 0.52898 7.68637 0.381421C7.87073 0.230925 8.17374 0.160618 8.64431 0.222252L8.64437 0.222261C9.40053 0.321037 9.95122 0.681606 10.3394 1.30234L10.3396 1.30272C10.3488 1.31729 10.3579 1.33178 10.367 1.34619C10.4711 1.51155 10.569 1.66717 10.6506 1.8299L10.6507 1.82992C11.024 2.57405 11.7039 2.77954 12.4157 2.82351L12.4158 2.82352C12.4837 2.82767 12.5486 2.83046 12.6112 2.83316C12.809 2.84167 12.9831 2.84915 13.1501 2.89507L13.1502 2.89511C13.5064 2.99273 13.7189 3.32382 13.6832 3.70635L13.6832 3.70663C13.6503 4.06364 13.3645 4.3763 13.0283 4.39393C11.9386 4.45081 10.924 4.29981 10.0653 3.6435L10.0651 3.64333C9.8932 3.51235 9.72378 3.3798 9.5644 3.25511C9.52249 3.22231 9.48127 3.19006 9.44088 3.15853Z" fill="#1C2C65" stroke="#F2F3F7" stroke-width="0.4"/>
<path d="M13.001 24.3061H13.0178H13.0188H13.1847L13.2022 24.3993C13.2531 24.3997 13.3036 24.4003 13.3538 24.4009C13.5783 24.4035 13.7963 24.4061 14.0175 24.396C14.4785 24.3748 14.8109 24.0428 14.833 23.6447C14.8555 23.2348 14.5356 22.8458 14.1616 22.8419L13.001 24.3061ZM13.001 24.3061L12.9844 24.3089M13.001 24.3061L12.9844 24.3089M12.9844 24.3089C12.7829 24.3431 12.5758 24.3734 12.3661 24.4041C11.8798 24.4752 11.3795 24.5484 10.9024 24.6774M12.9844 24.3089L10.9024 24.6774M11.2991 22.9419L11.299 22.942C9.76257 23.1635 8.5259 23.9536 7.52789 25.1226C6.73093 26.0577 5.70034 26.6262 4.44247 26.7358C3.97443 26.7767 3.49817 26.7771 3.03243 26.7775L11.2991 22.9419ZM11.2991 22.9419C12.1479 22.8191 13.0233 22.829 13.9082 22.8391M11.2991 22.9419L13.9082 22.8391M10.9024 24.6774C10.0539 24.9063 9.3937 25.4399 8.85175 26.0719C7.53491 27.6062 5.84114 28.3557 3.77742 28.3609C3.77739 28.3609 3.77736 28.3609 3.77733 28.3609L3.77783 28.5609C3.66964 28.5611 3.56146 28.5615 3.45327 28.562C3.12872 28.5633 2.80416 28.5646 2.47961 28.56L2.48258 28.36C2.48254 28.36 2.48249 28.36 2.48245 28.36C1.9172 28.3516 1.56195 27.9902 1.57033 27.5535L10.9024 24.6774ZM13.9082 22.8391C13.9926 22.8401 14.077 22.841 14.1615 22.8419L13.9082 22.8391ZM1.81784 27.007C1.97158 26.873 2.19843 26.7852 2.48361 26.7805L1.57033 27.5534C1.57474 27.325 1.66606 27.1392 1.81784 27.007Z" fill="#1C2C65" stroke="#F2F3F7" stroke-width="0.4"/>
<path d="M23.3956 8.26799C23.5544 8.25602 23.7106 8.24669 23.865 8.23747C24.2546 8.2142 24.6325 8.19163 25.0105 8.12904C26.5635 7.87157 27.8188 7.11096 28.8224 5.93705L28.8225 5.93695C29.5941 5.0357 30.5816 4.4568 31.8008 4.33307L31.801 4.33305C32.2837 4.28445 32.7789 4.28303 33.2624 4.28165C33.4885 4.281 33.712 4.28036 33.9304 4.2749L33.9305 4.2749C34.4461 4.26221 34.79 3.91205 34.7872 3.48247L34.7872 3.48215C34.785 3.05491 34.437 2.70614 33.9211 2.69713C33.9211 2.69713 33.921 2.69712 33.921 2.69712L23.3956 8.26799ZM23.3956 8.26799L23.3983 8.25623L23.3964 8.25535L23.0779 8.10172L23.0904 8.2373" fill="#1C2C65" stroke="#F2F3F7" stroke-width="0.4"/>
<path d="M15.7931 15.6605L15.7931 15.6605C15.7896 15.2337 15.4292 14.8819 14.9643 14.8863L15.7931 15.6605ZM15.7931 15.6605C15.7967 16.0856 15.4356 16.4521 14.98 16.4578L14.98 16.4578M15.7931 15.6605L14.98 16.4578M14.98 16.4578C14.5311 16.4635 14.1513 16.0953 14.1463 15.6767L14.98 16.4578ZM14.1463 15.6767C14.1413 15.2578 14.5041 14.8906 14.9643 14.8863L14.1463 15.6767Z" fill="#1C2C65" stroke="#F2F3F7" stroke-width="0.4"/>
</svg>
