<svg width="41" height="40" viewBox="0 0 41 40" fill="none" xmlns="http://www.w3.org/2000/svg">
<path d="M29.4666 7.94839C29.405 7.88665 29.345 7.82393 29.2864 7.76268L29.2861 7.76241C29.227 7.70065 29.1693 7.64039 29.1107 7.58172C24.9772 3.45152 20.0483 1.73134 14.3289 2.77039C5.83399 4.31451 0.0287316 12.1897 0.950391 20.9125L0.950392 20.9125C1.56829 26.766 4.5403 31.1065 9.63704 33.9365C10.2117 34.255 10.9231 34.4471 11.5814 34.4793C14.0986 34.6006 16.1431 32.5549 16.1223 29.9845C16.1223 29.9845 16.1223 29.9845 16.1223 29.9845L16.2723 29.9833C16.2633 28.9061 16.3323 27.8427 16.6433 26.8068C17.7929 22.9766 21.1194 21.7775 23.9132 22.1698L29.4666 7.94839ZM29.4666 7.94839C29.5049 7.98696 29.5509 7.99987 29.5715 8.00437C29.5811 8.00646 29.6003 8.01007 29.6222 8.00881L29.6226 8.00879C29.6269 8.00854 29.6458 8.00748 29.6677 7.99918C29.6771 7.99564 29.7088 7.98306 29.7343 7.94953C29.7488 7.93046 29.7611 7.90463 29.7642 7.87339M29.4666 7.94839C29.4667 7.94847 29.4668 7.94856 29.4669 7.94864L29.7642 7.87339M29.7642 7.87339C29.8209 7.7056 29.8734 7.53235 29.925 7.36197C29.9575 7.25458 29.9897 7.14833 30.0224 7.0453C30.1119 6.76322 30.2087 6.49312 30.3375 6.24311M29.7642 7.87339L30.3375 6.24311M30.3375 6.24311C30.9965 4.96493 32.0311 4.13654 33.4202 3.75071L33.4202 3.75069C34.0301 3.58106 34.655 3.38954 35.2365 3.1102L35.2366 3.11017C36.2759 2.61033 36.9917 1.73754 37.5454 0.779137L37.5454 0.77911C37.7956 0.345719 38.0392 0.176431 38.2712 0.152981C38.5109 0.128743 38.7972 0.252769 39.1473 0.549778C39.8518 1.14805 40.1786 1.97898 40.335 2.88613L40.4828 2.86065L40.335 2.88615C40.7717 5.41738 40.5546 7.90697 39.7001 10.3219C39.114 11.9776 37.9127 13.0046 36.2452 13.4855C36.1058 13.5257 35.9898 13.5817 35.8947 13.6698C35.7998 13.7578 35.7363 13.8678 35.6856 13.9982C35.4525 14.5949 35.2136 15.1932 34.9744 15.7921C34.6845 16.5183 34.3941 17.2455 34.1133 17.9721M30.3375 6.24311L20.5318 39.2777C20.6229 39.5354 20.773 39.7016 20.9499 39.7846C21.1268 39.8677 21.3498 39.8766 21.6039 39.7826C22.0193 39.6289 22.4361 39.4439 22.7352 39.169L22.8367 39.2795L22.7353 39.169C22.8193 39.0919 22.9033 39.0149 22.9874 38.9379C23.8344 38.1619 24.6786 37.3885 25.4019 36.5182L25.4019 36.5182C29.6173 31.449 32.3 25.5669 34.1283 19.2412L34.1283 19.2412C34.1511 19.1623 34.1507 19.0686 34.1394 18.9524C34.1361 18.9193 34.1317 18.8825 34.127 18.8439C34.1169 18.7599 34.1057 18.6669 34.1033 18.5823M34.1133 17.9721C34.1133 17.9719 34.1134 17.9717 34.1135 17.9715L34.2532 18.0262L34.1133 17.9721ZM34.1133 17.9721C34.0697 18.084 34.0704 18.2033 34.0777 18.3029C34.0808 18.3453 34.0855 18.3886 34.0899 18.4286C34.0908 18.4364 34.0916 18.444 34.0924 18.4515C34.0976 18.4991 34.1018 18.5419 34.1033 18.5823M34.1033 18.5823C34.1033 18.5825 34.1033 18.5827 34.1033 18.5828L34.2532 18.5774L34.1032 18.5817C34.1032 18.5819 34.1032 18.5821 34.1033 18.5823ZM28.0258 15.6478L28.1238 15.7614C28.1306 15.7555 28.1377 15.7495 28.1449 15.7433C28.2362 15.6649 28.3614 15.5576 28.4301 15.4215L28.4303 15.4211C29.023 14.2376 29.6128 13.0517 30.1813 11.8542C30.2289 11.7539 30.2449 11.6298 30.2407 11.5175C30.2364 11.4053 30.2111 11.2824 30.1551 11.1861L30.1548 11.1856C27.0479 5.89582 20.6505 2.9689 14.6904 4.09799L14.6904 4.09799C7.39239 5.4817 2.26121 11.6787 2.19845 19.4772L2.19784 19.4772L2.19895 19.4906C2.20601 19.5769 2.21272 19.6877 2.22051 19.8161C2.24164 20.1647 2.27062 20.6427 2.3356 21.1102L2.33562 21.1103C3.06252 26.303 5.71181 30.1815 10.24 32.7065L10.313 32.5755L10.24 32.7065C12.3531 33.8843 14.7269 32.3721 14.7552 29.9507L14.7552 29.9506C14.7643 29.1398 14.7914 28.3277 14.925 27.5432C15.389 24.8223 16.7156 22.7013 19.1823 21.4263L19.1824 21.4263C20.852 20.5627 22.643 20.4098 24.4899 20.6675C24.6535 20.6905 24.7956 20.6797 24.9199 20.6065C25.0399 20.5359 25.1199 20.4203 25.1906 20.2916L25.1906 20.2916C25.9166 18.97 26.6473 17.6536 27.4161 16.3605C27.4792 16.2547 27.5816 16.1638 27.7126 16.0671C27.7502 16.0393 27.7915 16.0102 27.8343 15.98C27.9306 15.912 28.035 15.8384 28.1241 15.7612L28.0258 15.6478ZM28.0258 15.6478C27.9425 15.7201 27.8492 15.7859 27.7561 15.8515C27.5737 15.98 27.3921 16.108 27.2873 16.2836L30.0458 11.7898C29.478 12.9859 28.8888 14.1705 28.2961 15.354C28.2416 15.462 28.1387 15.5506 28.0427 15.6333C28.037 15.6382 28.0314 15.643 28.0258 15.6478ZM38.5268 1.98613L38.6169 2.07701L38.618 2.07815L38.6352 2.09552L38.646 2.11746C39.0589 2.95583 39.143 3.83227 39.1703 4.69116C39.2228 6.35655 39.0381 8.00129 38.5218 9.59491L38.3791 9.54868L38.5218 9.59492C37.966 11.3103 36.458 12.3757 34.7473 12.2838C33.0193 12.1909 31.6398 11.0061 31.2533 9.29128L38.5268 1.98613ZM38.5268 1.98613L38.4229 2.06071C38.3974 2.079 38.379 2.09104 38.3627 2.10173C38.3585 2.10451 38.3544 2.1072 38.3503 2.10989L38.3493 2.11058C38.3326 2.12162 38.3043 2.1404 38.2803 2.16949L38.2795 2.17055C38.2244 2.23865 38.1707 2.30937 38.1188 2.37784C38.1021 2.39992 38.0855 2.42176 38.0691 2.44321M38.5268 1.98613L38.0691 2.44321M38.0691 2.44321C37.2027 3.56629 36.1335 4.38599 34.7866 4.80419C34.628 4.8533 34.4646 4.90067 34.2997 4.94847C34.0424 5.02305 33.7814 5.0987 33.5291 5.18372L38.0691 2.44321ZM28.2477 17.6016C25.8961 21.5327 23.9405 25.6485 22.7529 30.1116C22.1518 32.3693 21.7058 34.6607 21.6034 37.0124L21.6034 37.0124C21.5939 37.2327 21.5963 37.4557 21.5988 37.6742C21.5999 37.7717 21.601 37.8683 21.601 37.9634V38.0814L21.7157 38.1092L21.716 38.1093L21.7163 38.1093L21.7166 38.1094L21.7169 38.1095L21.7172 38.1096L21.7175 38.1096L21.7178 38.1097L21.7182 38.1098L21.7185 38.1099L21.7188 38.1099L21.7191 38.11L21.7194 38.1101L21.7197 38.1101L21.72 38.1102L21.7203 38.1103L21.7206 38.1104L21.7209 38.1104L21.7212 38.1105L21.7215 38.1106L21.7218 38.1107L21.7221 38.1107L21.7224 38.1108L21.7227 38.1109L21.723 38.111L21.7233 38.111L21.7236 38.1111L21.7239 38.1112L21.7242 38.1113L21.7246 38.1113L21.7249 38.1114L21.7252 38.1115L21.7255 38.1115L21.7258 38.1116L21.7261 38.1117L21.7264 38.1118L21.7267 38.1118L21.727 38.1119L21.7273 38.112L21.7276 38.1121L21.7279 38.1121L21.7282 38.1122L21.7285 38.1123L21.7288 38.1124L21.7291 38.1124L21.7294 38.1125L21.7297 38.1126L21.73 38.1127L21.7303 38.1127L21.7306 38.1128L21.731 38.1129L21.7313 38.1129L21.7316 38.113L21.7319 38.1131L21.7322 38.1132L21.7325 38.1132L21.7328 38.1133L21.7331 38.1134L21.7334 38.1135L21.7337 38.1135L21.734 38.1136L21.7343 38.1137L21.7346 38.1138L21.7349 38.1138L21.7352 38.1139L21.7355 38.114L21.7358 38.1141L21.7361 38.1141L21.7364 38.1142L21.7367 38.1143L21.7371 38.1143L21.7374 38.1144L21.7377 38.1145L21.738 38.1146L21.7383 38.1146L21.7386 38.1147L21.7389 38.1148L21.7392 38.1149L21.7395 38.1149L21.7398 38.115L21.7401 38.1151L21.7404 38.1152L21.7407 38.1152L21.741 38.1153L21.7413 38.1154L21.7416 38.1155L21.7419 38.1155L21.7422 38.1156L21.7425 38.1157L21.7428 38.1157L21.7431 38.1158L21.7435 38.1159L21.7438 38.116L21.7441 38.116L21.7444 38.1161L21.7447 38.1162L21.745 38.1163L21.7453 38.1163L21.7456 38.1164L21.7459 38.1165L21.7462 38.1166L21.7465 38.1166L21.7468 38.1167L21.7471 38.1168L21.7474 38.1169L21.7477 38.1169L21.748 38.117L21.7483 38.1171L21.7486 38.1171L21.7489 38.1172L21.7492 38.1173L21.7496 38.1174L21.7499 38.1174L21.7502 38.1175L21.7505 38.1176L21.7508 38.1177L21.7511 38.1177L21.7514 38.1178L21.7517 38.1179L21.752 38.118L21.7523 38.118L21.7526 38.1181L21.7529 38.1182L21.7532 38.1183L21.7535 38.1183L21.7538 38.1184L21.7541 38.1185L21.7544 38.1185L21.7547 38.1186L21.755 38.1187L21.7553 38.1188L21.7556 38.1188L21.756 38.1189L21.7563 38.119L21.7566 38.1191L21.7569 38.1191L21.7572 38.1192L21.7575 38.1193L21.7578 38.1194L21.7581 38.1194L21.7584 38.1195L21.7587 38.1196L21.759 38.1197L21.7593 38.1197L21.7596 38.1198L21.7599 38.1199L21.7602 38.1199L21.7605 38.12L21.7608 38.1201L21.7611 38.1202L21.7614 38.1202L21.7617 38.1203L21.762 38.1204L21.7624 38.1205L21.7627 38.1205L21.763 38.1206L21.7633 38.1207L21.7636 38.1208L21.7639 38.1208L21.7642 38.1209L21.7645 38.121L21.7648 38.1211L21.7651 38.1211L21.7654 38.1212L21.7657 38.1213L21.766 38.1213L21.7663 38.1214L21.7666 38.1215L21.7669 38.1216L21.7672 38.1216L21.7675 38.1217L21.7678 38.1218L21.7681 38.1219L21.7685 38.1219L21.7688 38.122L21.7691 38.1221L21.7694 38.1222L21.7697 38.1222L21.77 38.1223L21.7703 38.1224L21.7706 38.1225L21.7709 38.1225L21.7712 38.1226L21.7715 38.1227L21.7718 38.1227L21.7721 38.1228L21.7724 38.1229L21.7727 38.123L21.773 38.123L21.7733 38.1231L21.7736 38.1232L21.7739 38.1233L21.7742 38.1233L21.7745 38.1234L21.7749 38.1235L21.7752 38.1236L21.7755 38.1236L21.7758 38.1237L21.7761 38.1238L21.7764 38.1239L21.7767 38.1239L21.777 38.124L21.7773 38.1241L21.7776 38.1241L21.7779 38.1242L21.7782 38.1243L21.7785 38.1244L21.7788 38.1244L21.7791 38.1245L21.7794 38.1246L21.7797 38.1247L21.78 38.1247L21.7803 38.1248L21.7806 38.1249L21.781 38.125L21.7813 38.125L21.7816 38.1251L21.7819 38.1252L21.7822 38.1253L21.7825 38.1253L21.7828 38.1254L21.7831 38.1255L21.7834 38.1255L21.7837 38.1256L21.784 38.1257L21.7843 38.1258L21.7846 38.1258L21.7849 38.1259L21.7852 38.126L21.7855 38.1261L21.7858 38.1261L21.7861 38.1262L21.7864 38.1263L21.7867 38.1264L21.787 38.1264L21.7874 38.1265L21.7877 38.1266L21.788 38.1267L21.7883 38.1267L21.7886 38.1268L21.7889 38.1269L21.7892 38.1269L21.7895 38.127L21.7898 38.1271L21.7901 38.1272L21.7904 38.1272L21.7907 38.1273L21.791 38.1274L21.7913 38.1275L21.7916 38.1275L21.7919 38.1276L21.7922 38.1277L21.7925 38.1278L21.7928 38.1278L21.7931 38.1279L21.7934 38.128L21.7938 38.1281L21.7941 38.1281L21.7944 38.1282L21.7947 38.1283L21.795 38.1283L21.7953 38.1284L21.7956 38.1285L21.7959 38.1286L21.7962 38.1286L21.7965 38.1287L21.7968 38.1288L21.7971 38.1289L21.7974 38.1289L21.7977 38.129L21.798 38.1291L21.7983 38.1292L21.7986 38.1292L21.7989 38.1293L21.7992 38.1294L21.7995 38.1295L21.7999 38.1295L21.8002 38.1296L21.8005 38.1297L21.8008 38.1297L21.8011 38.1298L21.8014 38.1299L21.8017 38.13L21.802 38.13L21.8023 38.1301L21.8026 38.1302L21.8029 38.1303L21.8032 38.1303L21.8035 38.1304L21.8038 38.1305L21.8041 38.1306L21.8044 38.1306L21.8047 38.1307L21.805 38.1308L21.8053 38.1309L21.8056 38.1309L21.8059 38.131L21.8063 38.1311L21.8066 38.1311L21.8069 38.1312L21.8072 38.1313L21.8075 38.1314L21.8078 38.1314L21.8081 38.1315L21.8084 38.1316L21.8087 38.1317L21.809 38.1317L21.8093 38.1318L21.8096 38.1319L21.8099 38.132L21.8102 38.132L21.8105 38.1321L21.8108 38.1322L21.8111 38.1323L21.8114 38.1323L21.8117 38.1324L21.812 38.1325L21.8123 38.1325L21.8127 38.1326L21.813 38.1327L21.8133 38.1328L21.8136 38.1328L21.8139 38.1329L21.8142 38.133L21.8145 38.1331L21.8148 38.1331L21.8151 38.1332L21.8154 38.1333L21.8157 38.1334L21.816 38.1334L21.8163 38.1335L21.8166 38.1336L21.8169 38.1337L21.8172 38.1337L21.8175 38.1338L21.8178 38.1339L21.8181 38.1339L21.8184 38.134L21.8188 38.1341L21.8191 38.1342L21.8194 38.1342L21.8197 38.1343L21.82 38.1344L21.8203 38.1345L21.8206 38.1345L21.8209 38.1346L21.8212 38.1347L21.8215 38.1348L21.8218 38.1348L21.8221 38.1349L21.8224 38.135L21.8227 38.1351L21.823 38.1351L21.8233 38.1352L21.8236 38.1353L21.8239 38.1353L21.8242 38.1354L21.8245 38.1355L21.8248 38.1356L21.8252 38.1356L21.8255 38.1357L21.8258 38.1358L21.8261 38.1359L21.8264 38.1359L21.8267 38.136L21.827 38.1361L21.8273 38.1362L21.8276 38.1362L21.8279 38.1363L21.8282 38.1364L21.8285 38.1365L21.8288 38.1365L21.8291 38.1366L21.8294 38.1367L21.8297 38.1367L21.83 38.1368L21.8303 38.1369L21.8306 38.137L21.8309 38.137L21.8312 38.1371L21.8316 38.1372L21.8319 38.1373L21.8322 38.1373L21.8325 38.1374L21.8328 38.1375L21.8331 38.1376L21.8334 38.1376L21.8337 38.1377L21.834 38.1378L21.8343 38.1379L21.8346 38.1379L21.8349 38.138L21.8352 38.1381L21.8355 38.1381L21.8358 38.1382L21.8361 38.1383L21.8364 38.1384L21.8367 38.1384L21.837 38.1385L21.8373 38.1386L21.8377 38.1387L21.838 38.1387L21.8383 38.1388L21.8386 38.1389L21.8389 38.139L21.8392 38.139L21.8395 38.1391L21.8398 38.1392L21.8401 38.1393L21.8404 38.1393L21.8407 38.1394L21.841 38.1395L21.8413 38.1395L21.8416 38.1396L21.8419 38.1397L21.8422 38.1398L21.8425 38.1398L21.8428 38.1399L21.8431 38.14L21.8434 38.1401L21.8437 38.1401L21.8441 38.1402L21.8444 38.1403L21.8447 38.1404L21.845 38.1404L21.8453 38.1405L21.8456 38.1406L21.8459 38.1407L21.8462 38.1407L21.8465 38.1408L21.8468 38.1409L21.8471 38.1409L21.8474 38.141L21.8477 38.1411L21.848 38.1412L21.8483 38.1412L21.8486 38.1413L21.8489 38.1414L21.8492 38.1415L21.8495 38.1415L21.8498 38.1416L21.8501 38.1417L21.8505 38.1418L21.8508 38.1418L21.8511 38.1419L21.8514 38.142L21.8517 38.1421L21.852 38.1421L21.8523 38.1422L21.8526 38.1423L21.8529 38.1423L21.8532 38.1424L21.8535 38.1425L21.8538 38.1426L21.8541 38.1426L21.8544 38.1427L21.8547 38.1428L21.855 38.1429L21.8553 38.1429L21.8556 38.143L21.8559 38.1431L21.8562 38.1432L21.8566 38.1432L21.8569 38.1433L21.8572 38.1434L21.8575 38.1435L21.8578 38.1435L21.8581 38.1436L21.8584 38.1437L21.8587 38.1437L21.859 38.1438L21.8593 38.1439L21.8596 38.144L21.8599 38.144L21.8602 38.1441L21.8605 38.1442L21.8608 38.1443L21.8611 38.1443L21.8614 38.1444L21.8617 38.1445L21.862 38.1446L21.8623 38.1446L21.8626 38.1447L21.863 38.1448L21.8633 38.1449L21.8636 38.1449L21.8639 38.145L21.8642 38.1451L21.8645 38.1451L21.8648 38.1452L21.8651 38.1453L21.8654 38.1454L21.8657 38.1454L21.866 38.1455L21.8663 38.1456L21.8666 38.1457L21.8669 38.1457L21.8672 38.1458L21.8675 38.1459L21.8678 38.146L21.8681 38.146L21.8684 38.1461L21.8687 38.1462L21.869 38.1463L21.8694 38.1463L21.8697 38.1464L21.87 38.1465L21.8703 38.1465L21.8706 38.1466L21.8709 38.1467L21.8712 38.1468L21.8715 38.1468L21.8718 38.1469L21.9516 38.1662L22.0109 38.1094C27.3725 32.968 30.4566 26.4934 32.6512 19.4901L32.6864 19.3776L32.5854 19.3167C32.5592 19.301 32.5339 19.2851 32.5094 19.2696C32.4534 19.2344 32.4013 19.2016 32.3512 19.1786L32.351 19.1785C31.1439 18.6259 29.9357 18.0744 28.7207 17.52L28.81 17.4211H28.4726H28.4714L28.4444 17.5457L28.3612 17.4706C28.3399 17.4942 28.3243 17.5106 28.3108 17.5247C28.3067 17.5291 28.3027 17.5332 28.2989 17.5373C28.2841 17.553 28.2649 17.5736 28.2485 17.6003L28.2477 17.6016ZM31.5424 12.5493L31.4093 12.487L31.3443 12.6188C31.0451 13.2256 30.7341 13.8576 30.4152 14.5056C30.1399 15.0651 29.8587 15.6365 29.5742 16.2139L29.506 16.3524L29.6464 16.4166C29.9318 16.5471 30.2135 16.676 30.4934 16.804C31.1818 17.1188 31.8591 17.4285 32.553 17.7464L32.6963 17.812L32.7548 17.6656C32.9651 17.1388 33.1733 16.6176 33.3773 16.1071C33.6735 15.3658 33.9606 14.647 34.2319 13.9665L34.2843 13.8351L34.1562 13.7751C33.7683 13.5933 33.3932 13.4173 33.0218 13.243C32.5293 13.012 32.0434 12.784 31.5424 12.5493ZM33.529 5.18375C31.8019 5.76343 30.8477 7.49492 31.2533 9.29122L33.529 5.18375Z" fill="#1C2C65" stroke="#F2F3F7" stroke-width="0.3"/>
<path d="M13.4458 22.6841L13.4452 22.6847V22.7464C13.4452 24.68 11.924 26.2126 10.022 26.2028H10.0219C8.14958 26.194 6.62662 24.6471 6.62662 22.7475C6.62662 20.8372 8.17233 19.281 10.0627 19.2853C11.9117 19.2897 13.414 20.8005 13.4458 22.6841ZM8.00279 22.7356H8.00278C7.99914 23.8894 8.91412 24.8291 10.0511 24.8254H10.0511C11.1654 24.8216 12.0763 23.8913 12.086 22.7614V22.7614C12.0958 21.6121 11.1741 20.6773 10.0307 20.6822L10.0307 20.6822C8.89843 20.6872 8.00703 21.5945 8.00279 22.7356Z" fill="#1C2C65" stroke="#F2F3F7" stroke-width="0.3"/>
<path d="M24.4954 11.9064L24.4954 11.9064C24.5819 10.0336 23.0751 8.42057 21.1583 8.34702L24.4954 11.9064ZM24.4954 11.9064C24.4061 13.8408 22.8374 15.3427 21.0054 15.2773M24.4954 11.9064L21.0054 15.2773M19.029 11.8019C19.0242 12.9439 19.9604 13.8899 21.0958 13.8837H21.0958C22.2131 13.8775 23.1233 12.9463 23.127 11.8166C23.1306 10.67 22.1965 9.72029 21.0641 9.73143L21.0641 9.73143C19.95 9.74256 19.0327 10.6798 19.029 11.8019ZM19.029 11.8019C19.029 11.8018 19.029 11.8018 19.029 11.8018L19.179 11.8024L19.029 11.8019C19.029 11.8019 19.029 11.8019 19.029 11.8019ZM21.0054 15.2773C19.0988 15.2082 17.5952 13.5961 17.6731 11.7115L21.0054 15.2773ZM17.6731 11.7114C17.7536 9.7789 19.3207 8.27723 21.1582 8.34702L17.6731 11.7114Z" fill="#1C2C65" stroke="#F2F3F7" stroke-width="0.3"/>
<path d="M11.536 15.3633V15.3633C10.3931 15.3744 9.46191 14.4452 9.46182 13.2971C9.46182 13.297 9.46182 13.297 9.46182 13.2969H9.61182C9.61069 12.2495 10.4476 11.3919 11.4882 11.3725L11.536 15.3633ZM11.536 15.3633C12.6589 15.3516 13.5598 14.4266 13.5586 13.2933M11.536 15.3633L13.5586 13.2933M13.5586 13.2933C13.5586 13.2934 13.5586 13.2934 13.5586 13.2935H13.4086L13.5586 13.2933ZM8.09471 13.2937C8.09796 11.3758 9.63731 9.83227 11.5328 9.84045V9.84046C13.4048 9.84812 14.9256 11.3947 14.9246 13.2979C14.9224 15.2142 13.3755 16.7677 11.4879 16.7568C9.62238 16.7458 8.09145 15.1865 8.09471 13.2937Z" fill="#1C2C65" stroke="#F2F3F7" stroke-width="0.3"/>
</svg>
